<svg width="683" height="683" viewBox="0 0 683 683" fill="none" xmlns="http://www.w3.org/2000/svg">
<path d="M59.2586 241.127V294.775H72.6986V302.615H36.6346V294.775H50.0746V241.127H36.6346V233.287H72.6986V241.127H59.2586ZM176.523 303.847C173.237 303.847 170.512 303.399 168.347 302.503C166.181 301.607 164.464 300.263 163.195 298.471C161.925 296.679 161.029 294.477 160.507 291.863C159.984 289.175 159.723 286.077 159.723 282.567V233.399H144.715V225.559H168.907V282.567C168.907 285.181 169.056 287.309 169.355 288.951C169.728 290.594 170.251 291.938 170.923 292.983C171.669 293.954 172.565 294.626 173.611 294.999C174.656 295.373 175.888 295.559 177.307 295.559C179.472 295.559 181.488 295.298 183.355 294.775C185.221 294.253 186.677 293.693 187.723 293.095L189.067 300.935C188.619 301.159 187.984 301.458 187.163 301.831C186.341 302.13 185.371 302.429 184.251 302.727C183.131 303.026 181.899 303.287 180.555 303.511C179.285 303.735 177.941 303.847 176.523 303.847ZM246.187 276.631C246.187 280.738 245.589 284.471 244.395 287.831C243.275 291.117 241.669 293.954 239.579 296.343C237.488 298.733 234.987 300.599 232.075 301.943C229.163 303.213 225.989 303.847 222.555 303.847C219.195 303.847 216.059 303.213 213.147 301.943C210.309 300.599 207.845 298.733 205.755 296.343C203.664 293.954 202.021 291.117 200.827 287.831C199.707 284.471 199.147 280.738 199.147 276.631C199.147 272.525 199.707 268.791 200.827 265.431C202.021 262.071 203.664 259.234 205.755 256.919C207.845 254.53 210.309 252.701 213.147 251.431C216.059 250.087 219.195 249.415 222.555 249.415C225.989 249.415 229.163 250.087 232.075 251.431C234.987 252.701 237.488 254.53 239.579 256.919C241.669 259.234 243.275 262.071 244.395 265.431C245.589 268.791 246.187 272.525 246.187 276.631ZM236.667 276.631C236.667 270.733 235.397 266.103 232.859 262.743C230.32 259.309 226.885 257.591 222.555 257.591C218.299 257.591 214.901 259.309 212.363 262.743C209.899 266.103 208.667 270.733 208.667 276.631C208.667 282.455 209.899 287.085 212.363 290.519C214.901 293.879 218.299 295.559 222.555 295.559C226.885 295.559 230.32 293.879 232.859 290.519C235.397 287.085 236.667 282.455 236.667 276.631ZM303.307 250.647C301.963 255.501 300.432 260.279 298.715 264.983C296.997 269.613 295.243 274.167 293.451 278.647C291.659 283.053 289.829 287.271 287.963 291.303C286.096 295.335 284.304 299.106 282.587 302.615H274.187C270.677 295.597 267.131 287.607 263.547 278.647C259.963 269.687 256.789 260.354 254.027 250.647H264.107C265.003 253.933 266.011 257.405 267.131 261.063C268.325 264.722 269.557 268.381 270.827 272.039C272.096 275.698 273.365 279.245 274.635 282.679C275.979 286.039 277.285 289.063 278.555 291.751C279.824 289.063 281.131 286.039 282.475 282.679C283.893 279.245 285.275 275.698 286.619 272.039C287.963 268.381 289.232 264.722 290.427 261.063C291.696 257.405 292.779 253.933 293.675 250.647H303.307ZM335.675 249.415C342.693 249.415 348.107 251.618 351.915 256.023C355.723 260.354 357.627 266.962 357.627 275.847V279.095H320.443C320.816 284.471 322.571 288.578 325.707 291.415C328.917 294.178 333.397 295.559 339.147 295.559C342.432 295.559 345.232 295.298 347.547 294.775C349.861 294.253 351.616 293.693 352.811 293.095L354.043 300.935C352.923 301.533 350.907 302.167 347.995 302.839C345.083 303.511 341.797 303.847 338.139 303.847C333.659 303.847 329.701 303.175 326.267 301.831C322.907 300.413 320.107 298.509 317.867 296.119C315.627 293.73 313.947 290.893 312.827 287.607C311.707 284.247 311.147 280.626 311.147 276.743C311.147 272.114 311.856 268.082 313.275 264.647C314.693 261.213 316.56 258.375 318.875 256.135C321.189 253.895 323.803 252.215 326.715 251.095C329.627 249.975 332.613 249.415 335.675 249.415ZM348.219 271.591C348.219 267.186 347.061 263.714 344.747 261.175C342.432 258.562 339.371 257.255 335.563 257.255C333.397 257.255 331.419 257.666 329.627 258.487C327.909 259.309 326.416 260.391 325.147 261.735C323.877 263.079 322.869 264.61 322.123 266.327C321.376 268.045 320.891 269.799 320.667 271.591H348.219Z" fill="#231F20"/>
<path d="M31.2586 365.447C35.7386 363.73 39.9573 362.871 43.9146 362.871C46.08 362.871 48.096 363.207 49.9626 363.879C51.904 364.477 53.5466 365.447 54.8906 366.791C58.1013 364.178 61.536 362.871 65.1946 362.871C66.9866 362.871 68.6666 363.207 70.2346 363.879C71.8773 364.551 73.296 365.559 74.4906 366.903C75.76 368.247 76.768 369.927 77.5146 371.943C78.2613 373.959 78.6346 376.311 78.6346 378.999V415.959H70.2346V378.775C70.2346 376.087 69.6373 374.034 68.4426 372.615C67.248 371.197 65.7546 370.487 63.9626 370.487C63.0666 370.487 62.1333 370.711 61.1626 371.159C60.192 371.607 59.296 372.317 58.4746 373.287C58.9226 375.005 59.1466 376.909 59.1466 378.999V395.911H50.7466V378.887C50.7466 376.274 50.336 374.221 49.5146 372.727C48.6933 371.234 47.088 370.487 44.6986 370.487C43.2053 370.487 41.5253 370.823 39.6586 371.495V415.959H31.2586V365.447ZM106.075 355.927C104.133 355.927 102.453 355.255 101.035 353.911C99.616 352.567 98.9066 350.738 98.9066 348.423C98.9066 346.109 99.616 344.279 101.035 342.935C102.453 341.591 104.133 340.919 106.075 340.919C108.091 340.919 109.771 341.591 111.115 342.935C112.533 344.279 113.243 346.109 113.243 348.423C113.243 350.738 112.533 352.567 111.115 353.911C109.771 355.255 108.091 355.927 106.075 355.927ZM103.723 371.719H88.7146V363.991H112.907V395.911C112.907 401.063 113.616 404.535 115.035 406.327C116.453 408.045 118.581 408.903 121.419 408.903C123.584 408.903 125.563 408.642 127.355 408.119C129.221 407.597 130.677 407.037 131.723 406.439L133.067 414.279C132.619 414.503 131.984 414.802 131.163 415.175C130.341 415.474 129.371 415.773 128.251 416.071C127.205 416.37 126.011 416.631 124.667 416.855C123.397 417.079 122.053 417.191 120.635 417.191C117.349 417.191 114.624 416.743 112.459 415.847C110.293 414.951 108.539 413.607 107.195 411.815C105.925 410.023 105.029 407.821 104.507 405.207C103.984 402.519 103.723 399.421 103.723 395.911V371.719ZM146.619 365.447C149.979 364.626 153.301 363.991 156.587 363.543C159.947 363.095 163.083 362.871 165.995 362.871C172.939 362.871 178.165 364.663 181.675 368.247C185.259 371.831 187.051 377.581 187.051 385.495V415.959H177.867V387.175C177.867 383.815 177.568 381.09 176.971 378.999C176.373 376.909 175.515 375.303 174.395 374.183C173.349 372.989 172.043 372.167 170.475 371.719C168.981 371.271 167.339 371.047 165.547 371.047C164.053 371.047 162.448 371.159 160.731 371.383C159.088 371.533 157.483 371.757 155.915 372.055V415.959H146.619V365.447ZM218.075 355.927C216.133 355.927 214.453 355.255 213.035 353.911C211.616 352.567 210.907 350.738 210.907 348.423C210.907 346.109 211.616 344.279 213.035 342.935C214.453 341.591 216.133 340.919 218.075 340.919C220.091 340.919 221.771 341.591 223.115 342.935C224.533 344.279 225.243 346.109 225.243 348.423C225.243 350.738 224.533 352.567 223.115 353.911C221.771 355.255 220.091 355.927 218.075 355.927ZM215.723 371.719H200.715V363.991H224.907V395.911C224.907 401.063 225.616 404.535 227.035 406.327C228.453 408.045 230.581 408.903 233.419 408.903C235.584 408.903 237.563 408.642 239.355 408.119C241.221 407.597 242.677 407.037 243.723 406.439L245.067 414.279C244.619 414.503 243.984 414.802 243.163 415.175C242.341 415.474 241.371 415.773 240.251 416.071C239.205 416.37 238.011 416.631 236.667 416.855C235.397 417.079 234.053 417.191 232.635 417.191C229.349 417.191 226.624 416.743 224.459 415.847C222.293 414.951 220.539 413.607 219.195 411.815C217.925 410.023 217.029 407.821 216.507 405.207C215.984 402.519 215.723 399.421 215.723 395.911V371.719ZM255.259 365.447C259.739 363.73 263.957 362.871 267.915 362.871C270.08 362.871 272.096 363.207 273.963 363.879C275.904 364.477 277.547 365.447 278.891 366.791C282.101 364.178 285.536 362.871 289.195 362.871C290.987 362.871 292.667 363.207 294.235 363.879C295.877 364.551 297.296 365.559 298.491 366.903C299.76 368.247 300.768 369.927 301.515 371.943C302.261 373.959 302.635 376.311 302.635 378.999V415.959H294.235V378.775C294.235 376.087 293.637 374.034 292.443 372.615C291.248 371.197 289.755 370.487 287.963 370.487C287.067 370.487 286.133 370.711 285.163 371.159C284.192 371.607 283.296 372.317 282.475 373.287C282.923 375.005 283.147 376.909 283.147 378.999V395.911H274.747V378.887C274.747 376.274 274.336 374.221 273.515 372.727C272.693 371.234 271.088 370.487 268.699 370.487C267.205 370.487 265.525 370.823 263.659 371.495V415.959H255.259V365.447ZM335.227 409.351C337.541 409.351 339.595 409.277 341.387 409.127C343.253 408.978 344.784 408.791 345.979 408.567V393.111C344.784 392.738 343.328 392.439 341.611 392.215C339.968 391.991 338.213 391.879 336.347 391.879C334.629 391.879 332.949 392.029 331.307 392.327C329.664 392.551 328.208 392.999 326.939 393.671C325.669 394.343 324.624 395.239 323.803 396.359C322.981 397.405 322.571 398.749 322.571 400.391C322.571 403.751 323.691 406.103 325.931 407.447C328.245 408.717 331.344 409.351 335.227 409.351ZM334.331 362.759C338.213 362.759 341.461 363.245 344.075 364.215C346.763 365.186 348.928 366.53 350.571 368.247C352.213 369.965 353.371 372.055 354.043 374.519C354.715 376.983 355.051 379.671 355.051 382.583V415.063C352.885 415.437 350.011 415.885 346.427 416.407C342.917 416.93 339.296 417.191 335.563 417.191C332.725 417.191 329.963 416.93 327.275 416.407C324.587 415.959 322.197 415.138 320.107 413.943C318.016 412.674 316.336 410.957 315.067 408.791C313.797 406.626 313.163 403.863 313.163 400.503C313.163 397.517 313.797 395.015 315.067 392.999C316.411 390.909 318.091 389.229 320.107 387.959C322.197 386.69 324.549 385.794 327.163 385.271C329.851 384.674 332.539 384.375 335.227 384.375C338.885 384.375 342.469 384.786 345.979 385.607V383.031C345.979 381.463 345.792 379.97 345.419 378.551C345.12 377.058 344.485 375.714 343.515 374.519C342.619 373.325 341.349 372.391 339.707 371.719C338.139 370.973 336.085 370.599 333.547 370.599C330.336 370.599 327.536 370.823 325.147 371.271C322.757 371.719 320.928 372.167 319.659 372.615L318.539 364.999C319.808 364.402 321.899 363.879 324.811 363.431C327.797 362.983 330.971 362.759 334.331 362.759ZM400.523 417.191C397.237 417.191 394.512 416.743 392.347 415.847C390.181 414.951 388.464 413.607 387.195 411.815C385.925 410.023 385.029 407.821 384.507 405.207C383.984 402.519 383.723 399.421 383.723 395.911V346.743H368.715V338.903H392.907V395.911C392.907 398.525 393.056 400.653 393.355 402.295C393.728 403.938 394.251 405.282 394.923 406.327C395.669 407.298 396.565 407.97 397.611 408.343C398.656 408.717 399.888 408.903 401.307 408.903C403.472 408.903 405.488 408.642 407.355 408.119C409.221 407.597 410.677 407.037 411.723 406.439L413.067 414.279C412.619 414.503 411.984 414.802 411.163 415.175C410.341 415.474 409.371 415.773 408.251 416.071C407.131 416.37 405.899 416.631 404.555 416.855C403.285 417.079 401.941 417.191 400.523 417.191ZM442.075 355.927C440.133 355.927 438.453 355.255 437.035 353.911C435.616 352.567 434.907 350.738 434.907 348.423C434.907 346.109 435.616 344.279 437.035 342.935C438.453 341.591 440.133 340.919 442.075 340.919C444.091 340.919 445.771 341.591 447.115 342.935C448.533 344.279 449.243 346.109 449.243 348.423C449.243 350.738 448.533 352.567 447.115 353.911C445.771 355.255 444.091 355.927 442.075 355.927ZM439.723 371.719H424.715V363.991H448.907V395.911C448.907 401.063 449.616 404.535 451.035 406.327C452.453 408.045 454.581 408.903 457.419 408.903C459.584 408.903 461.563 408.642 463.355 408.119C465.221 407.597 466.677 407.037 467.723 406.439L469.067 414.279C468.619 414.503 467.984 414.802 467.163 415.175C466.341 415.474 465.371 415.773 464.251 416.071C463.205 416.37 462.011 416.631 460.667 416.855C459.397 417.079 458.053 417.191 456.635 417.191C453.349 417.191 450.624 416.743 448.459 415.847C446.293 414.951 444.539 413.607 443.195 411.815C441.925 410.023 441.029 407.821 440.507 405.207C439.984 402.519 439.723 399.421 439.723 395.911V371.719ZM513.979 402.967C513.979 401.101 513.195 399.57 511.627 398.375C510.133 397.181 508.229 396.135 505.915 395.239C503.675 394.343 501.211 393.485 498.523 392.663C495.835 391.767 493.333 390.685 491.019 389.415C488.779 388.146 486.875 386.578 485.307 384.711C483.813 382.845 483.067 380.418 483.067 377.431C483.067 373.25 484.747 369.778 488.107 367.015C491.541 364.178 496.88 362.759 504.123 362.759C506.96 362.759 509.872 362.983 512.859 363.431C515.92 363.805 518.533 364.327 520.699 364.999L519.019 373.287C518.421 372.989 517.6 372.69 516.555 372.391C515.509 372.018 514.315 371.719 512.971 371.495C511.627 371.197 510.171 370.973 508.603 370.823C507.109 370.674 505.653 370.599 504.235 370.599C496.171 370.599 492.139 372.802 492.139 377.207C492.139 378.775 492.885 380.119 494.379 381.239C495.947 382.285 497.888 383.255 500.203 384.151C502.517 385.047 505.019 385.981 507.707 386.951C510.395 387.847 512.896 388.967 515.211 390.311C517.525 391.655 519.429 393.298 520.923 395.239C522.491 397.106 523.275 399.495 523.275 402.407C523.275 407.111 521.445 410.77 517.787 413.383C514.128 415.922 508.341 417.191 500.427 417.191C496.843 417.191 493.557 416.893 490.571 416.295C487.584 415.698 484.747 414.802 482.059 413.607L483.851 405.207C486.464 406.402 489.189 407.41 492.027 408.231C494.939 408.978 498.037 409.351 501.323 409.351C509.76 409.351 513.979 407.223 513.979 402.967ZM535.259 365.447C539.739 363.73 543.957 362.871 547.915 362.871C550.08 362.871 552.096 363.207 553.963 363.879C555.904 364.477 557.547 365.447 558.891 366.791C562.101 364.178 565.536 362.871 569.195 362.871C570.987 362.871 572.667 363.207 574.235 363.879C575.877 364.551 577.296 365.559 578.491 366.903C579.76 368.247 580.768 369.927 581.515 371.943C582.261 373.959 582.635 376.311 582.635 378.999V415.959H574.235V378.775C574.235 376.087 573.637 374.034 572.443 372.615C571.248 371.197 569.755 370.487 567.963 370.487C567.067 370.487 566.133 370.711 565.163 371.159C564.192 371.607 563.296 372.317 562.475 373.287C562.923 375.005 563.147 376.909 563.147 378.999V395.911H554.747V378.887C554.747 376.274 554.336 374.221 553.515 372.727C552.693 371.234 551.088 370.487 548.699 370.487C547.205 370.487 545.525 370.823 543.659 371.495V415.959H535.259V365.447ZM622.955 408.791C622.955 411.031 622.208 413.01 620.715 414.727C619.221 416.445 617.243 417.303 614.779 417.303C612.24 417.303 610.224 416.445 608.731 414.727C607.237 413.01 606.491 411.031 606.491 408.791C606.491 406.477 607.237 404.461 608.731 402.743C610.224 401.026 612.24 400.167 614.779 400.167C617.243 400.167 619.221 401.026 620.715 402.743C622.208 404.461 622.955 406.477 622.955 408.791Z" fill="#231F20"/>
<path d="M31.3226 464.637V472.301H33.2426V473.421H28.0906V472.301H30.0106V464.637H28.0906V463.517H33.2426V464.637H31.3226ZM38.5546 465.997H41.6906V467.101H38.5546V470.557C38.5546 470.93 38.5813 471.234 38.6346 471.469C38.688 471.703 38.7733 471.895 38.8906 472.045C39.0186 472.183 39.1786 472.279 39.3706 472.333C39.5626 472.386 39.7973 472.413 40.0746 472.413C40.4586 472.413 40.768 472.381 41.0026 472.317C41.2373 472.253 41.4613 472.167 41.6746 472.061L41.8666 473.181C41.7173 473.245 41.4773 473.33 41.1466 473.437C40.8266 473.543 40.4266 473.597 39.9466 473.597C39.392 473.597 38.9386 473.533 38.5866 473.405C38.2346 473.277 37.9573 473.085 37.7546 472.829C37.5626 472.573 37.4293 472.258 37.3546 471.885C37.28 471.501 37.2426 471.058 37.2426 470.557V467.101H35.6746V465.997H37.2426V463.917L38.5546 463.693V465.997ZM51.3226 466.205C51.9626 465.959 52.5653 465.837 53.1306 465.837C53.44 465.837 53.728 465.885 53.9946 465.981C54.272 466.066 54.5066 466.205 54.6986 466.397C55.1573 466.023 55.648 465.837 56.1706 465.837C56.4266 465.837 56.6666 465.885 56.8906 465.981C57.1253 466.077 57.328 466.221 57.4986 466.413C57.68 466.605 57.824 466.845 57.9306 467.133C58.0373 467.421 58.0906 467.757 58.0906 468.141V473.421H56.8906V468.109C56.8906 467.725 56.8053 467.431 56.6346 467.229C56.464 467.026 56.2506 466.925 55.9946 466.925C55.8666 466.925 55.7333 466.957 55.5946 467.021C55.456 467.085 55.328 467.186 55.2106 467.325C55.2746 467.57 55.3066 467.842 55.3066 468.141V470.557H54.1066V468.125C54.1066 467.751 54.048 467.458 53.9306 467.245C53.8133 467.031 53.584 466.925 53.2426 466.925C53.0293 466.925 52.7893 466.973 52.5226 467.069V473.421H51.3226V466.205ZM62.7466 472.477C63.0773 472.477 63.3706 472.466 63.6266 472.445C63.8933 472.423 64.112 472.397 64.2826 472.365V470.157C64.112 470.103 63.904 470.061 63.6586 470.029C63.424 469.997 63.1733 469.981 62.9066 469.981C62.6613 469.981 62.4213 470.002 62.1866 470.045C61.952 470.077 61.744 470.141 61.5626 470.237C61.3813 470.333 61.232 470.461 61.1146 470.621C60.9973 470.77 60.9386 470.962 60.9386 471.197C60.9386 471.677 61.0986 472.013 61.4186 472.205C61.7493 472.386 62.192 472.477 62.7466 472.477ZM62.6186 465.821C63.1733 465.821 63.6373 465.89 64.0106 466.029C64.3946 466.167 64.704 466.359 64.9386 466.605C65.1733 466.85 65.3386 467.149 65.4346 467.501C65.5306 467.853 65.5786 468.237 65.5786 468.653V473.293C65.2693 473.346 64.8586 473.41 64.3466 473.485C63.8453 473.559 63.328 473.597 62.7946 473.597C62.3893 473.597 61.9946 473.559 61.6106 473.485C61.2266 473.421 60.8853 473.303 60.5866 473.133C60.288 472.951 60.048 472.706 59.8666 472.397C59.6853 472.087 59.5946 471.693 59.5946 471.213C59.5946 470.786 59.6853 470.429 59.8666 470.141C60.0586 469.842 60.2986 469.602 60.5866 469.421C60.8853 469.239 61.2213 469.111 61.5946 469.037C61.9786 468.951 62.3626 468.909 62.7466 468.909C63.2693 468.909 63.7813 468.967 64.2826 469.085V468.717C64.2826 468.493 64.256 468.279 64.2026 468.077C64.16 467.863 64.0693 467.671 63.9306 467.501C63.8026 467.33 63.6213 467.197 63.3866 467.101C63.1626 466.994 62.8693 466.941 62.5066 466.941C62.048 466.941 61.648 466.973 61.3066 467.037C60.9653 467.101 60.704 467.165 60.5226 467.229L60.3626 466.141C60.544 466.055 60.8426 465.981 61.2586 465.917C61.6853 465.853 62.1386 465.821 62.6186 465.821ZM70.4746 469.341C70.7626 469.554 71.088 469.826 71.4506 470.157C71.8133 470.477 72.1706 470.823 72.5226 471.197C72.8853 471.57 73.2266 471.954 73.5466 472.349C73.8666 472.733 74.1226 473.09 74.3146 473.421H72.7466C72.544 473.09 72.2933 472.754 71.9946 472.413C71.696 472.061 71.376 471.725 71.0346 471.405C70.704 471.085 70.368 470.791 70.0266 470.525C69.696 470.258 69.3973 470.034 69.1306 469.853V473.421H67.8026V462.557L69.1306 462.333V469.101C69.7173 468.589 70.304 468.082 70.8906 467.581C71.4773 467.069 72.0053 466.541 72.4746 465.997H74.0266C73.568 466.541 73.0133 467.101 72.3626 467.677C71.7226 468.253 71.0933 468.807 70.4746 469.341ZM78.8106 465.821C79.8133 465.821 80.5866 466.135 81.1306 466.765C81.6746 467.383 81.9466 468.327 81.9466 469.597V470.061H76.6346C76.688 470.829 76.9386 471.415 77.3866 471.821C77.8453 472.215 78.4853 472.413 79.3066 472.413C79.776 472.413 80.176 472.375 80.5066 472.301C80.8373 472.226 81.088 472.146 81.2586 472.061L81.4346 473.181C81.2746 473.266 80.9866 473.357 80.5706 473.453C80.1546 473.549 79.6853 473.597 79.1626 473.597C78.5226 473.597 77.9573 473.501 77.4666 473.309C76.9866 473.106 76.5866 472.834 76.2666 472.493C75.9466 472.151 75.7066 471.746 75.5466 471.277C75.3866 470.797 75.3066 470.279 75.3066 469.725C75.3066 469.063 75.408 468.487 75.6106 467.997C75.8133 467.506 76.08 467.101 76.4106 466.781C76.7413 466.461 77.1146 466.221 77.5306 466.061C77.9466 465.901 78.3733 465.821 78.8106 465.821ZM80.6026 468.989C80.6026 468.359 80.4373 467.863 80.1066 467.501C79.776 467.127 79.3386 466.941 78.7946 466.941C78.4853 466.941 78.2026 466.999 77.9466 467.117C77.7013 467.234 77.488 467.389 77.3066 467.581C77.1253 467.773 76.9813 467.991 76.8746 468.237C76.768 468.482 76.6986 468.733 76.6666 468.989H80.6026ZM91.4506 469.725C91.4506 469.053 91.5573 468.471 91.7706 467.981C91.984 467.49 92.2773 467.085 92.6506 466.765C93.024 466.445 93.456 466.21 93.9466 466.061C94.448 465.901 94.9813 465.821 95.5466 465.821C95.9093 465.821 96.2666 465.847 96.6186 465.901C96.9813 465.943 97.3653 466.029 97.7706 466.157L97.4666 467.293C97.1146 467.165 96.7893 467.085 96.4906 467.053C96.2026 467.01 95.9093 466.989 95.6106 466.989C95.2266 466.989 94.864 467.042 94.5226 467.149C94.1813 467.245 93.8826 467.405 93.6266 467.629C93.3813 467.842 93.184 468.125 93.0346 468.477C92.8853 468.818 92.8106 469.234 92.8106 469.725C92.8106 470.194 92.88 470.599 93.0186 470.941C93.1573 471.271 93.3493 471.549 93.5946 471.773C93.8506 471.986 94.1546 472.146 94.5066 472.253C94.8586 472.359 95.248 472.413 95.6746 472.413C96.016 472.413 96.3413 472.397 96.6506 472.365C96.9706 472.322 97.3173 472.237 97.6906 472.109L97.8826 473.213C97.5093 473.351 97.1306 473.447 96.7466 473.501C96.3626 473.565 95.9466 473.597 95.4986 473.597C94.9013 473.597 94.352 473.517 93.8506 473.357C93.36 473.186 92.9333 472.941 92.5706 472.621C92.2186 472.301 91.9413 471.901 91.7386 471.421C91.5466 470.93 91.4506 470.365 91.4506 469.725ZM104.075 473.597C103.605 473.597 103.216 473.533 102.907 473.405C102.597 473.277 102.352 473.085 102.171 472.829C101.989 472.573 101.861 472.258 101.787 471.885C101.712 471.501 101.675 471.058 101.675 470.557V463.533H99.5306V462.413H102.987V470.557C102.987 470.93 103.008 471.234 103.051 471.469C103.104 471.703 103.179 471.895 103.275 472.045C103.381 472.183 103.509 472.279 103.659 472.333C103.808 472.386 103.984 472.413 104.187 472.413C104.496 472.413 104.784 472.375 105.051 472.301C105.317 472.226 105.525 472.146 105.675 472.061L105.867 473.181C105.803 473.213 105.712 473.255 105.595 473.309C105.477 473.351 105.339 473.394 105.179 473.437C105.019 473.479 104.843 473.517 104.651 473.549C104.469 473.581 104.277 473.597 104.075 473.597ZM110.811 465.821C111.813 465.821 112.587 466.135 113.131 466.765C113.675 467.383 113.947 468.327 113.947 469.597V470.061H108.635C108.688 470.829 108.939 471.415 109.387 471.821C109.845 472.215 110.485 472.413 111.307 472.413C111.776 472.413 112.176 472.375 112.507 472.301C112.837 472.226 113.088 472.146 113.259 472.061L113.435 473.181C113.275 473.266 112.987 473.357 112.571 473.453C112.155 473.549 111.685 473.597 111.163 473.597C110.523 473.597 109.957 473.501 109.467 473.309C108.987 473.106 108.587 472.834 108.267 472.493C107.947 472.151 107.707 471.746 107.547 471.277C107.387 470.797 107.307 470.279 107.307 469.725C107.307 469.063 107.408 468.487 107.611 467.997C107.813 467.506 108.08 467.101 108.411 466.781C108.741 466.461 109.115 466.221 109.531 466.061C109.947 465.901 110.373 465.821 110.811 465.821ZM112.603 468.989C112.603 468.359 112.437 467.863 112.107 467.501C111.776 467.127 111.339 466.941 110.795 466.941C110.485 466.941 110.203 466.999 109.947 467.117C109.701 467.234 109.488 467.389 109.307 467.581C109.125 467.773 108.981 467.991 108.875 468.237C108.768 468.482 108.699 468.733 108.667 468.989H112.603ZM118.747 472.477C119.077 472.477 119.371 472.466 119.627 472.445C119.893 472.423 120.112 472.397 120.283 472.365V470.157C120.112 470.103 119.904 470.061 119.659 470.029C119.424 469.997 119.173 469.981 118.907 469.981C118.661 469.981 118.421 470.002 118.187 470.045C117.952 470.077 117.744 470.141 117.563 470.237C117.381 470.333 117.232 470.461 117.115 470.621C116.997 470.77 116.939 470.962 116.939 471.197C116.939 471.677 117.099 472.013 117.419 472.205C117.749 472.386 118.192 472.477 118.747 472.477ZM118.619 465.821C119.173 465.821 119.637 465.89 120.011 466.029C120.395 466.167 120.704 466.359 120.939 466.605C121.173 466.85 121.339 467.149 121.435 467.501C121.531 467.853 121.579 468.237 121.579 468.653V473.293C121.269 473.346 120.859 473.41 120.347 473.485C119.845 473.559 119.328 473.597 118.795 473.597C118.389 473.597 117.995 473.559 117.611 473.485C117.227 473.421 116.885 473.303 116.587 473.133C116.288 472.951 116.048 472.706 115.867 472.397C115.685 472.087 115.595 471.693 115.595 471.213C115.595 470.786 115.685 470.429 115.867 470.141C116.059 469.842 116.299 469.602 116.587 469.421C116.885 469.239 117.221 469.111 117.595 469.037C117.979 468.951 118.363 468.909 118.747 468.909C119.269 468.909 119.781 468.967 120.283 469.085V468.717C120.283 468.493 120.256 468.279 120.203 468.077C120.16 467.863 120.069 467.671 119.931 467.501C119.803 467.33 119.621 467.197 119.387 467.101C119.163 466.994 118.869 466.941 118.507 466.941C118.048 466.941 117.648 466.973 117.307 467.037C116.965 467.101 116.704 467.165 116.523 467.229L116.363 466.141C116.544 466.055 116.843 465.981 117.259 465.917C117.685 465.853 118.139 465.821 118.619 465.821ZM123.803 466.205C124.283 466.087 124.757 465.997 125.227 465.933C125.707 465.869 126.155 465.837 126.571 465.837C127.563 465.837 128.309 466.093 128.811 466.605C129.323 467.117 129.579 467.938 129.579 469.069V473.421H128.267V469.309C128.267 468.829 128.224 468.439 128.139 468.141C128.053 467.842 127.931 467.613 127.771 467.453C127.621 467.282 127.435 467.165 127.211 467.101C126.997 467.037 126.763 467.005 126.507 467.005C126.293 467.005 126.064 467.021 125.819 467.053C125.584 467.074 125.355 467.106 125.131 467.149V473.421H123.803V466.205ZM134.011 464.845C133.733 464.845 133.493 464.749 133.291 464.557C133.088 464.365 132.987 464.103 132.987 463.773C132.987 463.442 133.088 463.181 133.291 462.989C133.493 462.797 133.733 462.701 134.011 462.701C134.299 462.701 134.539 462.797 134.731 462.989C134.933 463.181 135.035 463.442 135.035 463.773C135.035 464.103 134.933 464.365 134.731 464.557C134.539 464.749 134.299 464.845 134.011 464.845ZM133.675 467.101H131.531V465.997H134.987V470.557C134.987 471.293 135.088 471.789 135.291 472.045C135.493 472.29 135.797 472.413 136.203 472.413C136.512 472.413 136.795 472.375 137.051 472.301C137.317 472.226 137.525 472.146 137.675 472.061L137.867 473.181C137.803 473.213 137.712 473.255 137.595 473.309C137.477 473.351 137.339 473.394 137.179 473.437C137.029 473.479 136.859 473.517 136.667 473.549C136.485 473.581 136.293 473.597 136.091 473.597C135.621 473.597 135.232 473.533 134.923 473.405C134.613 473.277 134.363 473.085 134.171 472.829C133.989 472.573 133.861 472.258 133.787 471.885C133.712 471.501 133.675 471.058 133.675 470.557V467.101ZM139.803 466.205C140.283 466.087 140.757 465.997 141.227 465.933C141.707 465.869 142.155 465.837 142.571 465.837C143.563 465.837 144.309 466.093 144.811 466.605C145.323 467.117 145.579 467.938 145.579 469.069V473.421H144.267V469.309C144.267 468.829 144.224 468.439 144.139 468.141C144.053 467.842 143.931 467.613 143.771 467.453C143.621 467.282 143.435 467.165 143.211 467.101C142.997 467.037 142.763 467.005 142.507 467.005C142.293 467.005 142.064 467.021 141.819 467.053C141.584 467.074 141.355 467.106 141.131 467.149V473.421H139.803V466.205ZM152.203 472.733C152.053 472.818 151.824 472.909 151.515 473.005C151.205 473.101 150.848 473.149 150.443 473.149C150.005 473.149 149.595 473.079 149.211 472.941C148.837 472.791 148.507 472.573 148.219 472.285C147.941 471.986 147.717 471.613 147.547 471.165C147.387 470.706 147.307 470.167 147.307 469.549C147.307 469.005 147.381 468.509 147.531 468.061C147.691 467.602 147.915 467.207 148.203 466.877C148.501 466.546 148.864 466.29 149.291 466.109C149.717 465.917 150.203 465.821 150.747 465.821C151.387 465.821 151.931 465.869 152.379 465.965C152.837 466.05 153.221 466.135 153.531 466.221V472.845C153.531 473.997 153.237 474.829 152.651 475.341C152.075 475.853 151.2 476.109 150.027 476.109C149.547 476.109 149.109 476.071 148.715 475.997C148.331 475.922 147.989 475.831 147.691 475.725L147.931 474.557C148.208 474.674 148.523 474.77 148.875 474.845C149.237 474.919 149.632 474.957 150.059 474.957C150.827 474.957 151.376 474.802 151.707 474.493C152.037 474.183 152.203 473.682 152.203 472.989V472.733ZM152.203 467.165C152.075 467.122 151.899 467.085 151.675 467.053C151.451 467.01 151.147 466.989 150.763 466.989C150.08 466.989 149.557 467.223 149.195 467.693C148.843 468.162 148.667 468.786 148.667 469.565C148.667 469.991 148.715 470.359 148.811 470.669C148.917 470.967 149.056 471.218 149.227 471.421C149.408 471.613 149.611 471.757 149.835 471.853C150.059 471.938 150.299 471.981 150.555 471.981C150.885 471.981 151.195 471.933 151.483 471.837C151.781 471.741 152.021 471.629 152.203 471.501V467.165ZM166.811 465.821C167.813 465.821 168.587 466.135 169.131 466.765C169.675 467.383 169.947 468.327 169.947 469.597V470.061H164.635C164.688 470.829 164.939 471.415 165.387 471.821C165.845 472.215 166.485 472.413 167.307 472.413C167.776 472.413 168.176 472.375 168.507 472.301C168.837 472.226 169.088 472.146 169.259 472.061L169.435 473.181C169.275 473.266 168.987 473.357 168.571 473.453C168.155 473.549 167.685 473.597 167.163 473.597C166.523 473.597 165.957 473.501 165.467 473.309C164.987 473.106 164.587 472.834 164.267 472.493C163.947 472.151 163.707 471.746 163.547 471.277C163.387 470.797 163.307 470.279 163.307 469.725C163.307 469.063 163.408 468.487 163.611 467.997C163.813 467.506 164.08 467.101 164.411 466.781C164.741 466.461 165.115 466.221 165.531 466.061C165.947 465.901 166.373 465.821 166.811 465.821ZM168.603 468.989C168.603 468.359 168.437 467.863 168.107 467.501C167.776 467.127 167.339 466.941 166.795 466.941C166.485 466.941 166.203 466.999 165.947 467.117C165.701 467.234 165.488 467.389 165.307 467.581C165.125 467.773 164.981 467.991 164.875 468.237C164.768 468.482 164.699 468.733 164.667 468.989H168.603ZM174.747 472.477C175.077 472.477 175.371 472.466 175.627 472.445C175.893 472.423 176.112 472.397 176.283 472.365V470.157C176.112 470.103 175.904 470.061 175.659 470.029C175.424 469.997 175.173 469.981 174.907 469.981C174.661 469.981 174.421 470.002 174.187 470.045C173.952 470.077 173.744 470.141 173.563 470.237C173.381 470.333 173.232 470.461 173.115 470.621C172.997 470.77 172.939 470.962 172.939 471.197C172.939 471.677 173.099 472.013 173.419 472.205C173.749 472.386 174.192 472.477 174.747 472.477ZM174.619 465.821C175.173 465.821 175.637 465.89 176.011 466.029C176.395 466.167 176.704 466.359 176.939 466.605C177.173 466.85 177.339 467.149 177.435 467.501C177.531 467.853 177.579 468.237 177.579 468.653V473.293C177.269 473.346 176.859 473.41 176.347 473.485C175.845 473.559 175.328 473.597 174.795 473.597C174.389 473.597 173.995 473.559 173.611 473.485C173.227 473.421 172.885 473.303 172.587 473.133C172.288 472.951 172.048 472.706 171.867 472.397C171.685 472.087 171.595 471.693 171.595 471.213C171.595 470.786 171.685 470.429 171.867 470.141C172.059 469.842 172.299 469.602 172.587 469.421C172.885 469.239 173.221 469.111 173.595 469.037C173.979 468.951 174.363 468.909 174.747 468.909C175.269 468.909 175.781 468.967 176.283 469.085V468.717C176.283 468.493 176.256 468.279 176.203 468.077C176.16 467.863 176.069 467.671 175.931 467.501C175.803 467.33 175.621 467.197 175.387 467.101C175.163 466.994 174.869 466.941 174.507 466.941C174.048 466.941 173.648 466.973 173.307 467.037C172.965 467.101 172.704 467.165 172.523 467.229L172.363 466.141C172.544 466.055 172.843 465.981 173.259 465.917C173.685 465.853 174.139 465.821 174.619 465.821ZM184.283 471.565C184.283 471.298 184.171 471.079 183.947 470.909C183.733 470.738 183.461 470.589 183.131 470.461C182.811 470.333 182.459 470.21 182.075 470.093C181.691 469.965 181.333 469.81 181.003 469.629C180.683 469.447 180.411 469.223 180.187 468.957C179.973 468.69 179.867 468.343 179.867 467.917C179.867 467.319 180.107 466.823 180.587 466.429C181.077 466.023 181.84 465.821 182.875 465.821C183.28 465.821 183.696 465.853 184.123 465.917C184.56 465.97 184.933 466.045 185.243 466.141L185.003 467.325C184.917 467.282 184.8 467.239 184.651 467.197C184.501 467.143 184.331 467.101 184.139 467.069C183.947 467.026 183.739 466.994 183.515 466.973C183.301 466.951 183.093 466.941 182.891 466.941C181.739 466.941 181.163 467.255 181.163 467.885C181.163 468.109 181.269 468.301 181.483 468.461C181.707 468.61 181.984 468.749 182.315 468.877C182.645 469.005 183.003 469.138 183.387 469.277C183.771 469.405 184.128 469.565 184.459 469.757C184.789 469.949 185.061 470.183 185.275 470.461C185.499 470.727 185.611 471.069 185.611 471.485C185.611 472.157 185.349 472.679 184.827 473.053C184.304 473.415 183.477 473.597 182.347 473.597C181.835 473.597 181.365 473.554 180.939 473.469C180.512 473.383 180.107 473.255 179.723 473.085L179.979 471.885C180.352 472.055 180.741 472.199 181.147 472.317C181.563 472.423 182.005 472.477 182.475 472.477C183.68 472.477 184.283 472.173 184.283 471.565ZM190.011 464.845C189.733 464.845 189.493 464.749 189.291 464.557C189.088 464.365 188.987 464.103 188.987 463.773C188.987 463.442 189.088 463.181 189.291 462.989C189.493 462.797 189.733 462.701 190.011 462.701C190.299 462.701 190.539 462.797 190.731 462.989C190.933 463.181 191.035 463.442 191.035 463.773C191.035 464.103 190.933 464.365 190.731 464.557C190.539 464.749 190.299 464.845 190.011 464.845ZM189.675 467.101H187.531V465.997H190.987V470.557C190.987 471.293 191.088 471.789 191.291 472.045C191.493 472.29 191.797 472.413 192.203 472.413C192.512 472.413 192.795 472.375 193.051 472.301C193.317 472.226 193.525 472.146 193.675 472.061L193.867 473.181C193.803 473.213 193.712 473.255 193.595 473.309C193.477 473.351 193.339 473.394 193.179 473.437C193.029 473.479 192.859 473.517 192.667 473.549C192.485 473.581 192.293 473.597 192.091 473.597C191.621 473.597 191.232 473.533 190.923 473.405C190.613 473.277 190.363 473.085 190.171 472.829C189.989 472.573 189.861 472.258 189.787 471.885C189.712 471.501 189.675 471.058 189.675 470.557V467.101ZM198.811 465.821C199.813 465.821 200.587 466.135 201.131 466.765C201.675 467.383 201.947 468.327 201.947 469.597V470.061H196.635C196.688 470.829 196.939 471.415 197.387 471.821C197.845 472.215 198.485 472.413 199.307 472.413C199.776 472.413 200.176 472.375 200.507 472.301C200.837 472.226 201.088 472.146 201.259 472.061L201.435 473.181C201.275 473.266 200.987 473.357 200.571 473.453C200.155 473.549 199.685 473.597 199.163 473.597C198.523 473.597 197.957 473.501 197.467 473.309C196.987 473.106 196.587 472.834 196.267 472.493C195.947 472.151 195.707 471.746 195.547 471.277C195.387 470.797 195.307 470.279 195.307 469.725C195.307 469.063 195.408 468.487 195.611 467.997C195.813 467.506 196.08 467.101 196.411 466.781C196.741 466.461 197.115 466.221 197.531 466.061C197.947 465.901 198.373 465.821 198.811 465.821ZM200.603 468.989C200.603 468.359 200.437 467.863 200.107 467.501C199.776 467.127 199.339 466.941 198.795 466.941C198.485 466.941 198.203 466.999 197.947 467.117C197.701 467.234 197.488 467.389 197.307 467.581C197.125 467.773 196.981 467.991 196.875 468.237C196.768 468.482 196.699 468.733 196.667 468.989H200.603ZM204.379 473.421V466.397C205.467 466.023 206.565 465.837 207.675 465.837C208.016 465.837 208.341 465.853 208.651 465.885C208.96 465.906 209.301 465.959 209.675 466.045L209.435 467.213C209.093 467.117 208.789 467.058 208.523 467.037C208.267 467.005 207.984 466.989 207.675 466.989C207.024 466.989 206.363 467.079 205.691 467.261V473.421H204.379ZM215.851 472.397C215.851 472.717 215.744 472.999 215.531 473.245C215.317 473.49 215.035 473.613 214.683 473.613C214.32 473.613 214.032 473.49 213.819 473.245C213.605 472.999 213.499 472.717 213.499 472.397C213.499 472.066 213.605 471.778 213.819 471.533C214.032 471.287 214.32 471.165 214.683 471.165C215.035 471.165 215.317 471.287 215.531 471.533C215.744 471.778 215.851 472.066 215.851 472.397Z" fill="#231F20"/>
</svg>
