<svg width="579" height="70" viewBox="0 0 579 70" fill="none" xmlns="http://www.w3.org/2000/svg">
<path d="M1.003 1.038H17.03V55.699H45.371V69H0.956L1.003 1.038ZM59.0597 69V1.038H107.517L107.423 14.386H75.1807V28.251H102.676V41.317H75.0867V55.511L107.799 55.558V69H59.0597ZM120.159 15.185V1.038H175.854V15.185H156.114V69H140.04V15.185H120.159ZM186.414 29.379L191.96 16.078L186.837 15.514V1.038H202.112V13.869L191.96 29.379H186.414ZM245.012 69.94C241.566 69.94 238.166 69.517 234.813 68.671C231.492 67.7937 228.453 66.4933 225.695 64.77C222.938 63.0153 220.651 60.822 218.833 58.19C217.047 55.558 215.998 52.4717 215.684 48.931H232.04C232.448 50.7797 233.231 52.3463 234.39 53.631C235.55 54.8843 237.022 55.8557 238.808 56.545C240.626 57.203 242.662 57.532 244.918 57.532C247.112 57.532 249.148 57.2813 251.028 56.78C252.908 56.2787 254.412 55.4953 255.54 54.43C256.7 53.3647 257.279 51.939 257.279 50.153C257.279 48.6177 256.747 47.3957 255.681 46.487C254.647 45.547 253.269 44.8107 251.545 44.278C249.822 43.714 247.958 43.244 245.952 42.868L234.86 40.753C229.69 39.8443 225.554 37.7763 222.452 34.549C219.35 31.3217 217.752 26.9507 217.658 21.436C217.596 17.018 218.771 13.2267 221.183 10.062C223.627 6.866 226.902 4.422 231.006 2.73C235.111 1.038 239.67 0.191995 244.683 0.191995C250.699 0.191995 255.775 1.10066 259.911 2.918C264.079 4.73533 267.243 7.242 269.405 10.438C271.567 13.6027 272.68 17.1903 272.742 21.201H256.809C256.59 19.133 255.963 17.4723 254.929 16.219C253.895 14.9657 252.532 14.0727 250.84 13.54C249.18 12.976 247.237 12.694 245.012 12.694C243.195 12.694 241.628 12.882 240.312 13.258C238.996 13.6027 237.9 14.0883 237.022 14.715C236.145 15.3417 235.487 16.078 235.048 16.924C234.641 17.7387 234.437 18.6003 234.437 19.509C234.437 21.2637 235.001 22.6893 236.129 23.786C237.289 24.8513 239.498 25.7287 242.756 26.418L253.801 28.486C258.313 29.3007 261.87 30.554 264.47 32.246C267.071 33.938 269.014 35.8493 270.298 37.98C271.583 40.0793 272.398 42.1943 272.742 44.325C273.118 46.4557 273.306 48.3983 273.306 50.153C273.306 53.8817 272.084 57.25 269.64 60.258C267.228 63.266 263.891 65.6317 259.629 67.355C255.399 69.0783 250.527 69.94 245.012 69.94ZM340.068 0.0979962C345.332 0.0979962 350.016 1.14766 354.121 3.247C358.257 5.315 361.594 8.182 364.132 11.848C366.67 15.4827 368.189 19.6343 368.691 24.303H351.912C351.536 22.047 350.815 20.0887 349.75 18.428C348.716 16.736 347.337 15.42 345.614 14.48C343.922 13.54 341.901 13.07 339.551 13.07C336.825 13.07 334.443 13.7593 332.407 15.138C330.37 16.4853 328.788 18.7413 327.66 21.906C326.563 25.0393 326.015 29.238 326.015 34.502C326.015 42.5233 327.237 48.273 329.681 51.751C332.156 55.229 335.446 56.968 339.551 56.968C341.901 56.968 343.922 56.404 345.614 55.276C347.337 54.148 348.716 52.644 349.75 50.764C350.815 48.8527 351.536 46.7847 351.912 44.56H368.691C368.252 47.9127 367.453 51.1243 366.294 54.195C365.166 57.2343 363.521 59.9447 361.359 62.326C359.197 64.7073 356.377 66.5717 352.899 67.919C349.452 69.2663 345.175 69.94 340.068 69.94C333.613 69.94 328.02 68.436 323.289 65.428C318.557 62.3887 314.891 58.19 312.291 52.832C309.69 47.474 308.39 41.2857 308.39 34.267C308.39 27.2797 309.674 21.2323 312.244 16.125C314.813 11.0177 318.463 7.06966 323.195 4.281C327.957 1.49233 333.582 0.0979962 340.068 0.0979962ZM426.26 40.753H399.658V69H383.631V1.038H399.658V27.546H426.26V1.038H442.24V69H426.26V40.753ZM454.976 69L479.134 1.038H495.725L519.93 69H504.044L499.015 54.524H476.079L470.956 69H454.976ZM479.557 40.753H495.349L487.5 16.407L479.557 40.753ZM522.663 15.185V1.038H578.358V15.185H558.618V69H542.544V15.185H522.663Z" fill="#FF8A00"/>
</svg>
