<svg width="495" height="70" viewBox="0 0 495 70" fill="none" xmlns="http://www.w3.org/2000/svg">
<path d="M31.908 0.0979962C37.172 0.0979962 41.8563 1.14766 45.961 3.247C50.097 5.315 53.434 8.182 55.972 11.848C58.51 15.4827 60.0297 19.6343 60.531 24.303H43.752C43.376 22.047 42.6553 20.0887 41.59 18.428C40.556 16.736 39.1773 15.42 37.454 14.48C35.762 13.54 33.741 13.07 31.391 13.07C28.665 13.07 26.2837 13.7593 24.247 15.138C22.2103 16.4853 20.628 18.7413 19.5 21.906C18.4033 25.0393 17.855 29.238 17.855 34.502C17.855 42.5233 19.077 48.273 21.521 51.751C23.9963 55.229 27.2863 56.968 31.391 56.968C33.741 56.968 35.762 56.404 37.454 55.276C39.1773 54.148 40.556 52.644 41.59 50.764C42.6553 48.8527 43.376 46.7847 43.752 44.56H60.531C60.0923 47.9127 59.2933 51.1243 58.134 54.195C57.006 57.2343 55.361 59.9447 53.199 62.326C51.037 64.7073 48.217 66.5717 44.739 67.919C41.2923 69.2663 37.0153 69.94 31.908 69.94C25.4533 69.94 19.8603 68.436 15.129 65.428C10.3977 62.3887 6.73167 58.19 4.131 52.832C1.53033 47.474 0.23 41.2857 0.23 34.267C0.23 27.2797 1.51467 21.2323 4.084 16.125C6.65333 11.0177 10.3037 7.06966 15.035 4.281C19.7977 1.49233 25.422 0.0979962 31.908 0.0979962ZM104.941 69.94C98.3609 69.94 92.6582 68.53 87.8329 65.71C83.0389 62.8587 79.3259 58.8323 76.6939 53.631C74.0619 48.4297 72.7459 42.2727 72.7459 35.16C72.7459 27.9847 74.0775 21.7807 76.7409 16.548C79.4042 11.3153 83.1485 7.27333 87.9739 4.422C92.8305 1.53933 98.4862 0.0979962 104.941 0.0979962C111.396 0.0979962 117.004 1.53933 121.767 4.422C126.561 7.27333 130.274 11.3153 132.906 16.548C135.569 21.7807 136.901 27.9847 136.901 35.16C136.901 42.2727 135.601 48.4297 133 53.631C130.399 58.8323 126.702 62.8587 121.908 65.71C117.114 68.53 111.458 69.94 104.941 69.94ZM104.941 56.968C107.855 56.968 110.409 56.263 112.602 54.853C114.795 53.4117 116.487 51.1087 117.678 47.944C118.9 44.7793 119.511 40.5963 119.511 35.395C119.511 30.037 118.9 25.7287 117.678 22.47C116.456 19.18 114.748 16.7987 112.555 15.326C110.362 13.822 107.824 13.07 104.941 13.07C102.027 13.07 99.4732 13.822 97.2799 15.326C95.0865 16.83 93.3632 19.227 92.1099 22.517C90.8879 25.7757 90.2769 30.0683 90.2769 35.395C90.2769 40.5963 90.8879 44.7793 92.1099 47.944C93.3632 51.1087 95.0865 53.4117 97.2799 54.853C99.4732 56.263 102.027 56.968 104.941 56.968ZM196.726 1.038H212.706V69H198.277L167.962 25.384V69H151.935V1.038H167.962L196.726 42.492V1.038ZM275.209 1.038H291.189V69H276.76L246.445 25.384V69H230.418V1.038H246.445L275.209 42.492V1.038ZM308.9 69V1.038H357.357L357.263 14.386H325.021V28.251H352.516V41.317H324.927V55.511L357.639 55.558V69H308.9ZM401.464 0.0979962C406.728 0.0979962 411.412 1.14766 415.517 3.247C419.653 5.315 422.99 8.182 425.528 11.848C428.066 15.4827 429.586 19.6343 430.087 24.303H413.308C412.932 22.047 412.211 20.0887 411.146 18.428C410.112 16.736 408.733 15.42 407.01 14.48C405.318 13.54 403.297 13.07 400.947 13.07C398.221 13.07 395.84 13.7593 393.803 15.138C391.766 16.4853 390.184 18.7413 389.056 21.906C387.959 25.0393 387.411 29.238 387.411 34.502C387.411 42.5233 388.633 48.273 391.077 51.751C393.552 55.229 396.842 56.968 400.947 56.968C403.297 56.968 405.318 56.404 407.01 55.276C408.733 54.148 410.112 52.644 411.146 50.764C412.211 48.8527 412.932 46.7847 413.308 44.56H430.087C429.648 47.9127 428.849 51.1243 427.69 54.195C426.562 57.2343 424.917 59.9447 422.755 62.326C420.593 64.7073 417.773 66.5717 414.295 67.919C410.848 69.2663 406.571 69.94 401.464 69.94C395.009 69.94 389.416 68.436 384.685 65.428C379.954 62.3887 376.288 58.19 373.687 52.832C371.086 47.474 369.786 41.2857 369.786 34.267C369.786 27.2797 371.071 21.2323 373.64 16.125C376.209 11.0177 379.86 7.06966 384.591 4.281C389.354 1.49233 394.978 0.0979962 401.464 0.0979962ZM438.844 15.185V1.038H494.539V15.185H474.799V69H458.725V15.185H438.844Z" fill="#FF8A00"/>
</svg>
