<svg width="477" height="70" viewBox="0 0 477 70" fill="none" xmlns="http://www.w3.org/2000/svg">
<path d="M31.908 0.0979962C37.172 0.0979962 41.8563 1.14766 45.961 3.247C50.097 5.315 53.434 8.182 55.972 11.848C58.51 15.4827 60.0297 19.6343 60.531 24.303H43.752C43.376 22.047 42.6553 20.0887 41.59 18.428C40.556 16.736 39.1773 15.42 37.454 14.48C35.762 13.54 33.741 13.07 31.391 13.07C28.665 13.07 26.2837 13.7593 24.247 15.138C22.2103 16.4853 20.628 18.7413 19.5 21.906C18.4033 25.0393 17.855 29.238 17.855 34.502C17.855 42.5233 19.077 48.273 21.521 51.751C23.9963 55.229 27.2863 56.968 31.391 56.968C33.741 56.968 35.762 56.404 37.454 55.276C39.1773 54.148 40.556 52.644 41.59 50.764C42.6553 48.8527 43.376 46.7847 43.752 44.56H60.531C60.0923 47.9127 59.2933 51.1243 58.134 54.195C57.006 57.2343 55.361 59.9447 53.199 62.326C51.037 64.7073 48.217 66.5717 44.739 67.919C41.2923 69.2663 37.0153 69.94 31.908 69.94C25.4533 69.94 19.8603 68.436 15.129 65.428C10.3977 62.3887 6.73167 58.19 4.131 52.832C1.53033 47.474 0.23 41.2857 0.23 34.267C0.23 27.2797 1.51467 21.2323 4.084 16.125C6.65333 11.0177 10.3037 7.06966 15.035 4.281C19.7977 1.49233 25.422 0.0979962 31.908 0.0979962ZM104.941 69.94C98.3609 69.94 92.6582 68.53 87.8329 65.71C83.0389 62.8587 79.3259 58.8323 76.6939 53.631C74.0619 48.4297 72.7459 42.2727 72.7459 35.16C72.7459 27.9847 74.0775 21.7807 76.7409 16.548C79.4042 11.3153 83.1485 7.27333 87.9739 4.422C92.8305 1.53933 98.4862 0.0979962 104.941 0.0979962C111.396 0.0979962 117.004 1.53933 121.767 4.422C126.561 7.27333 130.274 11.3153 132.906 16.548C135.569 21.7807 136.901 27.9847 136.901 35.16C136.901 42.2727 135.601 48.4297 133 53.631C130.399 58.8323 126.702 62.8587 121.908 65.71C117.114 68.53 111.458 69.94 104.941 69.94ZM104.941 56.968C107.855 56.968 110.409 56.263 112.602 54.853C114.795 53.4117 116.487 51.1087 117.678 47.944C118.9 44.7793 119.511 40.5963 119.511 35.395C119.511 30.037 118.9 25.7287 117.678 22.47C116.456 19.18 114.748 16.7987 112.555 15.326C110.362 13.822 107.824 13.07 104.941 13.07C102.027 13.07 99.4732 13.822 97.2799 15.326C95.0865 16.83 93.3632 19.227 92.1099 22.517C90.8879 25.7757 90.2769 30.0683 90.2769 35.395C90.2769 40.5963 90.8879 44.7793 92.1099 47.944C93.3632 51.1087 95.0865 53.4117 97.2799 54.853C99.4732 56.263 102.027 56.968 104.941 56.968ZM196.726 1.038H212.706V69H198.277L167.962 25.384V69H151.935V1.038H167.962L196.726 42.492V1.038ZM225.06 15.185V1.038H280.755V15.185H261.015V69H244.941V15.185H225.06ZM280.098 69L304.256 1.038H320.847L345.052 69H329.166L324.137 54.524H301.201L296.078 69H280.098ZM304.679 40.753H320.471L312.622 16.407L304.679 40.753ZM383.38 0.0979962C388.644 0.0979962 393.328 1.14766 397.433 3.247C401.569 5.315 404.906 8.182 407.444 11.848C409.982 15.4827 411.502 19.6343 412.003 24.303H395.224C394.848 22.047 394.127 20.0887 393.062 18.428C392.028 16.736 390.649 15.42 388.926 14.48C387.234 13.54 385.213 13.07 382.863 13.07C380.137 13.07 377.756 13.7593 375.719 15.138C373.682 16.4853 372.1 18.7413 370.972 21.906C369.875 25.0393 369.327 29.238 369.327 34.502C369.327 42.5233 370.549 48.273 372.993 51.751C375.468 55.229 378.758 56.968 382.863 56.968C385.213 56.968 387.234 56.404 388.926 55.276C390.649 54.148 392.028 52.644 393.062 50.764C394.127 48.8527 394.848 46.7847 395.224 44.56H412.003C411.564 47.9127 410.765 51.1243 409.606 54.195C408.478 57.2343 406.833 59.9447 404.671 62.326C402.509 64.7073 399.689 66.5717 396.211 67.919C392.764 69.2663 388.487 69.94 383.38 69.94C376.925 69.94 371.332 68.436 366.601 65.428C361.87 62.3887 358.204 58.19 355.603 52.832C353.002 47.474 351.702 41.2857 351.702 34.267C351.702 27.2797 352.987 21.2323 355.556 16.125C358.125 11.0177 361.776 7.06966 366.507 4.281C371.27 1.49233 376.894 0.0979962 383.38 0.0979962ZM420.76 15.185V1.038H476.455V15.185H456.715V69H440.641V15.185H420.76Z" fill="#FF8A00"/>
</svg>
