<svg width="393" height="70" viewBox="0 0 393 70" fill="none" xmlns="http://www.w3.org/2000/svg">
<g clip-path="url(#clip0_1337_2877)">
<path opacity="0.2" d="M-439.385 40.44C-438.138 39.08 -436.863 37.6633 -435.56 36.19C-434.2 34.7167 -432.897 33.2717 -431.65 31.855C-430.403 30.3817 -429.242 28.9933 -428.165 27.69C-427.032 26.3867 -426.068 25.2533 -425.275 24.29H-410.23C-413.233 27.7467 -416.18 31.0617 -419.07 34.235C-421.903 37.3517 -425.02 40.5817 -428.42 43.925C-426.72 45.455 -424.963 47.2967 -423.15 49.45C-421.337 51.5467 -419.58 53.7283 -417.88 55.995C-416.18 58.2617 -414.622 60.5283 -413.205 62.795C-411.788 65.0617 -410.598 67.13 -409.635 69H-424.17C-425.077 67.5267 -426.125 65.9117 -427.315 64.155C-428.448 62.3417 -429.667 60.5567 -430.97 58.8C-432.273 56.9867 -433.662 55.2583 -435.135 53.615C-436.552 51.9717 -437.968 50.5833 -439.385 49.45V69H-452.05V5.08L-439.385 3.04V40.44ZM-412.273 46.985C-412.273 43.0183 -411.678 39.5617 -410.488 36.615C-409.241 33.6117 -407.626 31.1183 -405.643 29.135C-403.659 27.1517 -401.393 25.65 -398.843 24.63C-396.236 23.61 -393.573 23.1 -390.853 23.1C-384.506 23.1 -379.491 25.055 -375.808 28.965C-372.124 32.8183 -370.283 38.5133 -370.283 46.05C-370.283 46.7867 -370.311 47.6083 -370.368 48.515C-370.424 49.365 -370.481 50.13 -370.538 50.81H-399.268C-398.984 53.4167 -397.766 55.485 -395.613 57.015C-393.459 58.545 -390.569 59.31 -386.943 59.31C-384.619 59.31 -382.353 59.1117 -380.143 58.715C-377.876 58.2617 -376.034 57.7233 -374.618 57.1L-372.918 67.385C-373.598 67.725 -374.504 68.065 -375.638 68.405C-376.771 68.745 -378.046 69.0283 -379.463 69.255C-380.823 69.5383 -382.296 69.765 -383.883 69.935C-385.469 70.105 -387.056 70.19 -388.643 70.19C-392.666 70.19 -396.179 69.595 -399.183 68.405C-402.129 67.215 -404.594 65.6 -406.578 63.56C-408.504 61.4633 -409.949 58.9983 -410.913 56.165C-411.819 53.3317 -412.273 50.2717 -412.273 46.985ZM-382.523 42.14C-382.579 41.0633 -382.778 40.015 -383.118 38.995C-383.401 37.975 -383.883 37.0683 -384.563 36.275C-385.186 35.4817 -386.008 34.83 -387.028 34.32C-387.991 33.81 -389.209 33.555 -390.683 33.555C-392.099 33.555 -393.318 33.81 -394.338 34.32C-395.358 34.7733 -396.208 35.3967 -396.888 36.19C-397.568 36.9833 -398.106 37.9183 -398.503 38.995C-398.843 40.015 -399.098 41.0633 -399.268 42.14H-382.523ZM-366.884 46.985C-366.884 43.0183 -366.289 39.5617 -365.099 36.615C-363.852 33.6117 -362.237 31.1183 -360.254 29.135C-358.271 27.1517 -356.004 25.65 -353.454 24.63C-350.847 23.61 -348.184 23.1 -345.464 23.1C-339.117 23.1 -334.102 25.055 -330.419 28.965C-326.736 32.8183 -324.894 38.5133 -324.894 46.05C-324.894 46.7867 -324.922 47.6083 -324.979 48.515C-325.036 49.365 -325.092 50.13 -325.149 50.81H-353.879C-353.596 53.4167 -352.377 55.485 -350.224 57.015C-348.071 58.545 -345.181 59.31 -341.554 59.31C-339.231 59.31 -336.964 59.1117 -334.754 58.715C-332.487 58.2617 -330.646 57.7233 -329.229 57.1L-327.529 67.385C-328.209 67.725 -329.116 68.065 -330.249 68.405C-331.382 68.745 -332.657 69.0283 -334.074 69.255C-335.434 69.5383 -336.907 69.765 -338.494 69.935C-340.081 70.105 -341.667 70.19 -343.254 70.19C-347.277 70.19 -350.791 69.595 -353.794 68.405C-356.741 67.215 -359.206 65.6 -361.189 63.56C-363.116 61.4633 -364.561 58.9983 -365.524 56.165C-366.431 53.3317 -366.884 50.2717 -366.884 46.985ZM-337.134 42.14C-337.191 41.0633 -337.389 40.015 -337.729 38.995C-338.012 37.975 -338.494 37.0683 -339.174 36.275C-339.797 35.4817 -340.619 34.83 -341.639 34.32C-342.602 33.81 -343.821 33.555 -345.294 33.555C-346.711 33.555 -347.929 33.81 -348.949 34.32C-349.969 34.7733 -350.819 35.3967 -351.499 36.19C-352.179 36.9833 -352.717 37.9183 -353.114 38.995C-353.454 40.015 -353.709 41.0633 -353.879 42.14H-337.134ZM-290.725 46.985C-290.725 43.075 -291.604 39.9583 -293.36 37.635C-295.117 35.255 -297.724 34.065 -301.18 34.065C-302.314 34.065 -303.362 34.1217 -304.325 34.235C-305.289 34.2917 -306.082 34.3767 -306.705 34.49V57.355C-305.912 57.865 -304.892 58.29 -303.645 58.63C-302.342 58.97 -301.039 59.14 -299.735 59.14C-293.729 59.14 -290.725 55.0883 -290.725 46.985ZM-277.805 46.645C-277.805 50.1017 -278.23 53.2467 -279.08 56.08C-279.93 58.9133 -281.177 61.35 -282.82 63.39C-284.464 65.43 -286.504 67.0167 -288.94 68.15C-291.377 69.2833 -294.182 69.85 -297.355 69.85C-299.112 69.85 -300.755 69.68 -302.285 69.34C-303.815 69 -305.289 68.5183 -306.705 67.895V84.725H-319.37V25.82C-318.237 25.48 -316.934 25.1683 -315.46 24.885C-313.987 24.545 -312.457 24.2617 -310.87 24.035C-309.227 23.8083 -307.584 23.6383 -305.94 23.525C-304.24 23.355 -302.625 23.27 -301.095 23.27C-297.412 23.27 -294.125 23.8367 -291.235 24.97C-288.345 26.0467 -285.909 27.605 -283.925 29.645C-281.942 31.6283 -280.44 34.065 -279.42 36.955C-278.344 39.845 -277.805 43.075 -277.805 46.645ZM-245.357 45.2C-245.357 52.2833 -242.495 55.825 -236.772 55.825C-235.468 55.825 -234.25 55.655 -233.117 55.315C-231.983 54.975 -231.02 54.5783 -230.227 54.125V33.895C-230.85 33.7817 -231.587 33.6967 -232.437 33.64C-233.287 33.5267 -234.278 33.47 -235.412 33.47C-238.755 33.47 -241.248 34.575 -242.892 36.785C-244.535 38.995 -245.357 41.8 -245.357 45.2ZM-217.562 63.39C-217.562 70.7 -219.432 76.1117 -223.172 79.625C-226.855 83.195 -232.578 84.98 -240.342 84.98C-243.062 84.98 -245.782 84.725 -248.502 84.215C-251.222 83.7617 -253.743 83.1383 -256.067 82.345L-253.857 71.72C-251.873 72.5133 -249.805 73.1367 -247.652 73.59C-245.442 74.0433 -242.948 74.27 -240.172 74.27C-236.545 74.27 -233.995 73.4767 -232.522 71.89C-230.992 70.3033 -230.227 68.2633 -230.227 65.77V64.155C-231.587 64.7783 -233.003 65.26 -234.477 65.6C-235.893 65.8833 -237.452 66.025 -239.152 66.025C-245.328 66.025 -250.06 64.2117 -253.347 60.585C-256.633 56.9017 -258.277 51.7733 -258.277 45.2C-258.277 41.9133 -257.767 38.9383 -256.747 36.275C-255.727 33.555 -254.253 31.2317 -252.327 29.305C-250.343 27.3783 -247.935 25.905 -245.102 24.885C-242.268 23.8083 -239.067 23.27 -235.497 23.27C-233.967 23.27 -232.408 23.355 -230.822 23.525C-229.178 23.6383 -227.563 23.8083 -225.977 24.035C-224.39 24.2617 -222.888 24.545 -221.472 24.885C-219.998 25.1683 -218.695 25.48 -217.562 25.82V63.39ZM-168.113 46.56C-168.113 50.0733 -168.623 53.3033 -169.643 56.25C-170.663 59.14 -172.136 61.6333 -174.063 63.73C-175.989 65.77 -178.313 67.3567 -181.033 68.49C-183.696 69.6233 -186.699 70.19 -190.043 70.19C-193.329 70.19 -196.333 69.6233 -199.053 68.49C-201.716 67.3567 -204.011 65.77 -205.938 63.73C-207.864 61.6333 -209.366 59.14 -210.443 56.25C-211.519 53.3033 -212.058 50.0733 -212.058 46.56C-212.058 43.0467 -211.519 39.845 -210.443 36.955C-209.309 34.065 -207.779 31.6 -205.853 29.56C-203.869 27.52 -201.546 25.9333 -198.883 24.8C-196.163 23.6667 -193.216 23.1 -190.043 23.1C-186.813 23.1 -183.866 23.6667 -181.203 24.8C-178.483 25.9333 -176.159 27.52 -174.233 29.56C-172.306 31.6 -170.804 34.065 -169.728 36.955C-168.651 39.845 -168.113 43.0467 -168.113 46.56ZM-181.033 46.56C-181.033 42.65 -181.826 39.59 -183.413 37.38C-184.943 35.1133 -187.153 33.98 -190.043 33.98C-192.933 33.98 -195.171 35.1133 -196.758 37.38C-198.344 39.59 -199.138 42.65 -199.138 46.56C-199.138 50.47 -198.344 53.5867 -196.758 55.91C-195.171 58.1767 -192.933 59.31 -190.043 59.31C-187.153 59.31 -184.943 58.1767 -183.413 55.91C-181.826 53.5867 -181.033 50.47 -181.033 46.56ZM-149.887 69H-162.552V24.29H-149.887V69ZM-148.697 11.37C-148.697 13.6933 -149.462 15.535 -150.992 16.895C-152.465 18.1983 -154.222 18.85 -156.262 18.85C-158.302 18.85 -160.087 18.1983 -161.617 16.895C-163.09 15.535 -163.827 13.6933 -163.827 11.37C-163.827 9.04666 -163.09 7.23333 -161.617 5.93C-160.087 4.57 -158.302 3.89 -156.262 3.89C-154.222 3.89 -152.465 4.57 -150.992 5.93C-149.462 7.23333 -148.697 9.04666 -148.697 11.37ZM-142.232 25.82C-140.078 25.1967 -137.302 24.63 -133.902 24.12C-130.502 23.5533 -126.932 23.27 -123.192 23.27C-119.395 23.27 -116.25 23.78 -113.757 24.8C-111.207 25.7633 -109.195 27.1517 -107.722 28.965C-106.248 30.7783 -105.2 32.9317 -104.577 35.425C-103.953 37.9183 -103.642 40.695 -103.642 43.755V69H-116.307V45.285C-116.307 41.205 -116.845 38.315 -117.922 36.615C-118.998 34.915 -121.01 34.065 -123.957 34.065C-124.863 34.065 -125.827 34.1217 -126.847 34.235C-127.867 34.2917 -128.773 34.3767 -129.567 34.49V69H-142.232V25.82ZM-85.6329 45.2C-85.6329 52.2833 -82.7713 55.825 -77.0479 55.825C-75.7446 55.825 -74.5263 55.655 -73.3929 55.315C-72.2596 54.975 -71.2963 54.5783 -70.5029 54.125V33.895C-71.1263 33.7817 -71.8629 33.6967 -72.7129 33.64C-73.5629 33.5267 -74.5546 33.47 -75.6879 33.47C-79.0313 33.47 -81.5246 34.575 -83.1679 36.785C-84.8113 38.995 -85.6329 41.8 -85.6329 45.2ZM-57.8379 63.39C-57.8379 70.7 -59.7079 76.1117 -63.4479 79.625C-67.1313 83.195 -72.8546 84.98 -80.6179 84.98C-83.3379 84.98 -86.0579 84.725 -88.7779 84.215C-91.4979 83.7617 -94.0196 83.1383 -96.3429 82.345L-94.1329 71.72C-92.1496 72.5133 -90.0813 73.1367 -87.9279 73.59C-85.7179 74.0433 -83.2246 74.27 -80.4479 74.27C-76.8213 74.27 -74.2713 73.4767 -72.7979 71.89C-71.2679 70.3033 -70.5029 68.2633 -70.5029 65.77V64.155C-71.8629 64.7783 -73.2796 65.26 -74.7529 65.6C-76.1696 65.8833 -77.7279 66.025 -79.4279 66.025C-85.6046 66.025 -90.3363 64.2117 -93.6229 60.585C-96.9096 56.9017 -98.5529 51.7733 -98.5529 45.2C-98.5529 41.9133 -98.0429 38.9383 -97.0229 36.275C-96.0029 33.555 -94.5296 31.2317 -92.6029 29.305C-90.6196 27.3783 -88.2113 25.905 -85.3779 24.885C-82.5446 23.8083 -79.3429 23.27 -75.7729 23.27C-74.2429 23.27 -72.6846 23.355 -71.0979 23.525C-69.4546 23.6383 -67.8396 23.8083 -66.2529 24.035C-64.6663 24.2617 -63.1646 24.545 -61.7479 24.885C-60.2746 25.1683 -58.9713 25.48 -57.8379 25.82V63.39ZM-21.6293 43.925C-21.6293 46.475 -22.4509 48.43 -24.0943 49.79C-25.6809 51.0933 -27.4943 51.745 -29.5343 51.745C-31.5743 51.745 -33.4159 51.0933 -35.0593 49.79C-36.6459 48.43 -37.4393 46.475 -37.4393 43.925C-37.4393 41.375 -36.6459 39.4483 -35.0593 38.145C-33.4159 36.785 -31.5743 36.105 -29.5343 36.105C-27.4943 36.105 -25.6809 36.785 -24.0943 38.145C-22.4509 39.4483 -21.6293 41.375 -21.6293 43.925ZM11.4636 40.44C12.7103 39.08 13.9853 37.6633 15.2886 36.19C16.6486 34.7167 17.952 33.2717 19.1986 31.855C20.4453 30.3817 21.607 28.9933 22.6836 27.69C23.817 26.3867 24.7803 25.2533 25.5736 24.29H40.6186C37.6153 27.7467 34.6686 31.0617 31.7786 34.235C28.9453 37.3517 25.8286 40.5817 22.4286 43.925C24.1286 45.455 25.8853 47.2967 27.6986 49.45C29.512 51.5467 31.2686 53.7283 32.9686 55.995C34.6686 58.2617 36.227 60.5283 37.6436 62.795C39.0603 65.0617 40.2503 67.13 41.2136 69H26.6786C25.772 67.5267 24.7236 65.9117 23.5336 64.155C22.4003 62.3417 21.182 60.5567 19.8786 58.8C18.5753 56.9867 17.187 55.2583 15.7136 53.615C14.297 51.9717 12.8803 50.5833 11.4636 49.45V69H-1.20137V5.08L11.4636 3.04V40.44ZM38.576 46.985C38.576 43.0183 39.171 39.5617 40.361 36.615C41.6076 33.6117 43.2226 31.1183 45.206 29.135C47.1893 27.1517 49.456 25.65 52.006 24.63C54.6126 23.61 57.276 23.1 59.996 23.1C66.3426 23.1 71.3576 25.055 75.041 28.965C78.7243 32.8183 80.566 38.5133 80.566 46.05C80.566 46.7867 80.5376 47.6083 80.481 48.515C80.4243 49.365 80.3676 50.13 80.311 50.81H51.581C51.8643 53.4167 53.0826 55.485 55.236 57.015C57.3893 58.545 60.2793 59.31 63.906 59.31C66.2293 59.31 68.496 59.1117 70.706 58.715C72.9726 58.2617 74.8143 57.7233 76.231 57.1L77.931 67.385C77.251 67.725 76.3443 68.065 75.211 68.405C74.0776 68.745 72.8026 69.0283 71.386 69.255C70.026 69.5383 68.5526 69.765 66.966 69.935C65.3793 70.105 63.7926 70.19 62.206 70.19C58.1826 70.19 54.6693 69.595 51.666 68.405C48.7193 67.215 46.2543 65.6 44.271 63.56C42.3443 61.4633 40.8993 58.9983 39.936 56.165C39.0293 53.3317 38.576 50.2717 38.576 46.985ZM68.326 42.14C68.2693 41.0633 68.071 40.015 67.731 38.995C67.4476 37.975 66.966 37.0683 66.286 36.275C65.6626 35.4817 64.841 34.83 63.821 34.32C62.8576 33.81 61.6393 33.555 60.166 33.555C58.7493 33.555 57.531 33.81 56.511 34.32C55.491 34.7733 54.641 35.3967 53.961 36.19C53.281 36.9833 52.7426 37.9183 52.346 38.995C52.006 40.015 51.751 41.0633 51.581 42.14H68.326ZM83.9646 46.985C83.9646 43.0183 84.5596 39.5617 85.7496 36.615C86.9963 33.6117 88.6113 31.1183 90.5946 29.135C92.578 27.1517 94.8446 25.65 97.3946 24.63C100.001 23.61 102.665 23.1 105.385 23.1C111.731 23.1 116.746 25.055 120.43 28.965C124.113 32.8183 125.955 38.5133 125.955 46.05C125.955 46.7867 125.926 47.6083 125.87 48.515C125.813 49.365 125.756 50.13 125.7 50.81H96.9696C97.253 53.4167 98.4713 55.485 100.625 57.015C102.778 58.545 105.668 59.31 109.295 59.31C111.618 59.31 113.885 59.1117 116.095 58.715C118.361 58.2617 120.203 57.7233 121.62 57.1L123.32 67.385C122.64 67.725 121.733 68.065 120.6 68.405C119.466 68.745 118.191 69.0283 116.775 69.255C115.415 69.5383 113.941 69.765 112.355 69.935C110.768 70.105 109.181 70.19 107.595 70.19C103.571 70.19 100.058 69.595 97.0546 68.405C94.108 67.215 91.643 65.6 89.6596 63.56C87.733 61.4633 86.288 58.9983 85.3246 56.165C84.418 53.3317 83.9646 50.2717 83.9646 46.985ZM113.715 42.14C113.658 41.0633 113.46 40.015 113.12 38.995C112.836 37.975 112.355 37.0683 111.675 36.275C111.051 35.4817 110.23 34.83 109.21 34.32C108.246 33.81 107.028 33.555 105.555 33.555C104.138 33.555 102.92 33.81 101.9 34.32C100.88 34.7733 100.03 35.3967 99.3496 36.19C98.6696 36.9833 98.1313 37.9183 97.7346 38.995C97.3946 40.015 97.1396 41.0633 96.9696 42.14H113.715ZM160.123 46.985C160.123 43.075 159.245 39.9583 157.488 37.635C155.732 35.255 153.125 34.065 149.668 34.065C148.535 34.065 147.487 34.1217 146.523 34.235C145.56 34.2917 144.767 34.3767 144.143 34.49V57.355C144.937 57.865 145.957 58.29 147.203 58.63C148.507 58.97 149.81 59.14 151.113 59.14C157.12 59.14 160.123 55.0883 160.123 46.985ZM173.043 46.645C173.043 50.1017 172.618 53.2467 171.768 56.08C170.918 58.9133 169.672 61.35 168.028 63.39C166.385 65.43 164.345 67.0167 161.908 68.15C159.472 69.2833 156.667 69.85 153.493 69.85C151.737 69.85 150.093 69.68 148.563 69.34C147.033 69 145.56 68.5183 144.143 67.895V84.725H131.478V25.82C132.612 25.48 133.915 25.1683 135.388 24.885C136.862 24.545 138.392 24.2617 139.978 24.035C141.622 23.8083 143.265 23.6383 144.908 23.525C146.608 23.355 148.223 23.27 149.753 23.27C153.437 23.27 156.723 23.8367 159.613 24.97C162.503 26.0467 164.94 27.605 166.923 29.645C168.907 31.6283 170.408 34.065 171.428 36.955C172.505 39.845 173.043 43.075 173.043 46.645ZM205.492 45.2C205.492 52.2833 208.354 55.825 214.077 55.825C215.38 55.825 216.599 55.655 217.732 55.315C218.865 54.975 219.829 54.5783 220.622 54.125V33.895C219.999 33.7817 219.262 33.6967 218.412 33.64C217.562 33.5267 216.57 33.47 215.437 33.47C212.094 33.47 209.6 34.575 207.957 36.785C206.314 38.995 205.492 41.8 205.492 45.2ZM233.287 63.39C233.287 70.7 231.417 76.1117 227.677 79.625C223.994 83.195 218.27 84.98 210.507 84.98C207.787 84.98 205.067 84.725 202.347 84.215C199.627 83.7617 197.105 83.1383 194.782 82.345L196.992 71.72C198.975 72.5133 201.044 73.1367 203.197 73.59C205.407 74.0433 207.9 74.27 210.677 74.27C214.304 74.27 216.854 73.4767 218.327 71.89C219.857 70.3033 220.622 68.2633 220.622 65.77V64.155C219.262 64.7783 217.845 65.26 216.372 65.6C214.955 65.8833 213.397 66.025 211.697 66.025C205.52 66.025 200.789 64.2117 197.502 60.585C194.215 56.9017 192.572 51.7733 192.572 45.2C192.572 41.9133 193.082 38.9383 194.102 36.275C195.122 33.555 196.595 31.2317 198.522 29.305C200.505 27.3783 202.914 25.905 205.747 24.885C208.58 23.8083 211.782 23.27 215.352 23.27C216.882 23.27 218.44 23.355 220.027 23.525C221.67 23.6383 223.285 23.8083 224.872 24.035C226.459 24.2617 227.96 24.545 229.377 24.885C230.85 25.1683 232.154 25.48 233.287 25.82V63.39ZM282.736 46.56C282.736 50.0733 282.226 53.3033 281.206 56.25C280.186 59.14 278.712 61.6333 276.786 63.73C274.859 65.77 272.536 67.3567 269.816 68.49C267.152 69.6233 264.149 70.19 260.806 70.19C257.519 70.19 254.516 69.6233 251.796 68.49C249.132 67.3567 246.837 65.77 244.911 63.73C242.984 61.6333 241.482 59.14 240.406 56.25C239.329 53.3033 238.791 50.0733 238.791 46.56C238.791 43.0467 239.329 39.845 240.406 36.955C241.539 34.065 243.069 31.6 244.996 29.56C246.979 27.52 249.302 25.9333 251.966 24.8C254.686 23.6667 257.632 23.1 260.806 23.1C264.036 23.1 266.982 23.6667 269.646 24.8C272.366 25.9333 274.689 27.52 276.616 29.56C278.542 31.6 280.044 34.065 281.121 36.955C282.197 39.845 282.736 43.0467 282.736 46.56ZM269.816 46.56C269.816 42.65 269.022 39.59 267.436 37.38C265.906 35.1133 263.696 33.98 260.806 33.98C257.916 33.98 255.677 35.1133 254.091 37.38C252.504 39.59 251.711 42.65 251.711 46.56C251.711 50.47 252.504 53.5867 254.091 55.91C255.677 58.1767 257.916 59.31 260.806 59.31C263.696 59.31 265.906 58.1767 267.436 55.91C269.022 53.5867 269.816 50.47 269.816 46.56ZM300.962 69H288.297V24.29H300.962V69ZM302.152 11.37C302.152 13.6933 301.387 15.535 299.857 16.895C298.383 18.1983 296.627 18.85 294.587 18.85C292.547 18.85 290.762 18.1983 289.232 16.895C287.758 15.535 287.022 13.6933 287.022 11.37C287.022 9.04666 287.758 7.23333 289.232 5.93C290.762 4.57 292.547 3.89 294.587 3.89C296.627 3.89 298.383 4.57 299.857 5.93C301.387 7.23333 302.152 9.04666 302.152 11.37ZM308.617 25.82C310.77 25.1967 313.547 24.63 316.947 24.12C320.347 23.5533 323.917 23.27 327.657 23.27C331.454 23.27 334.599 23.78 337.092 24.8C339.642 25.7633 341.654 27.1517 343.127 28.965C344.6 30.7783 345.649 32.9317 346.272 35.425C346.895 37.9183 347.207 40.695 347.207 43.755V69H334.542V45.285C334.542 41.205 334.004 38.315 332.927 36.615C331.85 34.915 329.839 34.065 326.892 34.065C325.985 34.065 325.022 34.1217 324.002 34.235C322.982 34.2917 322.075 34.3767 321.282 34.49V69H308.617V25.82ZM365.216 45.2C365.216 52.2833 368.077 55.825 373.801 55.825C375.104 55.825 376.322 55.655 377.456 55.315C378.589 54.975 379.552 54.5783 380.346 54.125V33.895C379.722 33.7817 378.986 33.6967 378.136 33.64C377.286 33.5267 376.294 33.47 375.161 33.47C371.817 33.47 369.324 34.575 367.681 36.785C366.037 38.995 365.216 41.8 365.216 45.2ZM393.011 63.39C393.011 70.7 391.141 76.1117 387.401 79.625C383.717 83.195 377.994 84.98 370.231 84.98C367.511 84.98 364.791 84.725 362.071 84.215C359.351 83.7617 356.829 83.1383 354.506 82.345L356.716 71.72C358.699 72.5133 360.767 73.1367 362.921 73.59C365.131 74.0433 367.624 74.27 370.401 74.27C374.027 74.27 376.577 73.4767 378.051 71.89C379.581 70.3033 380.346 68.2633 380.346 65.77V64.155C378.986 64.7783 377.569 65.26 376.096 65.6C374.679 65.8833 373.121 66.025 371.421 66.025C365.244 66.025 360.512 64.2117 357.226 60.585C353.939 56.9017 352.296 51.7733 352.296 45.2C352.296 41.9133 352.806 38.9383 353.826 36.275C354.846 33.555 356.319 31.2317 358.246 29.305C360.229 27.3783 362.637 25.905 365.471 24.885C368.304 23.8083 371.506 23.27 375.076 23.27C376.606 23.27 378.164 23.355 379.751 23.525C381.394 23.6383 383.009 23.8083 384.596 24.035C386.182 24.2617 387.684 24.545 389.101 24.885C390.574 25.1683 391.877 25.48 393.011 25.82V63.39ZM429.219 43.925C429.219 46.475 428.398 48.43 426.754 49.79C425.168 51.0933 423.354 51.745 421.314 51.745C419.274 51.745 417.433 51.0933 415.789 49.79C414.203 48.43 413.409 46.475 413.409 43.925C413.409 41.375 414.203 39.4483 415.789 38.145C417.433 36.785 419.274 36.105 421.314 36.105C423.354 36.105 425.168 36.785 426.754 38.145C428.398 39.4483 429.219 41.375 429.219 43.925ZM462.312 40.44C463.559 39.08 464.834 37.6633 466.137 36.19C467.497 34.7167 468.801 33.2717 470.047 31.855C471.294 30.3817 472.456 28.9933 473.532 27.69C474.666 26.3867 475.629 25.2533 476.422 24.29H491.467C488.464 27.7467 485.517 31.0617 482.627 34.235C479.794 37.3517 476.677 40.5817 473.277 43.925C474.977 45.455 476.734 47.2967 478.547 49.45C480.361 51.5467 482.117 53.7283 483.817 55.995C485.517 58.2617 487.076 60.5283 488.492 62.795C489.909 65.0617 491.099 67.13 492.062 69H477.527C476.621 67.5267 475.572 65.9117 474.382 64.155C473.249 62.3417 472.031 60.5567 470.727 58.8C469.424 56.9867 468.036 55.2583 466.562 53.615C465.146 51.9717 463.729 50.5833 462.312 49.45V69H449.647V5.08L462.312 3.04V40.44ZM489.425 46.985C489.425 43.0183 490.02 39.5617 491.21 36.615C492.456 33.6117 494.071 31.1183 496.055 29.135C498.038 27.1517 500.305 25.65 502.855 24.63C505.461 23.61 508.125 23.1 510.845 23.1C517.191 23.1 522.206 25.055 525.89 28.965C529.573 32.8183 531.415 38.5133 531.415 46.05C531.415 46.7867 531.386 47.6083 531.33 48.515C531.273 49.365 531.216 50.13 531.16 50.81H502.43C502.713 53.4167 503.931 55.485 506.085 57.015C508.238 58.545 511.128 59.31 514.755 59.31C517.078 59.31 519.345 59.1117 521.555 58.715C523.821 58.2617 525.663 57.7233 527.08 57.1L528.78 67.385C528.1 67.725 527.193 68.065 526.06 68.405C524.926 68.745 523.651 69.0283 522.235 69.255C520.875 69.5383 519.401 69.765 517.815 69.935C516.228 70.105 514.641 70.19 513.055 70.19C509.031 70.19 505.518 69.595 502.515 68.405C499.568 67.215 497.103 65.6 495.12 63.56C493.193 61.4633 491.748 58.9983 490.785 56.165C489.878 53.3317 489.425 50.2717 489.425 46.985ZM519.175 42.14C519.118 41.0633 518.92 40.015 518.58 38.995C518.296 37.975 517.815 37.0683 517.135 36.275C516.511 35.4817 515.69 34.83 514.67 34.32C513.706 33.81 512.488 33.555 511.015 33.555C509.598 33.555 508.38 33.81 507.36 34.32C506.34 34.7733 505.49 35.3967 504.81 36.19C504.13 36.9833 503.591 37.9183 503.195 38.995C502.855 40.015 502.6 41.0633 502.43 42.14H519.175ZM534.813 46.985C534.813 43.0183 535.408 39.5617 536.598 36.615C537.845 33.6117 539.46 31.1183 541.443 29.135C543.427 27.1517 545.693 25.65 548.243 24.63C550.85 23.61 553.513 23.1 556.233 23.1C562.58 23.1 567.595 25.055 571.278 28.965C574.962 32.8183 576.803 38.5133 576.803 46.05C576.803 46.7867 576.775 47.6083 576.718 48.515C576.662 49.365 576.605 50.13 576.548 50.81H547.818C548.102 53.4167 549.32 55.485 551.473 57.015C553.627 58.545 556.517 59.31 560.143 59.31C562.467 59.31 564.733 59.1117 566.943 58.715C569.21 58.2617 571.052 57.7233 572.468 57.1L574.168 67.385C573.488 67.725 572.582 68.065 571.448 68.405C570.315 68.745 569.04 69.0283 567.623 69.255C566.263 69.5383 564.79 69.765 563.203 69.935C561.617 70.105 560.03 70.19 558.443 70.19C554.42 70.19 550.907 69.595 547.903 68.405C544.957 67.215 542.492 65.6 540.508 63.56C538.582 61.4633 537.137 58.9983 536.173 56.165C535.267 53.3317 534.813 50.2717 534.813 46.985ZM564.563 42.14C564.507 41.0633 564.308 40.015 563.968 38.995C563.685 37.975 563.203 37.0683 562.523 36.275C561.9 35.4817 561.078 34.83 560.058 34.32C559.095 33.81 557.877 33.555 556.403 33.555C554.987 33.555 553.768 33.81 552.748 34.32C551.728 34.7733 550.878 35.3967 550.198 36.19C549.518 36.9833 548.98 37.9183 548.583 38.995C548.243 40.015 547.988 41.0633 547.818 42.14H564.563ZM610.972 46.985C610.972 43.075 610.094 39.9583 608.337 37.635C606.58 35.255 603.974 34.065 600.517 34.065C599.384 34.065 598.335 34.1217 597.372 34.235C596.409 34.2917 595.615 34.3767 594.992 34.49V57.355C595.785 57.865 596.805 58.29 598.052 58.63C599.355 58.97 600.659 59.14 601.962 59.14C607.969 59.14 610.972 55.0883 610.972 46.985ZM623.892 46.645C623.892 50.1017 623.467 53.2467 622.617 56.08C621.767 58.9133 620.52 61.35 618.877 63.39C617.234 65.43 615.194 67.0167 612.757 68.15C610.32 69.2833 607.515 69.85 604.342 69.85C602.585 69.85 600.942 69.68 599.412 69.34C597.882 69 596.409 68.5183 594.992 67.895V84.725H582.327V25.82C583.46 25.48 584.764 25.1683 586.237 24.885C587.71 24.545 589.24 24.2617 590.827 24.035C592.47 23.8083 594.114 23.6383 595.757 23.525C597.457 23.355 599.072 23.27 600.602 23.27C604.285 23.27 607.572 23.8367 610.462 24.97C613.352 26.0467 615.789 27.605 617.772 29.645C619.755 31.6283 621.257 34.065 622.277 36.955C623.354 39.845 623.892 43.075 623.892 46.645ZM656.341 45.2C656.341 52.2833 659.202 55.825 664.926 55.825C666.229 55.825 667.447 55.655 668.581 55.315C669.714 54.975 670.677 54.5783 671.471 54.125V33.895C670.847 33.7817 670.111 33.6967 669.261 33.64C668.411 33.5267 667.419 33.47 666.286 33.47C662.942 33.47 660.449 34.575 658.806 36.785C657.162 38.995 656.341 41.8 656.341 45.2ZM684.136 63.39C684.136 70.7 682.266 76.1117 678.526 79.625C674.842 83.195 669.119 84.98 661.356 84.98C658.636 84.98 655.916 84.725 653.196 84.215C650.476 83.7617 647.954 83.1383 645.631 82.345L647.841 71.72C649.824 72.5133 651.892 73.1367 654.046 73.59C656.256 74.0433 658.749 74.27 661.526 74.27C665.152 74.27 667.702 73.4767 669.176 71.89C670.706 70.3033 671.471 68.2633 671.471 65.77V64.155C670.111 64.7783 668.694 65.26 667.221 65.6C665.804 65.8833 664.246 66.025 662.546 66.025C656.369 66.025 651.637 64.2117 648.351 60.585C645.064 56.9017 643.421 51.7733 643.421 45.2C643.421 41.9133 643.931 38.9383 644.951 36.275C645.971 33.555 647.444 31.2317 649.371 29.305C651.354 27.3783 653.762 25.905 656.596 24.885C659.429 23.8083 662.631 23.27 666.201 23.27C667.731 23.27 669.289 23.355 670.876 23.525C672.519 23.6383 674.134 23.8083 675.721 24.035C677.307 24.2617 678.809 24.545 680.226 24.885C681.699 25.1683 683.002 25.48 684.136 25.82V63.39ZM733.584 46.56C733.584 50.0733 733.074 53.3033 732.054 56.25C731.034 59.14 729.561 61.6333 727.634 63.73C725.708 65.77 723.384 67.3567 720.664 68.49C718.001 69.6233 714.998 70.19 711.654 70.19C708.368 70.19 705.364 69.6233 702.644 68.49C699.981 67.3567 697.686 65.77 695.759 63.73C693.833 61.6333 692.331 59.14 691.254 56.25C690.178 53.3033 689.639 50.0733 689.639 46.56C689.639 43.0467 690.178 39.845 691.254 36.955C692.388 34.065 693.918 31.6 695.844 29.56C697.828 27.52 700.151 25.9333 702.814 24.8C705.534 23.6667 708.481 23.1 711.654 23.1C714.884 23.1 717.831 23.6667 720.494 24.8C723.214 25.9333 725.538 27.52 727.464 29.56C729.391 31.6 730.893 34.065 731.969 36.955C733.046 39.845 733.584 43.0467 733.584 46.56ZM720.664 46.56C720.664 42.65 719.871 39.59 718.284 37.38C716.754 35.1133 714.544 33.98 711.654 33.98C708.764 33.98 706.526 35.1133 704.939 37.38C703.353 39.59 702.559 42.65 702.559 46.56C702.559 50.47 703.353 53.5867 704.939 55.91C706.526 58.1767 708.764 59.31 711.654 59.31C714.544 59.31 716.754 58.1767 718.284 55.91C719.871 53.5867 720.664 50.47 720.664 46.56ZM751.81 69H739.145V24.29H751.81V69ZM753 11.37C753 13.6933 752.235 15.535 750.705 16.895C749.232 18.1983 747.475 18.85 745.435 18.85C743.395 18.85 741.61 18.1983 740.08 16.895C738.607 15.535 737.87 13.6933 737.87 11.37C737.87 9.04666 738.607 7.23333 740.08 5.93C741.61 4.57 743.395 3.89 745.435 3.89C747.475 3.89 749.232 4.57 750.705 5.93C752.235 7.23333 753 9.04666 753 11.37ZM759.466 25.82C761.619 25.1967 764.396 24.63 767.796 24.12C771.196 23.5533 774.766 23.27 778.506 23.27C782.302 23.27 785.447 23.78 787.941 24.8C790.491 25.7633 792.502 27.1517 793.976 28.965C795.449 30.7783 796.497 32.9317 797.121 35.425C797.744 37.9183 798.056 40.695 798.056 43.755V69H785.391V45.285C785.391 41.205 784.852 38.315 783.776 36.615C782.699 34.915 780.687 34.065 777.741 34.065C776.834 34.065 775.871 34.1217 774.851 34.235C773.831 34.2917 772.924 34.3767 772.131 34.49V69H759.466V25.82ZM816.064 45.2C816.064 52.2833 818.926 55.825 824.649 55.825C825.953 55.825 827.171 55.655 828.304 55.315C829.438 54.975 830.401 54.5783 831.194 54.125V33.895C830.571 33.7817 829.834 33.6967 828.984 33.64C828.134 33.5267 827.143 33.47 826.009 33.47C822.666 33.47 820.173 34.575 818.529 36.785C816.886 38.995 816.064 41.8 816.064 45.2ZM843.859 63.39C843.859 70.7 841.989 76.1117 838.249 79.625C834.566 83.195 828.843 84.98 821.079 84.98C818.359 84.98 815.639 84.725 812.919 84.215C810.199 83.7617 807.678 83.1383 805.354 82.345L807.564 71.72C809.548 72.5133 811.616 73.1367 813.769 73.59C815.979 74.0433 818.473 74.27 821.249 74.27C824.876 74.27 827.426 73.4767 828.899 71.89C830.429 70.3033 831.194 68.2633 831.194 65.77V64.155C829.834 64.7783 828.418 65.26 826.944 65.6C825.528 65.8833 823.969 66.025 822.269 66.025C816.093 66.025 811.361 64.2117 808.074 60.585C804.788 56.9017 803.144 51.7733 803.144 45.2C803.144 41.9133 803.654 38.9383 804.674 36.275C805.694 33.555 807.168 31.2317 809.094 29.305C811.078 27.3783 813.486 25.905 816.319 24.885C819.153 23.8083 822.354 23.27 825.924 23.27C827.454 23.27 829.013 23.355 830.599 23.525C832.243 23.6383 833.858 23.8083 835.444 24.035C837.031 24.2617 838.533 24.545 839.949 24.885C841.423 25.1683 842.726 25.48 843.859 25.82V63.39Z" fill="#E3EDEF"/>
</g>
<defs>
<clipPath id="clip0_1337_2877">
<rect width="393" height="70" fill="white"/>
</clipPath>
</defs>
</svg>
