<svg width="1600" height="90" viewBox="0 0 1600 90" fill="none" xmlns="http://www.w3.org/2000/svg">
<g clip-path="url(#clip0_1337_2874)">
<path opacity="0.2" d="M11.1045 52.552C12.6518 50.864 14.2343 49.1057 15.852 47.277C17.54 45.4483 19.1577 43.6548 20.705 41.8965C22.2523 40.0678 23.6942 38.3447 25.0305 36.727C26.4372 35.1093 27.6328 33.7027 28.6175 32.507H47.291C43.5633 36.7973 39.906 40.9118 36.319 44.8505C32.8023 48.7188 28.934 52.7278 24.714 56.8775C26.824 58.7765 29.0043 61.0623 31.255 63.735C33.5057 66.3373 35.686 69.0452 37.796 71.8585C39.906 74.6718 41.8402 77.4852 43.5985 80.2985C45.3568 83.1118 46.8338 85.679 48.0295 88H29.989C28.8637 86.1713 27.5625 84.1668 26.0855 81.9865C24.6788 79.7358 23.1667 77.5203 21.549 75.34C19.9313 73.0893 18.2082 70.9442 16.3795 68.9045C14.6212 66.8648 12.8628 65.1417 11.1045 63.735V88H-4.615V8.664L11.1045 6.132V52.552ZM44.7557 60.6755C44.7557 55.7522 45.4942 51.4618 46.9712 47.8045C48.5185 44.0768 50.523 40.9822 52.9847 38.5205C55.4464 36.0588 58.2597 34.195 61.4247 32.929C64.66 31.663 67.9657 31.03 71.3417 31.03C79.219 31.03 85.4435 33.4565 90.0152 38.3095C94.5869 43.0922 96.8727 50.1607 96.8727 59.515C96.8727 60.4293 96.8375 61.4492 96.7672 62.5745C96.6969 63.6295 96.6265 64.579 96.5562 65.423H60.8972C61.2489 68.6583 62.761 71.2255 65.4337 73.1245C68.1064 75.0235 71.6934 75.973 76.1947 75.973C79.0784 75.973 81.8917 75.7268 84.6347 75.2345C87.448 74.6718 89.7339 74.0037 91.4922 73.23L93.6022 85.9955C92.7582 86.4175 91.6329 86.8395 90.2262 87.2615C88.8195 87.6835 87.237 88.0352 85.4787 88.3165C83.7907 88.6682 81.962 88.9495 79.9927 89.1605C78.0234 89.3715 76.054 89.477 74.0847 89.477C69.091 89.477 64.7304 88.7385 61.0027 87.2615C57.3454 85.7845 54.2859 83.78 51.8242 81.248C49.4329 78.6457 47.6394 75.5862 46.4437 72.0695C45.3184 68.5528 44.7557 64.7548 44.7557 60.6755ZM81.6807 54.662C81.6104 53.3257 81.3642 52.0245 80.9422 50.7585C80.5905 49.4925 79.9927 48.3672 79.1487 47.3825C78.375 46.3978 77.3552 45.589 76.0892 44.956C74.8935 44.323 73.3814 44.0065 71.5527 44.0065C69.7944 44.0065 68.2822 44.323 67.0162 44.956C65.7502 45.5187 64.6952 46.2923 63.8512 47.277C63.0072 48.2617 62.339 49.4222 61.8467 50.7585C61.4247 52.0245 61.1082 53.3257 60.8972 54.662H81.6807ZM101.091 60.6755C101.091 55.7522 101.83 51.4618 103.307 47.8045C104.854 44.0768 106.858 40.9822 109.32 38.5205C111.782 36.0588 114.595 34.195 117.76 32.929C120.995 31.663 124.301 31.03 127.677 31.03C135.554 31.03 141.779 33.4565 146.351 38.3095C150.922 43.0922 153.208 50.1607 153.208 59.515C153.208 60.4293 153.173 61.4492 153.103 62.5745C153.032 63.6295 152.962 64.579 152.892 65.423H117.233C117.584 68.6583 119.096 71.2255 121.769 73.1245C124.442 75.0235 128.029 75.973 132.53 75.973C135.414 75.973 138.227 75.7268 140.97 75.2345C143.783 74.6718 146.069 74.0037 147.828 73.23L149.938 85.9955C149.094 86.4175 147.968 86.8395 146.562 87.2615C145.155 87.6835 143.572 88.0352 141.814 88.3165C140.126 88.6682 138.297 88.9495 136.328 89.1605C134.359 89.3715 132.389 89.477 130.42 89.477C125.426 89.477 121.066 88.7385 117.338 87.2615C113.681 85.7845 110.621 83.78 108.16 81.248C105.768 78.6457 103.975 75.5862 102.779 72.0695C101.654 68.5528 101.091 64.7548 101.091 60.6755ZM138.016 54.662C137.946 53.3257 137.7 52.0245 137.278 50.7585C136.926 49.4925 136.328 48.3672 135.484 47.3825C134.71 46.3978 133.691 45.589 132.425 44.956C131.229 44.323 129.717 44.0065 127.888 44.0065C126.13 44.0065 124.618 44.323 123.352 44.956C122.086 45.5187 121.031 46.2923 120.187 47.277C119.343 48.2617 118.674 49.4222 118.182 50.7585C117.76 52.0245 117.444 53.3257 117.233 54.662H138.016ZM195.617 60.6755C195.617 55.8225 194.527 51.9542 192.347 49.0705C190.167 46.1165 186.931 44.6395 182.641 44.6395C181.234 44.6395 179.933 44.7098 178.737 44.8505C177.542 44.9208 176.557 45.0263 175.783 45.167V73.5465C176.768 74.1795 178.034 74.707 179.581 75.129C181.199 75.551 182.817 75.762 184.434 75.762C191.89 75.762 195.617 70.7332 195.617 60.6755ZM211.653 60.2535C211.653 64.5438 211.126 68.4473 210.071 71.964C209.016 75.4807 207.469 78.505 205.429 81.037C203.389 83.569 200.857 85.5383 197.833 86.945C194.809 88.3517 191.327 89.055 187.388 89.055C185.208 89.055 183.168 88.844 181.269 88.422C179.37 88 177.542 87.4022 175.783 86.6285V107.518H160.064V34.406C161.471 33.984 163.088 33.5972 164.917 33.2455C166.746 32.8235 168.645 32.4718 170.614 32.1905C172.654 31.9092 174.693 31.6982 176.733 31.5575C178.843 31.3465 180.847 31.241 182.746 31.241C187.318 31.241 191.397 31.9443 194.984 33.351C198.571 34.6873 201.596 36.6215 204.057 39.1535C206.519 41.6152 208.383 44.6395 209.649 48.2265C210.985 51.8135 211.653 55.8225 211.653 60.2535ZM251.928 58.46C251.928 67.2517 255.48 71.6475 262.584 71.6475C264.201 71.6475 265.713 71.4365 267.12 71.0145C268.527 70.5925 269.722 70.1002 270.707 69.5375V44.4285C269.933 44.2878 269.019 44.1823 267.964 44.112C266.909 43.9713 265.678 43.901 264.272 43.901C260.122 43.901 257.027 45.2725 254.988 48.0155C252.948 50.7585 251.928 54.24 251.928 58.46ZM286.427 81.037C286.427 90.11 284.106 96.8268 279.464 101.188C274.892 105.619 267.788 107.834 258.153 107.834C254.777 107.834 251.401 107.518 248.025 106.885C244.649 106.322 241.519 105.548 238.635 104.564L241.378 91.376C243.84 92.3607 246.407 93.1343 249.08 93.697C251.823 94.2597 254.917 94.541 258.364 94.541C262.865 94.541 266.03 93.5563 267.859 91.587C269.758 89.6177 270.707 87.0857 270.707 83.991V81.9865C269.019 82.7602 267.261 83.358 265.432 83.78C263.674 84.1317 261.74 84.3075 259.63 84.3075C251.963 84.3075 246.09 82.0568 242.011 77.5555C237.932 72.9838 235.892 66.6187 235.892 58.46C235.892 54.3807 236.525 50.6882 237.791 47.3825C239.057 44.0065 240.886 41.1228 243.277 38.7315C245.739 36.3402 248.728 34.5115 252.245 33.2455C255.761 31.9092 259.735 31.241 264.166 31.241C266.065 31.241 267.999 31.3465 269.969 31.5575C272.008 31.6982 274.013 31.9092 275.982 32.1905C277.951 32.4718 279.815 32.8235 281.574 33.2455C283.402 33.5972 285.02 33.984 286.427 34.406V81.037ZM347.801 60.148C347.801 64.5087 347.168 68.5177 345.902 72.175C344.636 75.762 342.807 78.8567 340.416 81.459C338.025 83.991 335.141 85.9603 331.765 87.367C328.459 88.7737 324.732 89.477 320.582 89.477C316.503 89.477 312.775 88.7737 309.399 87.367C306.093 85.9603 303.245 83.991 300.854 81.459C298.462 78.8567 296.598 75.762 295.262 72.175C293.926 68.5177 293.258 64.5087 293.258 60.148C293.258 55.7873 293.926 51.8135 295.262 48.2265C296.669 44.6395 298.568 41.58 300.959 39.048C303.421 36.516 306.304 34.5467 309.61 33.14C312.986 31.7333 316.643 31.03 320.582 31.03C324.591 31.03 328.248 31.7333 331.554 33.14C334.93 34.5467 337.814 36.516 340.205 39.048C342.596 41.58 344.46 44.6395 345.797 48.2265C347.133 51.8135 347.801 55.7873 347.801 60.148ZM331.765 60.148C331.765 55.295 330.78 51.497 328.811 48.754C326.912 45.9407 324.169 44.534 320.582 44.534C316.995 44.534 314.217 45.9407 312.248 48.754C310.278 51.497 309.294 55.295 309.294 60.148C309.294 65.001 310.278 68.8693 312.248 71.753C314.217 74.5663 316.995 75.973 320.582 75.973C324.169 75.973 326.912 74.5663 328.811 71.753C330.78 68.8693 331.765 65.001 331.765 60.148ZM370.423 88H354.703V32.507H370.423V88ZM371.9 16.471C371.9 19.3547 370.95 21.6405 369.051 23.3285C367.223 24.9462 365.042 25.755 362.51 25.755C359.978 25.755 357.763 24.9462 355.864 23.3285C354.035 21.6405 353.121 19.3547 353.121 16.471C353.121 13.5873 354.035 11.3367 355.864 9.719C357.763 8.031 359.978 7.187 362.51 7.187C365.042 7.187 367.223 8.031 369.051 9.719C370.95 11.3367 371.9 13.5873 371.9 16.471ZM379.924 34.406C382.597 33.6323 386.043 32.929 390.263 32.296C394.483 31.5927 398.914 31.241 403.556 31.241C408.269 31.241 412.172 31.874 415.267 33.14C418.432 34.3357 420.929 36.0588 422.757 38.3095C424.586 40.5602 425.887 43.2328 426.661 46.3275C427.434 49.4222 427.821 52.8685 427.821 56.6665V88H412.102V58.5655C412.102 53.5015 411.434 49.9145 410.097 47.8045C408.761 45.6945 406.264 44.6395 402.607 44.6395C401.481 44.6395 400.286 44.7098 399.02 44.8505C397.754 44.9208 396.628 45.0263 395.644 45.167V88H379.924V34.406ZM450.173 58.46C450.173 67.2517 453.725 71.6475 460.829 71.6475C462.446 71.6475 463.959 71.4365 465.365 71.0145C466.772 70.5925 467.968 70.1002 468.952 69.5375V44.4285C468.179 44.2878 467.264 44.1823 466.209 44.112C465.154 43.9713 463.923 43.901 462.517 43.901C458.367 43.901 455.272 45.2725 453.233 48.0155C451.193 50.7585 450.173 54.24 450.173 58.46ZM484.672 81.037C484.672 90.11 482.351 96.8268 477.709 101.188C473.137 105.619 466.033 107.834 456.398 107.834C453.022 107.834 449.646 107.518 446.27 106.885C442.894 106.322 439.764 105.548 436.88 104.564L439.623 91.376C442.085 92.3607 444.652 93.1343 447.325 93.697C450.068 94.2597 453.162 94.541 456.609 94.541C461.11 94.541 464.275 93.5563 466.104 91.587C468.003 89.6177 468.952 87.0857 468.952 83.991V81.9865C467.264 82.7602 465.506 83.358 463.677 83.78C461.919 84.1317 459.985 84.3075 457.875 84.3075C450.208 84.3075 444.336 82.0568 440.256 77.5555C436.177 72.9838 434.137 66.6187 434.137 58.46C434.137 54.3807 434.77 50.6882 436.036 47.3825C437.302 44.0065 439.131 41.1228 441.522 38.7315C443.984 36.3402 446.973 34.5115 450.49 33.2455C454.006 31.9092 457.98 31.241 462.411 31.241C464.31 31.241 466.244 31.3465 468.214 31.5575C470.253 31.6982 472.258 31.9092 474.227 32.1905C476.197 32.4718 478.06 32.8235 479.819 33.2455C481.647 33.5972 483.265 33.984 484.672 34.406V81.037ZM529.613 56.8775C529.613 60.0425 528.593 62.469 526.554 64.157C524.584 65.7747 522.334 66.5835 519.802 66.5835C517.27 66.5835 514.984 65.7747 512.944 64.157C510.975 62.469 509.99 60.0425 509.99 56.8775C509.99 53.7125 510.975 51.3212 512.944 49.7035C514.984 48.0155 517.27 47.1715 519.802 47.1715C522.334 47.1715 524.584 48.0155 526.554 49.7035C528.593 51.3212 529.613 53.7125 529.613 56.8775ZM570.687 52.552C572.235 50.864 573.817 49.1057 575.435 47.277C577.123 45.4483 578.74 43.6548 580.288 41.8965C581.835 40.0678 583.277 38.3447 584.613 36.727C586.02 35.1093 587.216 33.7027 588.2 32.507H606.874C603.146 36.7973 599.489 40.9118 595.902 44.8505C592.385 48.7188 588.517 52.7278 584.297 56.8775C586.407 58.7765 588.587 61.0623 590.838 63.735C593.088 66.3373 595.269 69.0452 597.379 71.8585C599.489 74.6718 601.423 77.4852 603.181 80.2985C604.94 83.1118 606.417 85.679 607.612 88H589.572C588.446 86.1713 587.145 84.1668 585.668 81.9865C584.262 79.7358 582.749 77.5203 581.132 75.34C579.514 73.0893 577.791 70.9442 575.962 68.9045C574.204 66.8648 572.446 65.1417 570.687 63.735V88H554.968V8.664L570.687 6.132V52.552ZM604.338 60.6755C604.338 55.7522 605.077 51.4618 606.554 47.8045C608.101 44.0768 610.106 40.9822 612.567 38.5205C615.029 36.0588 617.842 34.195 621.007 32.929C624.243 31.663 627.548 31.03 630.924 31.03C638.802 31.03 645.026 33.4565 649.598 38.3095C654.17 43.0922 656.455 50.1607 656.455 59.515C656.455 60.4293 656.42 61.4492 656.35 62.5745C656.28 63.6295 656.209 64.579 656.139 65.423H620.48C620.832 68.6583 622.344 71.2255 625.016 73.1245C627.689 75.0235 631.276 75.973 635.777 75.973C638.661 75.973 641.474 75.7268 644.217 75.2345C647.031 74.6718 649.317 74.0037 651.075 73.23L653.185 85.9955C652.341 86.4175 651.216 86.8395 649.809 87.2615C648.402 87.6835 646.82 88.0352 645.061 88.3165C643.373 88.6682 641.545 88.9495 639.575 89.1605C637.606 89.3715 635.637 89.477 633.667 89.477C628.674 89.477 624.313 88.7385 620.585 87.2615C616.928 85.7845 613.869 83.78 611.407 81.248C609.016 78.6457 607.222 75.5862 606.026 72.0695C604.901 68.5528 604.338 64.7548 604.338 60.6755ZM641.263 54.662C641.193 53.3257 640.947 52.0245 640.525 50.7585C640.173 49.4925 639.575 48.3672 638.731 47.3825C637.958 46.3978 636.938 45.589 635.672 44.956C634.476 44.323 632.964 44.0065 631.135 44.0065C629.377 44.0065 627.865 44.323 626.599 44.956C625.333 45.5187 624.278 46.2923 623.434 47.277C622.59 48.2617 621.922 49.4222 621.429 50.7585C621.007 52.0245 620.691 53.3257 620.48 54.662H641.263ZM660.674 60.6755C660.674 55.7522 661.412 51.4618 662.889 47.8045C664.437 44.0768 666.441 40.9822 668.903 38.5205C671.364 36.0588 674.178 34.195 677.343 32.929C680.578 31.663 683.884 31.03 687.26 31.03C695.137 31.03 701.362 33.4565 705.933 38.3095C710.505 43.0922 712.791 50.1607 712.791 59.515C712.791 60.4293 712.756 61.4492 712.685 62.5745C712.615 63.6295 712.545 64.579 712.474 65.423H676.815C677.167 68.6583 678.679 71.2255 681.352 73.1245C684.024 75.0235 687.611 75.973 692.113 75.973C694.996 75.973 697.81 75.7268 700.553 75.2345C703.366 74.6718 705.652 74.0037 707.41 73.23L709.52 85.9955C708.676 86.4175 707.551 86.8395 706.144 87.2615C704.738 87.6835 703.155 88.0352 701.397 88.3165C699.709 88.6682 697.88 88.9495 695.911 89.1605C693.941 89.3715 691.972 89.477 690.003 89.477C685.009 89.477 680.648 88.7385 676.921 87.2615C673.263 85.7845 670.204 83.78 667.742 81.248C665.351 78.6457 663.557 75.5862 662.362 72.0695C661.236 68.5528 660.674 64.7548 660.674 60.6755ZM697.599 54.662C697.528 53.3257 697.282 52.0245 696.86 50.7585C696.509 49.4925 695.911 48.3672 695.067 47.3825C694.293 46.3978 693.273 45.589 692.007 44.956C690.812 44.323 689.299 44.0065 687.471 44.0065C685.712 44.0065 684.2 44.323 682.934 44.956C681.668 45.5187 680.613 46.2923 679.769 47.277C678.925 48.2617 678.257 49.4222 677.765 50.7585C677.343 52.0245 677.026 53.3257 676.815 54.662H697.599ZM755.2 60.6755C755.2 55.8225 754.11 51.9542 751.93 49.0705C749.749 46.1165 746.514 44.6395 742.224 44.6395C740.817 44.6395 739.516 44.7098 738.32 44.8505C737.124 44.9208 736.14 45.0263 735.366 45.167V73.5465C736.351 74.1795 737.617 74.707 739.164 75.129C740.782 75.551 742.399 75.762 744.017 75.762C751.472 75.762 755.2 70.7332 755.2 60.6755ZM771.236 60.2535C771.236 64.5438 770.709 68.4473 769.654 71.964C768.599 75.4807 767.051 78.505 765.012 81.037C762.972 83.569 760.44 85.5383 757.416 86.945C754.391 88.3517 750.91 89.055 746.971 89.055C744.791 89.055 742.751 88.844 740.852 88.422C738.953 88 737.124 87.4022 735.366 86.6285V107.518H719.647V34.406C721.053 33.984 722.671 33.5972 724.5 33.2455C726.328 32.8235 728.227 32.4718 730.197 32.1905C732.236 31.9092 734.276 31.6982 736.316 31.5575C738.426 31.3465 740.43 31.241 742.329 31.241C746.901 31.241 750.98 31.9443 754.567 33.351C758.154 34.6873 761.178 36.6215 763.64 39.1535C766.102 41.6152 767.966 44.6395 769.232 48.2265C770.568 51.8135 771.236 55.8225 771.236 60.2535ZM811.511 58.46C811.511 67.2517 815.063 71.6475 822.166 71.6475C823.784 71.6475 825.296 71.4365 826.703 71.0145C828.109 70.5925 829.305 70.1002 830.29 69.5375V44.4285C829.516 44.2878 828.602 44.1823 827.547 44.112C826.492 43.9713 825.261 43.901 823.854 43.901C819.705 43.901 816.61 45.2725 814.57 48.0155C812.531 50.7585 811.511 54.24 811.511 58.46ZM846.009 81.037C846.009 90.11 843.688 96.8268 839.046 101.188C834.475 105.619 827.371 107.834 817.735 107.834C814.359 107.834 810.983 107.518 807.607 106.885C804.231 106.322 801.101 105.548 798.218 104.564L800.961 91.376C803.422 92.3607 805.99 93.1343 808.662 93.697C811.405 94.2597 814.5 94.541 817.946 94.541C822.448 94.541 825.613 93.5563 827.441 91.587C829.34 89.6177 830.29 87.0857 830.29 83.991V81.9865C828.602 82.7602 826.843 83.358 825.015 83.78C823.256 84.1317 821.322 84.3075 819.212 84.3075C811.546 84.3075 805.673 82.0568 801.594 77.5555C797.514 72.9838 795.475 66.6187 795.475 58.46C795.475 54.3807 796.108 50.6882 797.374 47.3825C798.64 44.0065 800.468 41.1228 802.86 38.7315C805.321 36.3402 808.311 34.5115 811.827 33.2455C815.344 31.9092 819.318 31.241 823.749 31.241C825.648 31.241 827.582 31.3465 829.551 31.5575C831.591 31.6982 833.595 31.9092 835.565 32.1905C837.534 32.4718 839.398 32.8235 841.156 33.2455C842.985 33.5972 844.603 33.984 846.009 34.406V81.037ZM907.384 60.148C907.384 64.5087 906.751 68.5177 905.485 72.175C904.219 75.762 902.39 78.8567 899.999 81.459C897.608 83.991 894.724 85.9603 891.348 87.367C888.042 88.7737 884.315 89.477 880.165 89.477C876.086 89.477 872.358 88.7737 868.982 87.367C865.676 85.9603 862.828 83.991 860.436 81.459C858.045 78.8567 856.181 75.762 854.845 72.175C853.509 68.5177 852.84 64.5087 852.84 60.148C852.84 55.7873 853.509 51.8135 854.845 48.2265C856.252 44.6395 858.151 41.58 860.542 39.048C863.004 36.516 865.887 34.5467 869.193 33.14C872.569 31.7333 876.226 31.03 880.165 31.03C884.174 31.03 887.831 31.7333 891.137 33.14C894.513 34.5467 897.397 36.516 899.788 39.048C902.179 41.58 904.043 44.6395 905.379 48.2265C906.716 51.8135 907.384 55.7873 907.384 60.148ZM891.348 60.148C891.348 55.295 890.363 51.497 888.394 48.754C886.495 45.9407 883.752 44.534 880.165 44.534C876.578 44.534 873.8 45.9407 871.83 48.754C869.861 51.497 868.876 55.295 868.876 60.148C868.876 65.001 869.861 68.8693 871.83 71.753C873.8 74.5663 876.578 75.973 880.165 75.973C883.752 75.973 886.495 74.5663 888.394 71.753C890.363 68.8693 891.348 65.001 891.348 60.148ZM930.005 88H914.286V32.507H930.005V88ZM931.482 16.471C931.482 19.3547 930.533 21.6405 928.634 23.3285C926.805 24.9462 924.625 25.755 922.093 25.755C919.561 25.755 917.345 24.9462 915.446 23.3285C913.618 21.6405 912.703 19.3547 912.703 16.471C912.703 13.5873 913.618 11.3367 915.446 9.719C917.345 8.031 919.561 7.187 922.093 7.187C924.625 7.187 926.805 8.031 928.634 9.719C930.533 11.3367 931.482 13.5873 931.482 16.471ZM939.507 34.406C942.18 33.6323 945.626 32.929 949.846 32.296C954.066 31.5927 958.497 31.241 963.139 31.241C967.851 31.241 971.755 31.874 974.849 33.14C978.014 34.3357 980.511 36.0588 982.34 38.3095C984.169 40.5602 985.47 43.2328 986.243 46.3275C987.017 49.4222 987.404 52.8685 987.404 56.6665V88H971.684V58.5655C971.684 53.5015 971.016 49.9145 969.68 47.8045C968.344 45.6945 965.847 44.6395 962.189 44.6395C961.064 44.6395 959.868 44.7098 958.602 44.8505C957.336 44.9208 956.211 45.0263 955.226 45.167V88H939.507V34.406ZM1009.76 58.46C1009.76 67.2517 1013.31 71.6475 1020.41 71.6475C1022.03 71.6475 1023.54 71.4365 1024.95 71.0145C1026.35 70.5925 1027.55 70.1002 1028.53 69.5375V44.4285C1027.76 44.2878 1026.85 44.1823 1025.79 44.112C1024.74 43.9713 1023.51 43.901 1022.1 43.901C1017.95 43.901 1014.86 45.2725 1012.82 48.0155C1010.78 50.7585 1009.76 54.24 1009.76 58.46ZM1044.25 81.037C1044.25 90.11 1041.93 96.8268 1037.29 101.188C1032.72 105.619 1025.62 107.834 1015.98 107.834C1012.6 107.834 1009.23 107.518 1005.85 106.885C1002.48 106.322 999.347 105.548 996.463 104.564L999.206 91.376C1001.67 92.3607 1004.23 93.1343 1006.91 93.697C1009.65 94.2597 1012.75 94.541 1016.19 94.541C1020.69 94.541 1023.86 93.5563 1025.69 91.587C1027.59 89.6177 1028.53 87.0857 1028.53 83.991V81.9865C1026.85 82.7602 1025.09 83.358 1023.26 83.78C1021.5 84.1317 1019.57 84.3075 1017.46 84.3075C1009.79 84.3075 1003.92 82.0568 999.839 77.5555C995.76 72.9838 993.72 66.6187 993.72 58.46C993.72 54.3807 994.353 50.6882 995.619 47.3825C996.885 44.0065 998.714 41.1228 1001.1 38.7315C1003.57 36.3402 1006.56 34.5115 1010.07 33.2455C1013.59 31.9092 1017.56 31.241 1021.99 31.241C1023.89 31.241 1025.83 31.3465 1027.8 31.5575C1029.84 31.6982 1031.84 31.9092 1033.81 32.1905C1035.78 32.4718 1037.64 32.8235 1039.4 33.2455C1041.23 33.5972 1042.85 33.984 1044.25 34.406V81.037ZM1089.2 56.8775C1089.2 60.0425 1088.18 62.469 1086.14 64.157C1084.17 65.7747 1081.92 66.5835 1079.38 66.5835C1076.85 66.5835 1074.57 65.7747 1072.53 64.157C1070.56 62.469 1069.57 60.0425 1069.57 56.8775C1069.57 53.7125 1070.56 51.3212 1072.53 49.7035C1074.57 48.0155 1076.85 47.1715 1079.38 47.1715C1081.92 47.1715 1084.17 48.0155 1086.14 49.7035C1088.18 51.3212 1089.2 53.7125 1089.2 56.8775ZM1130.27 52.552C1131.82 50.864 1133.4 49.1057 1135.02 47.277C1136.71 45.4483 1138.32 43.6548 1139.87 41.8965C1141.42 40.0678 1142.86 38.3447 1144.2 36.727C1145.6 35.1093 1146.8 33.7027 1147.78 32.507H1166.46C1162.73 36.7973 1159.07 40.9118 1155.48 44.8505C1151.97 48.7188 1148.1 52.7278 1143.88 56.8775C1145.99 58.7765 1148.17 61.0623 1150.42 63.735C1152.67 66.3373 1154.85 69.0452 1156.96 71.8585C1159.07 74.6718 1161.01 77.4852 1162.76 80.2985C1164.52 83.1118 1166 85.679 1167.19 88H1149.15C1148.03 86.1713 1146.73 84.1668 1145.25 81.9865C1143.84 79.7358 1142.33 77.5203 1140.71 75.34C1139.1 73.0893 1137.37 70.9442 1135.54 68.9045C1133.79 66.8648 1132.03 65.1417 1130.27 63.735V88H1114.55V8.664L1130.27 6.132V52.552ZM1163.92 60.6755C1163.92 55.7522 1164.66 51.4618 1166.14 47.8045C1167.68 44.0768 1169.69 40.9822 1172.15 38.5205C1174.61 36.0588 1177.43 34.195 1180.59 32.929C1183.83 31.663 1187.13 31.03 1190.51 31.03C1198.38 31.03 1204.61 33.4565 1209.18 38.3095C1213.75 43.0922 1216.04 50.1607 1216.04 59.515C1216.04 60.4293 1216 61.4492 1215.93 62.5745C1215.86 63.6295 1215.79 64.579 1215.72 65.423H1180.06C1180.41 68.6583 1181.93 71.2255 1184.6 73.1245C1187.27 75.0235 1190.86 75.973 1195.36 75.973C1198.24 75.973 1201.06 75.7268 1203.8 75.2345C1206.61 74.6718 1208.9 74.0037 1210.66 73.23L1212.77 85.9955C1211.92 86.4175 1210.8 86.8395 1209.39 87.2615C1207.98 87.6835 1206.4 88.0352 1204.64 88.3165C1202.96 88.6682 1201.13 88.9495 1199.16 89.1605C1197.19 89.3715 1195.22 89.477 1193.25 89.477C1188.26 89.477 1183.9 88.7385 1180.17 87.2615C1176.51 85.7845 1173.45 83.78 1170.99 81.248C1168.6 78.6457 1166.8 75.5862 1165.61 72.0695C1164.48 68.5528 1163.92 64.7548 1163.92 60.6755ZM1200.85 54.662C1200.78 53.3257 1200.53 52.0245 1200.11 50.7585C1199.76 49.4925 1199.16 48.3672 1198.31 47.3825C1197.54 46.3978 1196.52 45.589 1195.25 44.956C1194.06 44.323 1192.55 44.0065 1190.72 44.0065C1188.96 44.0065 1187.45 44.323 1186.18 44.956C1184.92 45.5187 1183.86 46.2923 1183.02 47.277C1182.17 48.2617 1181.5 49.4222 1181.01 50.7585C1180.59 52.0245 1180.27 53.3257 1180.06 54.662H1200.85ZM1220.26 60.6755C1220.26 55.7522 1221 51.4618 1222.47 47.8045C1224.02 44.0768 1226.02 40.9822 1228.49 38.5205C1230.95 36.0588 1233.76 34.195 1236.93 32.929C1240.16 31.663 1243.47 31.03 1246.84 31.03C1254.72 31.03 1260.94 33.4565 1265.52 38.3095C1270.09 43.0922 1272.37 50.1607 1272.37 59.515C1272.37 60.4293 1272.34 61.4492 1272.27 62.5745C1272.2 63.6295 1272.13 64.579 1272.06 65.423H1236.4C1236.75 68.6583 1238.26 71.2255 1240.93 73.1245C1243.61 75.0235 1247.19 75.973 1251.7 75.973C1254.58 75.973 1257.39 75.7268 1260.14 75.2345C1262.95 74.6718 1265.23 74.0037 1266.99 73.23L1269.1 85.9955C1268.26 86.4175 1267.13 86.8395 1265.73 87.2615C1264.32 87.6835 1262.74 88.0352 1260.98 88.3165C1259.29 88.6682 1257.46 88.9495 1255.49 89.1605C1253.52 89.3715 1251.55 89.477 1249.59 89.477C1244.59 89.477 1240.23 88.7385 1236.5 87.2615C1232.85 85.7845 1229.79 83.78 1227.33 81.248C1224.93 78.6457 1223.14 75.5862 1221.94 72.0695C1220.82 68.5528 1220.26 64.7548 1220.26 60.6755ZM1257.18 54.662C1257.11 53.3257 1256.87 52.0245 1256.44 50.7585C1256.09 49.4925 1255.49 48.3672 1254.65 47.3825C1253.88 46.3978 1252.86 45.589 1251.59 44.956C1250.39 44.323 1248.88 44.0065 1247.05 44.0065C1245.3 44.0065 1243.78 44.323 1242.52 44.956C1241.25 45.5187 1240.2 46.2923 1239.35 47.277C1238.51 48.2617 1237.84 49.4222 1237.35 50.7585C1236.93 52.0245 1236.61 53.3257 1236.4 54.662H1257.18ZM1314.78 60.6755C1314.78 55.8225 1313.69 51.9542 1311.51 49.0705C1309.33 46.1165 1306.1 44.6395 1301.81 44.6395C1300.4 44.6395 1299.1 44.7098 1297.9 44.8505C1296.71 44.9208 1295.72 45.0263 1294.95 45.167V73.5465C1295.93 74.1795 1297.2 74.707 1298.75 75.129C1300.36 75.551 1301.98 75.762 1303.6 75.762C1311.06 75.762 1314.78 70.7332 1314.78 60.6755ZM1330.82 60.2535C1330.82 64.5438 1330.29 68.4473 1329.24 71.964C1328.18 75.4807 1326.63 78.505 1324.59 81.037C1322.55 83.569 1320.02 85.5383 1317 86.945C1313.97 88.3517 1310.49 89.055 1306.55 89.055C1304.37 89.055 1302.33 88.844 1300.43 88.422C1298.54 88 1296.71 87.4022 1294.95 86.6285V107.518H1279.23V34.406C1280.64 33.984 1282.25 33.5972 1284.08 33.2455C1285.91 32.8235 1287.81 32.4718 1289.78 32.1905C1291.82 31.9092 1293.86 31.6982 1295.9 31.5575C1298.01 31.3465 1300.01 31.241 1301.91 31.241C1306.48 31.241 1310.56 31.9443 1314.15 33.351C1317.74 34.6873 1320.76 36.6215 1323.22 39.1535C1325.68 41.6152 1327.55 44.6395 1328.81 48.2265C1330.15 51.8135 1330.82 55.8225 1330.82 60.2535ZM1371.09 58.46C1371.09 67.2517 1374.65 71.6475 1381.75 71.6475C1383.37 71.6475 1384.88 71.4365 1386.29 71.0145C1387.69 70.5925 1388.89 70.1002 1389.87 69.5375V44.4285C1389.1 44.2878 1388.18 44.1823 1387.13 44.112C1386.07 43.9713 1384.84 43.901 1383.44 43.901C1379.29 43.901 1376.19 45.2725 1374.15 48.0155C1372.11 50.7585 1371.09 54.24 1371.09 58.46ZM1405.59 81.037C1405.59 90.11 1403.27 96.8268 1398.63 101.188C1394.06 105.619 1386.95 107.834 1377.32 107.834C1373.94 107.834 1370.57 107.518 1367.19 106.885C1363.81 106.322 1360.68 105.548 1357.8 104.564L1360.54 91.376C1363.01 92.3607 1365.57 93.1343 1368.24 93.697C1370.99 94.2597 1374.08 94.541 1377.53 94.541C1382.03 94.541 1385.2 93.5563 1387.02 91.587C1388.92 89.6177 1389.87 87.0857 1389.87 83.991V81.9865C1388.18 82.7602 1386.43 83.358 1384.6 83.78C1382.84 84.1317 1380.9 84.3075 1378.79 84.3075C1371.13 84.3075 1365.26 82.0568 1361.18 77.5555C1357.1 72.9838 1355.06 66.6187 1355.06 58.46C1355.06 54.3807 1355.69 50.6882 1356.96 47.3825C1358.22 44.0065 1360.05 41.1228 1362.44 38.7315C1364.9 36.3402 1367.89 34.5115 1371.41 33.2455C1374.93 31.9092 1378.9 31.241 1383.33 31.241C1385.23 31.241 1387.16 31.3465 1389.13 31.5575C1391.17 31.6982 1393.18 31.9092 1395.15 32.1905C1397.12 32.4718 1398.98 32.8235 1400.74 33.2455C1402.57 33.5972 1404.19 33.984 1405.59 34.406V81.037ZM1466.97 60.148C1466.97 64.5087 1466.33 68.5177 1465.07 72.175C1463.8 75.762 1461.97 78.8567 1459.58 81.459C1457.19 83.991 1454.31 85.9603 1450.93 87.367C1447.62 88.7737 1443.9 89.477 1439.75 89.477C1435.67 89.477 1431.94 88.7737 1428.56 87.367C1425.26 85.9603 1422.41 83.991 1420.02 81.459C1417.63 78.8567 1415.76 75.762 1414.43 72.175C1413.09 68.5177 1412.42 64.5087 1412.42 60.148C1412.42 55.7873 1413.09 51.8135 1414.43 48.2265C1415.83 44.6395 1417.73 41.58 1420.12 39.048C1422.59 36.516 1425.47 34.5467 1428.78 33.14C1432.15 31.7333 1435.81 31.03 1439.75 31.03C1443.76 31.03 1447.41 31.7333 1450.72 33.14C1454.1 34.5467 1456.98 36.516 1459.37 39.048C1461.76 41.58 1463.63 44.6395 1464.96 48.2265C1466.3 51.8135 1466.97 55.7873 1466.97 60.148ZM1450.93 60.148C1450.93 55.295 1449.95 51.497 1447.98 48.754C1446.08 45.9407 1443.33 44.534 1439.75 44.534C1436.16 44.534 1433.38 45.9407 1431.41 48.754C1429.44 51.497 1428.46 55.295 1428.46 60.148C1428.46 65.001 1429.44 68.8693 1431.41 71.753C1433.38 74.5663 1436.16 75.973 1439.75 75.973C1443.33 75.973 1446.08 74.5663 1447.98 71.753C1449.95 68.8693 1450.93 65.001 1450.93 60.148ZM1489.59 88H1473.87V32.507H1489.59V88ZM1491.07 16.471C1491.07 19.3547 1490.12 21.6405 1488.22 23.3285C1486.39 24.9462 1484.21 25.755 1481.68 25.755C1479.14 25.755 1476.93 24.9462 1475.03 23.3285C1473.2 21.6405 1472.29 19.3547 1472.29 16.471C1472.29 13.5873 1473.2 11.3367 1475.03 9.719C1476.93 8.031 1479.14 7.187 1481.68 7.187C1484.21 7.187 1486.39 8.031 1488.22 9.719C1490.12 11.3367 1491.07 13.5873 1491.07 16.471ZM1499.09 34.406C1501.76 33.6323 1505.21 32.929 1509.43 32.296C1513.65 31.5927 1518.08 31.241 1522.72 31.241C1527.43 31.241 1531.34 31.874 1534.43 33.14C1537.6 34.3357 1540.09 36.0588 1541.92 38.3095C1543.75 40.5602 1545.05 43.2328 1545.83 46.3275C1546.6 49.4222 1546.99 52.8685 1546.99 56.6665V88H1531.27V58.5655C1531.27 53.5015 1530.6 49.9145 1529.26 47.8045C1527.93 45.6945 1525.43 44.6395 1521.77 44.6395C1520.65 44.6395 1519.45 44.7098 1518.19 44.8505C1516.92 44.9208 1515.79 45.0263 1514.81 45.167V88H1499.09V34.406ZM1569.34 58.46C1569.34 67.2517 1572.89 71.6475 1579.99 71.6475C1581.61 71.6475 1583.12 71.4365 1584.53 71.0145C1585.94 70.5925 1587.13 70.1002 1588.12 69.5375V44.4285C1587.34 44.2878 1586.43 44.1823 1585.37 44.112C1584.32 43.9713 1583.09 43.901 1581.68 43.901C1577.53 43.901 1574.44 45.2725 1572.4 48.0155C1570.36 50.7585 1569.34 54.24 1569.34 58.46ZM1603.84 81.037C1603.84 90.11 1601.52 96.8268 1596.87 101.188C1592.3 105.619 1585.2 107.834 1575.56 107.834C1572.19 107.834 1568.81 107.518 1565.44 106.885C1562.06 106.322 1558.93 105.548 1556.05 104.564L1558.79 91.376C1561.25 92.3607 1563.82 93.1343 1566.49 93.697C1569.23 94.2597 1572.33 94.541 1575.77 94.541C1580.28 94.541 1583.44 93.5563 1585.27 91.587C1587.17 89.6177 1588.12 87.0857 1588.12 83.991V81.9865C1586.43 82.7602 1584.67 83.358 1582.84 83.78C1581.08 84.1317 1579.15 84.3075 1577.04 84.3075C1569.37 84.3075 1563.5 82.0568 1559.42 77.5555C1555.34 72.9838 1553.3 66.6187 1553.3 58.46C1553.3 54.3807 1553.94 50.6882 1555.2 47.3825C1556.47 44.0065 1558.3 41.1228 1560.69 38.7315C1563.15 36.3402 1566.14 34.5115 1569.66 33.2455C1573.17 31.9092 1577.15 31.241 1581.58 31.241C1583.48 31.241 1585.41 31.3465 1587.38 31.5575C1589.42 31.6982 1591.42 31.9092 1593.39 32.1905C1595.36 32.4718 1597.23 32.8235 1598.98 33.2455C1600.81 33.5972 1602.43 33.984 1603.84 34.406V81.037Z" fill="#E3EDEF"/>
</g>
<defs>
<clipPath id="clip0_1337_2874">
<rect width="1600" height="90" fill="white"/>
</clipPath>
</defs>
</svg>
