<svg width="333" height="333" viewBox="0 0 333 333" fill="none" xmlns="http://www.w3.org/2000/svg">
<g opacity="0.2">
<path d="M21.8367 83.8785L83.9178 21.7974C72.8812 28.104 62.6723 35.6326 53.4094 44.186L44.2253 53.37C35.6719 62.5935 28.1433 72.8418 21.8367 83.8785Z" fill="url(#paint0_linear_3524_482)"/>
<path d="M3.3111 133.228L133.268 3.27148C129.681 3.98098 126.133 4.84815 122.625 5.79415L5.83382 122.586C4.8484 126.094 4.0206 129.641 3.3111 133.228Z" fill="url(#paint1_linear_3524_482)"/>
<path d="M0 166.259C0 166.614 0 166.969 0 167.324L167.323 0C166.969 0 166.614 0 166.259 0C163.855 0 161.45 0.0788068 159.046 0.15764L0.15758 159.046C0.0787466 161.45 0 163.815 0 166.259Z" fill="url(#paint2_linear_3524_482)"/>
<path d="M2.60095 195.546L195.624 2.52261C193.298 2.12844 190.934 1.73428 188.608 1.41895L1.53662 188.49C1.81254 190.895 2.16736 193.22 2.60095 195.546Z" fill="url(#paint3_linear_3524_482)"/>
<path d="M8.90818 220.063L220.102 8.86878C218.053 8.15928 216.003 7.52861 213.953 6.89795L6.97681 213.875C7.56806 215.964 8.19868 218.013 8.90818 220.063Z" fill="url(#paint4_linear_3524_482)"/>
<path d="M18.0921 241.703L241.781 18.0135C239.968 17.1069 238.155 16.2003 236.302 15.3726L15.4118 236.224C16.279 238.076 17.1461 239.89 18.0921 241.703Z" fill="url(#paint5_linear_3524_482)"/>
<path d="M29.6013 260.978L261.016 29.5626C259.4 28.4589 257.784 27.3553 256.168 26.291L26.3693 256.09C27.4336 257.745 28.4976 259.361 29.6013 260.978Z" fill="url(#paint6_linear_3524_482)"/>
<path d="M43.2797 278.124L278.163 43.24C276.744 41.9393 275.286 40.678 273.827 39.4561L39.4562 273.827C40.7175 275.286 41.979 276.705 43.2797 278.124Z" fill="url(#paint7_linear_3524_482)"/>
<path d="M58.9674 293.259L293.299 58.9276C292.077 57.4692 290.816 56.0108 289.515 54.5918L54.6317 289.475C56.0507 290.776 57.509 292.037 58.9674 293.259Z" fill="url(#paint8_linear_3524_482)"/>
<path d="M76.7046 306.346L306.425 76.626C305.36 74.9705 304.296 73.3545 303.153 71.7778L71.817 303.114C73.433 304.217 75.0491 305.321 76.7046 306.346Z" fill="url(#paint9_linear_3524_482)"/>
<path d="M96.6096 317.264L317.303 96.5706C316.436 94.7181 315.569 92.905 314.662 91.0918L91.1309 314.623C92.9441 315.53 94.7571 316.397 96.6096 317.264Z" fill="url(#paint10_linear_3524_482)"/>
<path d="M118.999 325.7L325.778 118.96C325.147 116.871 324.517 114.821 323.847 112.811L112.849 323.808C114.86 324.438 116.91 325.069 118.999 325.7Z" fill="url(#paint11_linear_3524_482)"/>
<path d="M144.382 331.1L331.138 144.344C330.823 141.979 330.468 139.653 330.074 137.288L137.366 329.996C139.692 330.429 142.017 330.784 144.382 331.1Z" fill="url(#paint12_linear_3524_482)"/>
<path d="M166.299 332.558C168.861 332.558 171.423 332.479 173.946 332.361L332.401 173.906C332.519 171.384 332.598 168.822 332.598 166.26C332.598 166.063 332.598 165.826 332.598 165.629L165.708 332.519C165.866 332.519 166.102 332.558 166.299 332.558Z" fill="url(#paint13_linear_3524_482)"/>
<path d="M210.563 326.567L326.606 210.525C327.591 207.017 328.458 203.43 329.168 199.843L199.842 329.169C203.468 328.42 207.055 327.553 210.563 326.567Z" fill="url(#paint14_linear_3524_482)"/>
<path d="M310.169 249.665L249.704 310.13C274.733 295.585 295.624 274.695 310.169 249.665Z" fill="url(#paint15_linear_3524_482)"/>
</g>
<defs>
<linearGradient id="paint0_linear_3524_482" x1="52.8773" y1="21.7974" x2="52.8773" y2="83.8785" gradientUnits="userSpaceOnUse">
<stop stop-color="#FF8A00" stop-opacity="0"/>
<stop offset="1" stop-color="#FF8A00"/>
</linearGradient>
<linearGradient id="paint1_linear_3524_482" x1="68.2894" y1="3.27148" x2="68.2894" y2="133.228" gradientUnits="userSpaceOnUse">
<stop stop-color="#FF8A00" stop-opacity="0"/>
<stop offset="1" stop-color="#FF8A00"/>
</linearGradient>
<linearGradient id="paint2_linear_3524_482" x1="83.6617" y1="0" x2="83.6617" y2="167.324" gradientUnits="userSpaceOnUse">
<stop stop-color="#FF8A00" stop-opacity="0"/>
<stop offset="1" stop-color="#FF8A00"/>
</linearGradient>
<linearGradient id="paint3_linear_3524_482" x1="98.5803" y1="1.41895" x2="98.5803" y2="195.546" gradientUnits="userSpaceOnUse">
<stop stop-color="#FF8A00" stop-opacity="0"/>
<stop offset="1" stop-color="#FF8A00"/>
</linearGradient>
<linearGradient id="paint4_linear_3524_482" x1="113.54" y1="6.89795" x2="113.54" y2="220.063" gradientUnits="userSpaceOnUse">
<stop stop-color="#FF8A00" stop-opacity="0"/>
<stop offset="1" stop-color="#FF8A00"/>
</linearGradient>
<linearGradient id="paint5_linear_3524_482" x1="128.597" y1="15.3726" x2="128.597" y2="241.703" gradientUnits="userSpaceOnUse">
<stop stop-color="#FF8A00" stop-opacity="0"/>
<stop offset="1" stop-color="#FF8A00"/>
</linearGradient>
<linearGradient id="paint6_linear_3524_482" x1="143.693" y1="26.291" x2="143.693" y2="260.978" gradientUnits="userSpaceOnUse">
<stop stop-color="#FF8A00" stop-opacity="0"/>
<stop offset="1" stop-color="#FF8A00"/>
</linearGradient>
<linearGradient id="paint7_linear_3524_482" x1="158.81" y1="39.4561" x2="158.81" y2="278.124" gradientUnits="userSpaceOnUse">
<stop stop-color="#FF8A00" stop-opacity="0"/>
<stop offset="1" stop-color="#FF8A00"/>
</linearGradient>
<linearGradient id="paint8_linear_3524_482" x1="173.965" y1="54.5918" x2="173.965" y2="293.259" gradientUnits="userSpaceOnUse">
<stop stop-color="#FF8A00" stop-opacity="0"/>
<stop offset="1" stop-color="#FF8A00"/>
</linearGradient>
<linearGradient id="paint9_linear_3524_482" x1="189.121" y1="71.7778" x2="189.121" y2="306.346" gradientUnits="userSpaceOnUse">
<stop stop-color="#FF8A00" stop-opacity="0"/>
<stop offset="1" stop-color="#FF8A00"/>
</linearGradient>
<linearGradient id="paint10_linear_3524_482" x1="204.217" y1="91.0918" x2="204.217" y2="317.264" gradientUnits="userSpaceOnUse">
<stop stop-color="#FF8A00" stop-opacity="0"/>
<stop offset="1" stop-color="#FF8A00"/>
</linearGradient>
<linearGradient id="paint11_linear_3524_482" x1="219.314" y1="112.811" x2="219.314" y2="325.7" gradientUnits="userSpaceOnUse">
<stop stop-color="#FF8A00" stop-opacity="0"/>
<stop offset="1" stop-color="#FF8A00"/>
</linearGradient>
<linearGradient id="paint12_linear_3524_482" x1="234.252" y1="137.288" x2="234.252" y2="331.1" gradientUnits="userSpaceOnUse">
<stop stop-color="#FF8A00" stop-opacity="0"/>
<stop offset="1" stop-color="#FF8A00"/>
</linearGradient>
<linearGradient id="paint13_linear_3524_482" x1="249.153" y1="165.629" x2="249.153" y2="332.558" gradientUnits="userSpaceOnUse">
<stop stop-color="#FF8A00" stop-opacity="0"/>
<stop offset="1" stop-color="#FF8A00"/>
</linearGradient>
<linearGradient id="paint14_linear_3524_482" x1="264.505" y1="199.843" x2="264.505" y2="329.169" gradientUnits="userSpaceOnUse">
<stop stop-color="#FF8A00" stop-opacity="0"/>
<stop offset="1" stop-color="#FF8A00"/>
</linearGradient>
<linearGradient id="paint15_linear_3524_482" x1="279.936" y1="249.665" x2="279.936" y2="310.13" gradientUnits="userSpaceOnUse">
<stop stop-color="#FF8A00" stop-opacity="0"/>
<stop offset="1" stop-color="#FF8A00"/>
</linearGradient>
</defs>
</svg>
