<svg width="500" height="500" viewBox="0 0 500 500" fill="none" xmlns="http://www.w3.org/2000/svg">
<path opacity="0.1" d="M300.354 129.643L391.422 38.5748L461.425 108.578L370.356 199.646L369.503 200.5H370.71H499.5V299.5H370.71H369.503L370.356 300.354L461.425 391.422L391.422 461.425L300.354 370.356L299.5 369.503V370.71V499.5H200.5V370.71V369.503L199.646 370.356L108.579 461.425L38.5751 391.42L129.643 300.354L130.496 299.5H129.289H0.5V200.5H129.29H130.497L129.643 199.646L38.5751 108.578L108.579 38.5751L199.646 129.643L200.5 130.496V129.289V0.5H299.5V129.289V130.496L300.354 129.643Z" stroke="white"/>
</svg>
