<svg width="80" height="80" viewBox="0 0 80 80" fill="none" xmlns="http://www.w3.org/2000/svg">
<g clip-path="url(#clip0_3674_1957)">
<path d="M26.69 40.0746L48.0685 18.6961C55.185 11.5795 65.5037 9.02847 74.9343 11.7041C74.4723 10.0756 73.8557 8.47335 73.0784 6.91893C62.5223 1.64086 49.7729 3.70978 41.4275 12.0551L20.0492 33.4336C17.6086 35.8742 17.6086 39.8313 20.0492 42.2719L26.69 48.9127C24.2494 46.4721 24.2494 42.5152 26.69 40.0746Z" fill="#FF8A00" fill-opacity="0.4"/>
<path d="M6.51777 79.9953C4.44432 79.9953 3.10098 79.8444 2.9113 79.8216C1.48203 79.6504 0.354606 78.5248 0.181025 77.0958C0.0954055 76.3903 -1.79337 59.6944 9.0004 48.9006C10.2208 47.6803 12.1992 47.6803 13.4195 48.9006C14.6397 50.121 14.6399 52.0995 13.4195 53.3197C7.00179 59.7377 6.22216 69.1989 6.25669 73.7334C6.30716 73.7336 6.3584 73.7337 6.41012 73.7337C11.011 73.7337 20.3727 72.8813 26.677 66.5771C27.8974 65.3567 29.8758 65.3567 31.096 66.5771C32.3163 67.7974 32.3164 69.7759 31.096 70.9961C23.2169 78.8753 12.1635 79.9953 6.51777 79.9953Z" fill="#181818"/>
<path d="M50.9827 38.3883C48.4787 38.3883 46.1246 37.4132 44.354 35.6426C42.5835 33.8721 41.6084 31.518 41.6084 29.014C41.6084 26.5101 42.5835 24.1559 44.3541 22.3854C46.1246 20.6147 48.4787 19.6396 50.9827 19.6396C53.4866 19.6396 55.8408 20.6147 57.6113 22.3854C59.3818 24.1561 60.3571 26.5101 60.3571 29.014C60.3571 31.518 59.382 33.8721 57.6113 35.6427C55.8408 37.4132 53.4868 38.3883 50.9827 38.3883ZM50.9827 25.8892C50.1481 25.8892 49.3633 26.2142 48.7732 26.8045C48.1829 27.3947 47.858 28.1794 47.858 29.014C47.858 29.8486 48.1829 30.6334 48.7732 31.2235C49.3633 31.8138 50.1481 32.1388 50.9827 32.1388C51.8174 32.1388 52.602 31.8136 53.1923 31.2235C53.7825 30.6334 54.1075 29.8488 54.1075 29.014C54.1075 28.1794 53.7824 27.3947 53.1923 26.8045C52.6022 26.2143 51.8174 25.8892 50.9827 25.8892Z" fill="#181818"/>
<path d="M79.0816 5.33429C80.3019 4.11391 80.3019 2.13546 79.0816 0.915229C77.8612 -0.304998 75.8827 -0.305154 74.6625 0.915229L72.3972 3.18054C61.0655 -1.47242 47.987 1.07615 39.2175 9.84569L28.6646 20.3984C22.6016 16.3882 14.3366 17.05 9.00429 22.3822L0.921268 30.4392C-0.30099 31.6576 -0.304271 33.6361 0.914081 34.8583C1.52451 35.4708 2.32586 35.7771 3.12721 35.7771C3.92512 35.7771 4.72334 35.4733 5.33315 34.8655L13.4199 26.805C16.3002 23.9245 20.6038 23.3158 24.0876 24.9756L17.839 31.2242C14.1839 34.8792 14.1839 40.8265 17.839 44.4815L35.5154 62.1579C37.3429 63.9853 39.7435 64.899 42.144 64.899C44.5445 64.899 46.9451 63.9853 48.7728 62.1578L55.0253 55.9051C55.622 57.1516 55.9376 58.5254 55.9376 59.9481C55.9376 62.4521 54.9625 64.8062 53.1874 66.5812L45.1305 74.6699C43.9126 75.8926 43.9165 77.8711 45.1393 79.0889C45.7491 79.6964 46.5468 79.9998 47.3444 79.9998C48.1462 79.9998 48.9479 79.6931 49.5583 79.0802L57.611 70.9958C60.5621 68.0447 62.1873 64.1212 62.1873 59.9479C62.1873 56.8364 61.2834 53.8642 59.6006 51.3298L70.1512 40.7791C78.9208 32.0096 81.4692 18.931 76.8162 7.59945L79.0816 5.33429ZM65.7322 36.3602L53.1927 48.8997C53.1924 48.9 53.1923 48.9001 53.192 48.9004C53.1917 48.9006 53.1915 48.9009 53.1912 48.9012L44.3537 57.7387C43.1355 58.9569 41.153 58.9571 39.9345 57.7387L22.2582 40.0623C21.0399 38.844 21.0399 36.8616 22.2582 35.6431L43.6365 14.2648C50.7945 7.10667 61.5612 5.15852 70.7321 9.26464C74.8383 18.4357 72.89 29.2025 65.7322 36.3602Z" fill="#181818"/>
</g>
<defs>
<clipPath id="clip0_3674_1957">
<rect width="80" height="80" fill="white"/>
</clipPath>
</defs>
</svg>
