<svg width="70" height="70" viewBox="0 0 70 70" fill="none" xmlns="http://www.w3.org/2000/svg">
<g clip-path="url(#clip0_3674_2015)">
<path d="M25.4297 20.6445V10.9375C25.4297 6.40705 29.1024 2.73438 33.6328 2.73438H25.5664C21.036 2.73438 17.3633 6.40705 17.3633 10.9375V22.6953C17.3633 39.2383 35.1367 48.6719 35.1367 48.6719C35.1367 48.6719 38.2625 47.0602 41.8921 43.9495C37.7856 41.8627 25.4297 34.4389 25.4297 20.6445Z" fill="#FF8A00" fill-opacity="0.1"/>
<path d="M60.0195 6.83594C58.2477 6.83594 56.5821 7.3001 55.1381 8.11316C53.8899 3.44668 49.6251 0 44.5703 0H25.4297C20.3749 0 16.1101 3.44668 14.8619 8.11316C13.4179 7.3001 11.7523 6.83594 9.98047 6.83594C4.47727 6.83594 0 11.3132 0 16.8164C0 33.7837 9.72002 40.7479 10.6215 41.3569C12.3911 42.6006 14.9244 41.2835 14.9022 39.1014C14.9022 38.1444 14.4104 37.3022 13.666 36.8136C13.4881 36.689 11.5125 35.2674 9.56977 32.2524C6.84852 28.0295 5.46875 22.836 5.46875 16.8164C5.46875 14.3287 7.49273 12.3047 9.98047 12.3047C12.4682 12.3047 14.4922 14.3287 14.4922 16.8164V22.6953C14.1639 33.7229 23.0091 44.6894 32.2656 50.2354V57.6953C32.41 61.3233 37.5912 61.3205 37.7344 57.6953V50.254C47.1077 44.7438 55.8229 33.8455 55.5078 22.6953V16.8164C55.5078 14.3287 57.5318 12.3047 60.0195 12.3047C62.5073 12.3047 64.5312 14.3287 64.5312 16.8164C64.5312 22.836 63.1515 28.0295 60.4302 32.2525C58.4875 35.2674 56.5117 36.6892 56.334 36.8137C55.5894 37.3023 55.0977 38.1445 55.0977 39.1016C55.0754 41.2837 57.6097 42.6007 59.3785 41.3569C60.28 40.7479 70 33.7837 70 16.8164C70 11.3132 65.5227 6.83594 60.0195 6.83594ZM50.0391 22.6953C50.3584 31.9059 42.6966 40.9324 35.0167 45.503C27.3995 40.8652 19.6468 31.8144 19.9609 22.6953V10.9375C19.9609 7.92203 22.4142 5.46875 25.4297 5.46875H44.5703C47.5858 5.46875 50.0391 7.92203 50.0391 10.9375V22.6953Z" fill="#FF8A00"/>
<path d="M48.6721 70H21.3283C17.7004 69.8556 17.7031 64.6744 21.3283 64.5312H48.6721C52.3001 64.6756 52.2973 69.8569 48.6721 70ZM44.5705 15.1758C44.5705 13.6656 43.3464 12.4414 41.8362 12.4414H28.1643C24.5363 12.5858 24.5391 17.767 28.1643 17.9102H41.8362C43.3464 17.9102 44.5705 16.686 44.5705 15.1758Z" fill="white"/>
</g>
<defs>
<clipPath id="clip0_3674_2015">
<rect width="70" height="70" fill="white"/>
</clipPath>
</defs>
</svg>
