<svg width="70" height="70" viewBox="0 0 70 70" fill="none" xmlns="http://www.w3.org/2000/svg">
<g clip-path="url(#clip0_3673_855)">
<path d="M61.0169 8.43322C59.949 7.36536 58.2178 7.36536 57.1501 8.43322L53.2833 12.3C52.2155 13.3679 52.2155 15.0991 53.2833 16.1668C54.3512 17.2346 56.0824 17.2346 57.1501 16.1668L61.0169 12.3C62.0847 11.2323 62.0847 9.50095 61.0169 8.43322Z" fill="#181818"/>
<path d="M48.04 0.165591C46.6212 -0.350773 45.052 0.380777 44.5355 1.79985L42.6652 6.93861C42.1487 8.35755 42.8803 9.9266 44.2994 10.4431C45.7184 10.9596 47.2874 10.2279 47.8039 8.80884L49.6743 3.67008C50.1906 2.25114 49.459 0.682091 48.04 0.165591Z" fill="#181818"/>
<path d="M65.7799 19.7759L60.6411 21.6463C59.2222 22.1628 58.4905 23.7319 59.0069 25.1508C59.5232 26.5699 61.0923 27.3013 62.5114 26.7851L67.6501 24.9147C69.0691 24.3982 69.8008 22.8291 69.2844 21.4102C68.7679 19.9911 67.1991 19.2596 65.7799 19.7759Z" fill="#181818"/>
<path d="M33.9494 4.56603C32.8815 3.49817 31.1503 3.49817 30.0826 4.56603C29.0149 5.6339 29.0147 7.36509 30.0826 8.43281C31.6319 9.98218 32.4852 12.042 32.4852 14.233C32.4852 16.4239 31.6319 18.4839 30.0848 20.031L16.1603 33.9238C15.0914 34.9905 15.0893 36.7217 16.1559 37.7906C17.2226 38.8597 18.9539 38.8616 20.0227 37.795L33.9495 23.8999C36.0696 21.7799 37.4076 19.086 37.8186 16.1687L53.2812 31.6313C50.3639 32.0423 47.6702 33.3801 45.5512 35.4992L20.0249 60.9938C16.8266 64.1919 11.6228 64.192 8.42443 60.9938C5.21852 57.7878 5.21852 52.5992 8.42443 49.3933L10.3578 47.4598L16.1581 53.2601C17.226 54.3279 18.9572 54.3279 20.0249 53.2601C21.0926 52.1922 21.0928 50.461 20.0249 49.3933L12.2912 41.6596C11.7785 41.1468 11.0829 40.8587 10.3578 40.8587C9.63269 40.8587 8.9371 41.1468 8.42443 41.6596L4.55765 45.5265C-0.785492 50.8695 -0.785492 59.5175 4.55765 64.8605C9.24962 69.5525 16.485 70.0914 21.764 66.5997L21.9583 66.7939C26.2327 71.0684 33.1511 71.0684 37.4255 66.7939L41.2925 62.9271C45.5531 58.6664 45.5564 51.7361 41.303 47.471L49.4167 39.3672C50.9661 37.8178 53.026 36.9646 55.2169 36.9646C57.408 36.9646 59.4679 37.8178 61.0172 39.3672C62.0851 40.435 63.8163 40.435 64.884 39.3672C65.9517 38.2993 65.9519 36.5681 64.884 35.5004L33.9494 4.56603ZM37.4255 59.0604L33.5586 62.9271C31.4218 65.064 27.9638 65.0645 25.8263 62.9284L37.4338 51.3354C39.5574 53.4681 39.5548 56.9309 37.4255 59.0604Z" fill="#181818"/>
</g>
<defs>
<clipPath id="clip0_3673_855">
<rect width="70" height="70" fill="white"/>
</clipPath>
</defs>
</svg>
