<svg width="15" height="14" viewBox="0 0 15 14" fill="none" xmlns="http://www.w3.org/2000/svg">
<path fill-rule="evenodd" clip-rule="evenodd" d="M3.18292 7.89744C6.23028 7.89744 6.36584 8.88821 6.36584 10.9487C6.36584 11.9811 6.36584 12.7156 5.91349 13.2533C5.39299 13.8729 4.4456 14 3.18292 14C1.92024 14 0.97285 13.8729 0.452349 13.2533C0 12.7156 0 11.9818 0 10.9667L0.561692 10.9487H0C0 8.88821 0.135555 7.89744 3.18292 7.89744ZM11.4211 7.89744C14.4684 7.89744 14.604 8.88821 14.604 10.9487C14.604 11.9811 14.604 12.7156 14.1516 13.2533C13.6311 13.8729 12.6837 14 11.4211 14C10.1584 14 9.211 13.8729 8.69049 13.2533C8.23815 12.7156 8.23815 11.9818 8.23815 10.9667L8.79984 10.9487H8.23815C8.23815 8.88821 8.3737 7.89744 11.4211 7.89744ZM3.33732 8.97468L3.18292 8.97436C1.229 8.97436 1.1288 9.10877 1.12366 10.681L1.12398 11.2935C1.12753 11.9188 1.15238 12.3705 1.32634 12.5785C1.52481 12.8139 2.11421 12.9231 3.18292 12.9231C4.25163 12.9231 4.84103 12.8132 5.0395 12.5777C5.24246 12.3358 5.24246 11.7614 5.24246 10.9659C5.24246 9.17093 5.24246 8.98313 3.33732 8.97468ZM11.5755 8.97468L11.4211 8.97436C9.46715 8.97436 9.36695 9.10877 9.36181 10.681L9.36212 11.2935C9.36567 11.9188 9.39052 12.3705 9.56449 12.5785C9.76295 12.8139 10.3524 12.9231 11.4211 12.9231C12.4898 12.9231 13.0792 12.8132 13.2776 12.5777C13.4806 12.3358 13.4806 11.7614 13.4806 10.9659C13.4806 9.17093 13.4806 8.98313 11.5755 8.97468ZM3.18292 0C6.23028 0 6.36584 0.990769 6.36584 3.05128C6.36584 4.08369 6.36584 4.81815 5.91349 5.3559C5.39299 5.97549 4.4456 6.10256 3.18292 6.10256C1.92024 6.10256 0.97285 5.97549 0.452349 5.3559C0 4.81815 0 4.08441 0 3.06923L0.561692 3.05128H0C0 0.990769 0.135555 0 3.18292 0ZM11.4211 0C14.4684 0 14.604 0.990769 14.604 3.05128C14.604 4.08369 14.604 4.81815 14.1516 5.3559C13.6311 5.97549 12.6837 6.10256 11.4211 6.10256C10.1584 6.10256 9.211 5.97549 8.69049 5.3559C8.23815 4.81815 8.23815 4.08441 8.23815 3.06923L8.79984 3.05128H8.23815C8.23815 0.990769 8.3737 0 11.4211 0ZM3.33732 1.07724L3.18292 1.07692C1.229 1.07692 1.1288 1.21133 1.12366 2.78352L1.12398 3.39603C1.12753 4.02133 1.15238 4.47303 1.32634 4.68103C1.52481 4.91651 2.11421 5.02564 3.18292 5.02564C4.25163 5.02564 4.84103 4.91579 5.0395 4.68031C5.24246 4.43836 5.24246 3.864 5.24246 3.06851C5.24246 1.27349 5.24246 1.08569 3.33732 1.07724ZM11.5755 1.07724L11.4211 1.07692C9.46715 1.07692 9.36695 1.21133 9.36181 2.78352L9.36212 3.39603C9.36567 4.02133 9.39052 4.47303 9.56449 4.68103C9.76295 4.91651 10.3524 5.02564 11.4211 5.02564C12.4898 5.02564 13.0792 4.91579 13.2776 4.68031C13.4806 4.43836 13.4806 3.864 13.4806 3.06851C13.4806 1.27349 13.4806 1.08569 11.5755 1.07724Z" fill="#FF8A00"/>
</svg>
