<svg width="70" height="70" viewBox="0 0 70 70" fill="none" xmlns="http://www.w3.org/2000/svg">
<g clip-path="url(#clip0_3673_864)">
<path d="M34.4458 48.1216C35.956 48.1216 37.1802 46.8974 37.1802 45.3872C37.1802 43.8771 35.956 42.6528 34.4458 42.6528C32.9356 42.6528 31.7114 43.8771 31.7114 45.3872C31.7114 46.8974 32.9356 48.1216 34.4458 48.1216Z" fill="#181818"/>
<path d="M45.3833 48.1216C46.8935 48.1216 48.1177 46.8974 48.1177 45.3872C48.1177 43.8771 46.8935 42.6528 45.3833 42.6528C43.8731 42.6528 42.6489 43.8771 42.6489 45.3872C42.6489 46.8974 43.8731 48.1216 45.3833 48.1216Z" fill="#181818"/>
<path d="M56.3208 48.1216C57.831 48.1216 59.0552 46.8974 59.0552 45.3872C59.0552 43.8771 57.831 42.6528 56.3208 42.6528C54.8106 42.6528 53.5864 43.8771 53.5864 45.3872C53.5864 46.8974 54.8106 48.1216 56.3208 48.1216Z" fill="#181818"/>
<path d="M1.02865 38.9128C0.329609 43.8024 4.10496 48.2791 9.1641 48.2791C10.1263 48.2791 10.4683 48.153 14.1187 47.6539C15.6137 47.4403 16.6525 46.0552 16.4388 44.5602C16.2252 43.0652 14.8389 42.0261 13.3452 42.2401L9.53926 42.7838C7.7291 43.0425 6.18336 41.4981 6.4423 39.6866L7.28545 33.785C7.3575 33.2809 7.28736 32.7668 7.08297 32.3006C1.48857 19.5364 10.9296 5.46875 24.6133 5.46875C31.7045 5.46875 37.9413 9.32203 41.2575 15.1465C42.0045 16.4589 43.6742 16.9168 44.9865 16.1697C46.299 15.4226 46.757 13.7529 46.0097 12.4406C41.7626 4.98121 33.7751 0 24.6133 0C12.4955 0 2.46393 8.72375 0.396191 20.2416C-0.425078 24.8166 0.0487887 29.4722 1.76502 33.7583L1.02865 38.9128Z" fill="#181818"/>
<path d="M45.383 20.7778C38.8095 20.7778 32.6296 23.3376 27.9816 27.9858C18.3864 37.581 18.3864 53.1934 27.9816 62.7888C32.7324 67.5395 39.004 70.0001 45.4051 70.0001C48.524 70.0001 51.6138 69.4075 54.5319 68.2389L59.6864 68.9753C65.0917 69.7484 69.7453 65.1051 68.9712 59.6909L68.2346 54.5362C69.9509 50.25 70.4249 45.5945 69.6037 41.0195C67.538 29.5136 57.5121 20.7778 45.383 20.7778ZM62.7141 54.5628L63.5574 60.4646C63.8161 62.2748 62.2712 63.8204 60.4602 63.5616L54.5586 62.7185C54.0548 62.6466 53.5406 62.7166 53.0741 62.921C50.5719 64.0177 47.9456 64.5516 45.3467 64.5515C40.3895 64.5512 35.5346 62.6078 31.8485 58.9217C24.3856 51.4587 24.3856 39.3157 31.8485 31.8527C35.4636 28.2376 40.2704 26.2466 45.383 26.2466C59.0406 26.2466 68.5239 40.2858 62.9167 53.0783C62.7123 53.5447 62.6421 54.0589 62.7141 54.5628Z" fill="#181818"/>
</g>
<defs>
<clipPath id="clip0_3673_864">
<rect width="70" height="70" fill="white"/>
</clipPath>
</defs>
</svg>
