<svg width="80" height="80" viewBox="0 0 80 80" fill="none" xmlns="http://www.w3.org/2000/svg">
<path d="M44.6094 39.7452C33.993 38.12 25.8594 28.9163 25.8594 17.8053V3.125H16.4844V17.8055C16.4844 30.0631 26.3837 40 38.5953 40C26.3837 40 16.4844 49.9369 16.4844 62.1945V76.875H25.8594V62.1945C25.8594 51.0838 33.993 41.8798 44.6094 40.2547V39.7452Z" fill="#FF8A00" fill-opacity="0.4"/>
<path d="M69.6092 73.75H66.4842V62.1947C66.4842 52.6434 61.1851 44.3114 53.3823 40C61.1851 35.6886 66.4842 27.3567 66.4842 17.8053V6.25H69.6092C73.7326 6.10516 73.7648 0.158281 69.6092 0H10.3904C6.26682 0.145156 6.23495 6.09172 10.3904 6.25H13.3592V17.8053C13.3592 27.3566 18.6582 35.6886 26.461 40C18.6584 44.3114 13.3592 52.6434 13.3592 62.1947V73.75H10.3904C6.26386 73.8964 6.23761 79.8427 10.3904 80H69.6092C73.7296 79.8564 73.7676 73.9094 69.6092 73.75ZM19.6092 17.8053V6.25H60.2342V17.8053C60.2342 28.3203 51.7173 36.875 41.2484 36.875C29.6326 37.8498 19.7395 29.7136 19.6092 17.8053ZM19.6092 62.1947C19.7431 50.282 29.6292 42.1525 41.2484 43.1252C51.7173 43.125 60.2342 51.6797 60.2342 62.1947V73.75H19.6092V62.1947Z" fill="#181818"/>
<path d="M53.6719 21.4062C53.6719 23.1322 52.2728 24.5312 50.5469 24.5312H29.2969C27.5709 24.5312 26.1719 23.1322 26.1719 21.4062C26.1719 19.6803 27.5709 18.2812 29.2969 18.2812H50.5469C52.2728 18.2812 53.6719 19.6803 53.6719 21.4062ZM40.0781 48.75C37.9208 48.75 36.1719 50.4989 36.1719 52.6562C36.3633 57.8322 43.7938 57.8308 43.9844 52.6562C43.9844 50.4989 42.2355 48.75 40.0781 48.75ZM39.9219 60.9375C37.7645 60.9375 36.0156 62.6864 36.0156 64.8438C36.207 70.0197 43.6375 70.0183 43.8281 64.8438C43.8281 62.6864 42.0792 60.9375 39.9219 60.9375Z" fill="#FF8A00"/>
</svg>
