<svg width="80" height="80" viewBox="0 0 80 80" fill="none" xmlns="http://www.w3.org/2000/svg">
<path d="M17.1973 36.1012C15.7656 34.9559 14.8486 33.1942 14.8486 31.2181C14.8486 30.215 15.0852 29.2669 15.5052 28.4267L21.7552 15.9267C21.9186 15.5997 22.1128 15.2912 22.3289 15H15.625C13.1764 15 11.0569 16.4081 10.0316 18.4586L3.78156 30.9586C3.36156 31.7987 3.125 32.7469 3.125 33.75C3.125 35.7259 4.04203 37.4877 5.47375 38.6331L36.0988 63.6331C37.168 64.4884 38.5241 65 40 65C41.4759 65 42.832 64.4884 43.9012 63.6331L47.4127 60.7667L17.1973 36.1012Z" fill="#FF8A00" fill-opacity="0.4"/>
<path d="M76.875 61.25H73.75V58.125C73.75 56.3991 72.3509 55 70.625 55C68.8991 55 67.5 56.3991 67.5 58.125V61.25H64.375C62.6491 61.25 61.25 62.6491 61.25 64.375C61.25 66.1009 62.6491 67.5 64.375 67.5H67.5V70.625C67.5 72.3509 68.8991 73.75 70.625 73.75C72.3509 73.75 73.75 72.3509 73.75 70.625V67.5H76.875C78.6009 67.5 80 66.1009 80 64.375C80 62.6491 78.6009 61.25 76.875 61.25Z" fill="#FF8A00"/>
<path d="M58.125 80C59.8509 80 61.25 78.6009 61.25 76.875C61.25 75.1491 59.8509 73.75 58.125 73.75C56.3991 73.75 55 75.1491 55 76.875C55 78.6009 56.3991 80 58.125 80Z" fill="#FF8A00"/>
<path d="M8.75 6.25C10.4759 6.25 11.875 4.85089 11.875 3.125C11.875 1.39911 10.4759 0 8.75 0C7.02411 0 5.625 1.39911 5.625 3.125C5.625 4.85089 7.02411 6.25 8.75 6.25Z" fill="#FF8A00"/>
<path d="M72.7636 17.0609C71.1639 13.8622 67.9495 11.875 64.375 11.875H15.625C12.0505 11.875 8.83609 13.8622 7.23641 17.0611L0.986406 29.5613C0.341094 30.852 0 32.3005 0 33.75C0 36.6077 1.27813 39.2716 3.50734 41.062L34.1225 66.0539C34.1305 66.0605 34.1386 66.0669 34.1466 66.0734C35.8006 67.3964 37.8792 68.125 40 68.125C42.1208 68.125 44.1994 67.3964 45.8533 66.0734C45.8614 66.0669 45.8694 66.0605 45.8773 66.0539L76.4925 41.062C78.7219 39.2716 80 36.6077 80 33.75C80 32.3005 79.6589 30.852 79.0136 29.5611L72.7636 17.0609ZM72.5741 36.193C72.5659 36.1994 72.558 36.2059 72.5502 36.2123L41.9402 61.2C41.55 61.5097 40.8991 61.875 40 61.875C39.1009 61.875 38.4498 61.5097 38.0598 61.2L7.44984 36.2123C7.44187 36.2058 7.43391 36.1994 7.42594 36.193C6.67859 35.595 6.25 34.7047 6.25 33.75C6.25 33.2586 6.36 32.7897 6.57656 32.3563L12.8266 19.8564C13.3605 18.7884 14.4328 18.125 15.625 18.125H64.375C65.5672 18.125 66.6395 18.7884 67.1734 19.8563L73.4234 32.3561C73.6402 32.7897 73.7502 33.2588 73.7502 33.7502C73.75 34.7047 73.3214 35.595 72.5741 36.193Z" fill="#181818"/>
<path d="M57.7615 24.5354L39.9998 30.456L22.2381 24.5354C20.6006 23.9893 18.8309 24.8743 18.2852 26.5118C17.7395 28.1491 18.6243 29.919 20.2616 30.4646L36.8748 36.0024V52.5001C36.8748 54.226 38.2738 55.6251 39.9998 55.6251C41.7257 55.6251 43.1248 54.226 43.1248 52.5001V36.0024L59.7381 30.4648C61.3754 29.919 62.2602 28.1493 61.7145 26.5119C61.1687 24.8744 59.399 23.9896 57.7615 24.5354Z" fill="#181818"/>
</svg>
