<svg width="70" height="70" viewBox="0 0 70 70" fill="none" xmlns="http://www.w3.org/2000/svg">
<g clip-path="url(#clip0_3673_873)">
<path d="M67.2656 59.0625H56.3281C54.8179 59.0625 53.5938 60.2867 53.5938 61.7969C53.5938 63.3071 54.8179 64.5312 56.3281 64.5312H67.2656C68.7758 64.5312 70 63.3071 70 61.7969C70 60.2867 68.7758 59.0625 67.2656 59.0625Z" fill="#181818"/>
<path d="M39.9219 53.5938C36.3572 53.5938 33.318 55.88 32.1891 59.0625H2.73438C1.22418 59.0625 0 60.2867 0 61.7969C0 63.3071 1.22418 64.5312 2.73438 64.5312H32.1891C33.3178 67.7138 36.3572 70 39.9219 70C44.4451 70 48.125 66.3201 48.125 61.7969C48.125 57.2737 44.4451 53.5938 39.9219 53.5938ZM39.9219 64.5312C38.4141 64.5312 37.1875 63.3046 37.1875 61.7969C37.1875 60.2891 38.4141 59.0625 39.9219 59.0625C41.4296 59.0625 42.6562 60.2891 42.6562 61.7969C42.6562 63.3046 41.4296 64.5312 39.9219 64.5312Z" fill="#181818"/>
<path d="M56.3281 49.2188H13.6719C6.1332 49.2188 0 43.0855 0 35.5469V13.6719C0 6.1332 6.1332 0 13.6719 0H56.3281C63.8668 0 70 6.1332 70 13.6719V35.5469C70 43.0855 63.8668 49.2188 56.3281 49.2188ZM13.6719 5.46875C9.14867 5.46875 5.46875 9.14867 5.46875 13.6719V35.5469C5.46875 40.0701 9.14867 43.75 13.6719 43.75H56.3281C60.8513 43.75 64.5312 40.0701 64.5312 35.5469V13.6719C64.5312 9.14867 60.8513 5.46875 56.3281 5.46875H13.6719Z" fill="#181818"/>
<path d="M24.6094 38.2812C23.0992 38.2812 21.875 37.0571 21.875 35.5469C21.875 31.0237 18.1951 27.3438 13.6719 27.3438C12.1617 27.3438 10.9375 26.1196 10.9375 24.6094C10.9375 23.0992 12.1617 21.875 13.6719 21.875C17.825 21.875 21.5517 23.7367 24.0613 26.6689C27.2664 20.5732 33.6637 16.4062 41.0156 16.4062H45.3906C46.9008 16.4062 48.125 17.6304 48.125 19.1406C48.125 20.6508 46.9008 21.875 45.3906 21.875H41.0156C33.477 21.875 27.3438 28.0082 27.3438 35.5469C27.3438 37.0571 26.1196 38.2812 24.6094 38.2812Z" fill="#181818"/>
<path d="M50.8594 27.3438C46.3362 27.3438 42.6562 23.6638 42.6562 19.1406C42.6562 14.6174 46.3362 10.9375 50.8594 10.9375C55.3826 10.9375 59.0625 14.6174 59.0625 19.1406C59.0625 23.6638 55.3826 27.3438 50.8594 27.3438ZM50.8594 16.4062C49.3516 16.4062 48.125 17.6329 48.125 19.1406C48.125 20.6484 49.3516 21.875 50.8594 21.875C52.3671 21.875 53.5938 20.6484 53.5938 19.1406C53.5938 17.6329 52.3671 16.4062 50.8594 16.4062Z" fill="#181818"/>
</g>
<defs>
<clipPath id="clip0_3673_873">
<rect width="70" height="70" fill="white"/>
</clipPath>
</defs>
</svg>
