<svg width="36" height="36" viewBox="0 0 36 36" fill="none" xmlns="http://www.w3.org/2000/svg">
<g clip-path="url(#clip0_3680_895)">
<path d="M18.0703 16.875C17.4878 16.875 17.0156 16.5435 17.0156 15.9609V1.05469C17.0156 0.472137 17.4878 0.140625 18.0703 0.140625C18.6529 0.140625 19.125 0.472137 19.125 1.05469V15.9609C19.125 16.5435 18.6529 16.875 18.0703 16.875Z" fill="#777C90"/>
<path d="M32.8359 21.2345C31.9608 21.2345 31.1171 21.6017 30.5203 22.2422L27.4205 25.57C27.0197 24.2819 25.8167 23.3439 24.3984 23.3439H16.7569C16.5003 23.3439 16.2529 23.2505 16.06 23.0811L15.5648 22.6452C14.216 21.4584 12.459 20.8047 10.6171 20.8047C8.77529 20.8047 7.0183 21.4584 5.66945 22.6452C5.42995 22.8558 5.15831 23.0231 4.86223 23.142C4.3217 23.359 4.0594 23.9731 4.27638 24.5137C4.49336 25.0542 5.1075 25.3165 5.6483 25.0995C6.16713 24.8911 6.64311 24.598 7.06307 24.2286C9.05599 22.4746 12.1783 22.4749 14.1712 24.2286L14.6664 24.6645C15.2446 25.1731 15.987 25.4533 16.7569 25.4533H24.3984C24.9798 25.4533 25.4531 25.9265 25.4531 26.508C25.4531 27.0894 24.9798 27.5627 24.3984 27.5627H15.9609C15.3783 27.5627 14.9062 28.0348 14.9062 28.6173C14.9062 29.1999 15.3783 29.672 15.9609 29.672H25.1054C25.9802 29.672 26.8242 29.3048 27.4205 28.6646L32.0638 23.6801C32.2657 23.4634 32.5398 23.3439 32.8359 23.3439C33.4173 23.3439 33.8906 23.8171 33.8906 24.3986C33.8906 24.6288 33.8181 24.8471 33.6807 25.0303L28.6171 31.7814C27.6265 33.1022 26.0494 33.8908 24.3984 33.8908H5.27339C4.69084 33.8908 4.21871 34.3629 4.21871 34.9455C4.21871 35.528 4.69084 36.0002 5.27339 36.0002H24.3984C26.7099 36.0002 28.9176 34.8963 30.3046 33.047L35.368 26.2959C35.7816 25.745 36 25.0888 36 24.3986C36 22.654 34.5805 21.2345 32.8359 21.2345Z" fill="#FF8A00"/>
<path d="M5.27344 36H1.05469C0.472137 36 0 35.5279 0 34.9453V22.2891C0 21.7065 0.472137 21.2344 1.05469 21.2344H3.16406C4.90869 21.2344 6.32812 22.6538 6.32812 24.3984V34.9453C6.32812 35.5279 5.85599 36 5.27344 36ZM2.10938 33.8906H4.21875V24.3984C4.21875 23.817 3.74551 23.3438 3.16406 23.3438H2.10938V33.8906Z" fill="#181818"/>
<path d="M30.7266 21.2344H15.9609C15.3784 21.2344 14.9062 20.7622 14.9062 20.1797C14.9062 19.5971 15.3784 19.125 15.9609 19.125H29.6719V2.10938H15.9609C15.3795 2.10938 14.9062 2.58261 14.9062 3.16406V18.0703C14.9062 18.6529 14.4341 19.125 13.8516 19.125C13.269 19.125 12.7969 18.6529 12.7969 18.0703V3.16406C12.7969 1.41943 14.2163 0 15.9609 0H30.7266C31.3091 0 31.7812 0.472137 31.7812 1.05469V20.1797C31.7812 20.7622 31.3091 21.2344 30.7266 21.2344Z" fill="#181818"/>
<path d="M26.5081 8.4375C26.2334 8.4375 25.9637 8.33038 25.7621 8.12851L24.3984 6.76511L23.0348 8.12851C22.7332 8.43036 22.2794 8.52045 21.8853 8.3573C21.4912 8.19388 21.2344 7.80936 21.2344 7.38281V1.05469C21.2344 0.472137 21.7065 0 22.2891 0H26.5078C27.0904 0 27.5625 0.472137 27.5625 1.05469V7.38281C27.5625 7.80936 27.3054 8.19388 26.9113 8.3573C26.7811 8.41141 26.644 8.4375 26.5081 8.4375ZM24.3984 4.21875C24.6684 4.21875 24.9384 4.32175 25.1441 4.52774L25.4531 4.83646V2.10938H23.3438V4.83646L23.6527 4.52774C23.8585 4.32175 24.1284 4.21875 24.3984 4.21875Z" fill="#FF8A00"/>
<path d="M30.7266 21.2344H15.9609C14.2163 21.2344 12.7969 19.8149 12.7969 18.0703C12.7969 16.3257 14.2163 14.9062 15.9609 14.9062H30.7266C31.3091 14.9062 31.7812 15.3784 31.7812 15.9609V20.1797C31.7812 20.7622 31.3091 21.2344 30.7266 21.2344ZM15.9609 17.0156C15.3795 17.0156 14.9062 17.4889 14.9062 18.0703C14.9062 18.6518 15.3795 19.125 15.9609 19.125H29.6719V17.0156H15.9609Z" fill="#777C90"/>
</g>
<defs>
<clipPath id="clip0_3680_895">
<rect width="36" height="36" fill="white"/>
</clipPath>
</defs>
</svg>
