<svg width="36" height="36" viewBox="0 0 36 36" fill="none" xmlns="http://www.w3.org/2000/svg">
<g clip-path="url(#clip0_3680_939)">
<path d="M17.967 21.4615C17.7876 21.4615 17.6083 21.4151 17.4476 21.3223L9.05377 16.4762C8.7327 16.2908 8.53467 15.948 8.53467 15.577V5.88455C8.53467 5.51349 8.7327 5.17072 9.05377 4.98532L17.4476 0.139252C17.769 -0.0464172 18.1647 -0.0464172 18.4861 0.139252L26.8799 4.98532C27.2013 5.17072 27.399 5.51349 27.399 5.88455V15.577C27.399 15.948 27.2013 16.2908 26.8799 16.4762L18.4861 21.3223C18.3254 21.4151 18.1461 21.4615 17.967 21.4615ZM10.6116 14.9774L17.967 19.2239L25.3221 14.9774V6.48413L17.967 2.23764L10.6116 6.48413V14.9774Z" fill="#FF8A00" fill-opacity="0.3"/>
<path d="M17.9669 16.6652C17.7875 16.6652 17.6082 16.6188 17.4475 16.5259L13.2076 14.0779C12.8862 13.8925 12.6885 13.5497 12.6885 13.1787V8.2829C12.6885 7.91183 12.8862 7.56906 13.2076 7.38367L17.4475 4.93564C17.7688 4.74997 18.1646 4.74997 18.486 4.93564L22.7259 7.38367C23.0472 7.56906 23.245 7.91183 23.245 8.2829V13.1787C23.245 13.5497 23.0472 13.8925 22.7259 14.0779L18.486 16.5259C18.3253 16.6188 18.1459 16.6652 17.9669 16.6652ZM14.7652 12.5791L17.9669 14.4276L21.1683 12.5791V8.88248L17.9669 7.03403L14.7652 8.88248V12.5791Z" fill="#FF8A00"/>
<path d="M26.3603 36.0001C26.1809 36.0001 26.0018 35.9537 25.8412 35.8608L17.4473 31.0148C17.126 30.8294 16.9282 30.4866 16.9282 30.1155V20.4231C16.9282 20.0521 17.126 19.7093 17.4473 19.5239L25.8412 14.6778C26.1625 14.4922 26.5583 14.4922 26.8796 14.6778L35.2735 19.5239C35.5945 19.7093 35.7926 20.0521 35.7926 20.4231V30.1155C35.7926 30.4866 35.5945 30.8294 35.2735 31.0148L26.8796 35.8608C26.719 35.9537 26.5396 36.0001 26.3603 36.0001ZM19.0049 29.516L26.3603 33.7625L33.7156 29.516V21.0227L26.3603 16.7762L19.0049 21.0227V29.516Z" fill="#FF8A00"/>
<path d="M26.3604 31.2038C26.1811 31.2038 26.002 31.1573 25.8413 31.0645L21.6014 28.6165C21.2801 28.4311 21.082 28.0883 21.082 27.7173V22.8215C21.082 22.4504 21.2801 22.1076 21.6014 21.9222L25.8413 19.4742C26.1627 19.2885 26.5584 19.2885 26.8798 19.4742L31.1197 21.9222C31.441 22.1076 31.6388 22.4504 31.6388 22.8215V27.7173C31.6388 28.0883 31.441 28.4311 31.1197 28.6165L26.8798 31.0645C26.7191 31.1573 26.5398 31.2038 26.3604 31.2038ZM23.159 27.1177L26.3604 28.9661L29.5621 27.1177V23.4211L26.3604 21.5726L23.159 23.4211V27.1177Z" fill="#FF8A00" fill-opacity="0.3"/>
<path d="M9.57294 36.0001C9.39359 36.0001 9.21423 35.9537 9.05356 35.8608L0.659729 31.0148C0.338654 30.8294 0.140625 30.4866 0.140625 30.1155V20.4231C0.140625 20.0521 0.338654 19.7093 0.659729 19.5239L9.05356 14.6778C9.37491 14.4922 9.77097 14.4922 10.092 14.6778L18.4859 19.5239C18.8072 19.7093 19.005 20.0521 19.005 20.4231V30.1155C19.005 30.4866 18.8072 30.8294 18.4859 31.0148L10.092 35.8608C9.93164 35.9537 9.75229 36.0001 9.57294 36.0001ZM2.21759 29.516L9.57294 33.7625L16.9283 29.516V21.0227L9.57294 16.7762L2.21759 21.0227V29.516Z" fill="#181818"/>
<path d="M9.57281 31.2038C9.39346 31.2038 9.21411 31.1573 9.05344 31.0645L4.81354 28.6165C4.49219 28.4311 4.29443 28.0883 4.29443 27.7173V22.8215C4.29443 22.4504 4.49219 22.1076 4.81354 21.9222L9.05344 19.4742C9.37479 19.2885 9.77084 19.2885 10.0919 19.4742L14.3318 21.9222C14.6532 22.1076 14.8512 22.4504 14.8512 22.8215V27.7173C14.8512 28.0883 14.6532 28.4311 14.3318 28.6165L10.0919 31.0645C9.93152 31.1573 9.75217 31.2038 9.57281 31.2038ZM6.3714 27.1177L9.57281 28.9661L12.7742 27.1177V23.4211L9.57281 21.5726L6.3714 23.4211V27.1177Z" fill="#FF8A00" fill-opacity="0.3"/>
</g>
<defs>
<clipPath id="clip0_3680_939">
<rect width="36" height="36" fill="white"/>
</clipPath>
</defs>
</svg>
