<svg width="70" height="70" viewBox="0 0 70 70" fill="none" xmlns="http://www.w3.org/2000/svg">
<g clip-path="url(#clip0_3673_840)">
<path d="M18.1917 69.9993H16.4144C7.36807 69.9993 0.00830078 62.6395 0.00830078 53.5932V16.4061C0.00830078 7.35977 7.36807 0 16.4144 0H41.5704C50.6167 0 57.9765 7.35977 57.9765 16.4061V34.9997C57.8421 38.6238 52.6409 38.621 52.5078 34.9997V16.4061C52.5078 10.3752 47.6013 5.4687 41.5704 5.4687H16.4144C10.3835 5.4687 5.477 10.3752 5.477 16.4061V53.5932C5.477 59.6241 10.3835 64.5306 16.4144 64.5306H18.1917C21.8158 64.665 21.8131 69.8661 18.1917 69.9993ZM46.9024 25.156C46.9024 23.6458 45.6782 22.4217 44.168 22.4217H39.5196C37.2581 22.4217 35.4181 20.5817 35.4181 18.3201V13.6717C35.2837 10.0476 30.0826 10.0504 29.9494 13.6717V18.3201C29.9494 23.5972 34.2426 27.8904 39.5196 27.8904H44.168C45.6782 27.8904 46.9024 26.6662 46.9024 25.156Z" fill="#181818"/>
<path d="M58.5234 69.9992C57.8163 69.9992 57.1096 69.7266 56.5744 69.1829C55.5151 68.1065 55.529 66.3752 56.6053 65.3161L63.7468 58.2877C64.7978 57.2764 64.7955 55.4671 63.7416 54.4585L56.5921 47.3259C55.523 46.2593 55.521 44.5281 56.5875 43.4589C57.6544 42.3898 59.3857 42.3879 60.4544 43.4544L67.6032 50.5864C70.7879 53.6325 70.7875 59.1194 67.6027 62.1657C67.5984 62.1698 67.5942 62.1741 67.5901 62.1782L60.4413 69.2138C59.9088 69.7378 59.2157 69.9992 58.5234 69.9992ZM35.0427 69.1829C36.102 68.1065 36.0881 66.3752 35.0118 65.3161L27.8703 58.2877C26.819 57.2759 26.8215 55.4671 27.8761 54.4579L35.025 47.3259C36.0941 46.2593 36.0961 44.5281 35.0296 43.4589C33.9627 42.3898 32.2314 42.3879 31.1627 43.4544L24.0144 50.5857C20.829 53.6326 20.8293 59.1188 24.0144 62.1657C24.0187 62.1698 24.0229 62.1741 24.027 62.1782L31.1758 69.2138C31.7085 69.7379 32.4012 69.9993 33.0937 69.9993C33.8008 69.9992 34.5076 69.7266 35.0427 69.1829ZM45.292 68.0204L51.581 46.1456C51.9983 44.6942 51.1599 43.1794 49.7087 42.7621C48.2576 42.3444 46.7426 43.183 46.3252 44.6344L40.0362 66.5092C39.6189 67.9606 40.4573 69.4754 41.9085 69.8927C42.1611 69.9653 42.4152 69.9999 42.6654 69.9999C43.8535 69.9999 44.9472 69.2192 45.292 68.0204Z" fill="#181818"/>
</g>
<defs>
<clipPath id="clip0_3673_840">
<rect width="70" height="70" fill="white"/>
</clipPath>
</defs>
</svg>
