<svg width="70" height="70" viewBox="0 0 70 70" fill="none" xmlns="http://www.w3.org/2000/svg">
<g clip-path="url(#clip0_3674_2005)">
<path d="M18.0469 53.0469H9.84375C5.91732 53.0469 2.73438 49.8639 2.73438 45.9375V2.73438C2.73438 6.6608 5.91732 9.84375 9.84375 9.84375H10.9375V45.9375C10.9375 49.8639 14.1204 53.0469 18.0469 53.0469ZM48.5965 28.0062L51.1772 16.3156C51.8368 13.016 53.4584 9.98553 55.8377 7.60607L60.6787 2.76514C58.6113 2.57715 56.4785 3.274 54.8957 4.85666L46.541 13.2114C44.1617 15.5907 42.54 18.6212 41.8805 21.9209L40.332 29.668C40.332 29.668 48.4247 28.0461 48.5965 28.0062Z" fill="#FF8A00" fill-opacity="0.1"/>
<path d="M67.2656 25.8398C65.7554 25.8398 64.5312 27.064 64.5312 28.5742V51.3417C63.2123 50.6844 61.7273 50.3125 60.1562 50.3125H9.84375C7.43135 50.3125 5.46875 48.3499 5.46875 45.9375V11.5515C6.78754 12.2084 8.27312 12.5781 9.84375 12.5781H35C36.5102 12.5781 37.7344 11.3539 37.7344 9.84375C37.7344 8.33356 36.5102 7.10938 35 7.10938H9.84375C7.43135 7.10938 5.46875 5.14678 5.46875 2.73438C5.46875 1.22418 4.24457 0 2.73438 0C1.22418 0 0 1.22418 0 2.73438V45.9375C0 51.3654 4.41588 55.7812 9.84375 55.7812H60.1562C62.5687 55.7812 64.5312 57.7438 64.5312 60.1562C64.5312 62.5687 62.5687 64.5312 60.1562 64.5312C59.0431 64.5312 57.9827 64.113 57.17 63.3538C56.0671 62.3228 54.3364 62.3813 53.3053 63.4847C52.2741 64.588 52.3328 66.3183 53.4361 67.3494C55.2653 69.0587 57.6518 70 60.1562 70C65.5841 70 70 65.5841 70 60.1562C70 60.0646 70 28.5742 70 28.5742C70 27.064 68.7758 25.8398 67.2656 25.8398Z" fill="#FF8A00"/>
<path d="M38.3986 31.6014C38.9166 32.1193 39.6141 32.4023 40.3322 32.4023C40.5103 32.4023 40.6898 32.3848 40.8681 32.3493L48.6151 30.8008C52.4569 30.0329 55.9517 28.1627 58.7222 25.3925L67.0768 17.0378C68.9619 15.1527 70.0001 12.6463 70.0001 9.98047C70.0001 7.31459 68.9619 4.80826 67.0768 2.92318C65.1917 1.03811 62.6854 0 60.0197 0C57.3538 0 54.8475 1.03811 52.9624 2.92318L44.6076 11.2779C41.8372 14.0483 39.9671 17.5433 39.1992 21.385L37.6507 29.132C37.4716 30.0284 37.7523 30.955 38.3986 31.6014ZM44.562 22.4569C45.1175 19.6775 46.4703 17.1492 48.4746 15.145L56.8293 6.79027C57.6815 5.93811 58.8146 5.46875 60.0197 5.46875C61.2247 5.46875 62.3578 5.93811 63.21 6.79027C64.062 7.6423 64.5314 8.77543 64.5314 9.98047C64.5314 11.1855 64.062 12.3186 63.2099 13.1707L54.8553 21.5254C52.851 23.5296 50.3226 24.8825 47.5434 25.438L43.8174 26.1827L44.562 22.4569Z" fill="#FF8A00"/>
<path d="M44.8438 44.4336H19.1406C17.6304 44.4336 16.4062 43.2094 16.4062 41.6992C16.4062 40.189 17.6304 38.9648 19.1406 38.9648H44.8438C46.3539 38.9648 47.5781 40.189 47.5781 41.6992C47.5781 43.2094 46.3539 44.4336 44.8438 44.4336ZM31.0352 31.4453C31.0352 29.9351 29.811 28.7109 28.3008 28.7109H19.1406C17.6304 28.7109 16.4062 29.9351 16.4062 31.4453C16.4062 32.9555 17.6304 34.1797 19.1406 34.1797H28.3008C29.811 34.1797 31.0352 32.9555 31.0352 31.4453Z" fill="white"/>
</g>
<defs>
<clipPath id="clip0_3674_2005">
<rect width="70" height="70" fill="white"/>
</clipPath>
</defs>
</svg>
