<svg width="70" height="70" viewBox="0 0 70 70" fill="none" xmlns="http://www.w3.org/2000/svg">
<g clip-path="url(#clip0_3674_2023)">
<path d="M39.8931 11.0912C39.8931 11.0912 40.6164 10.3949 41.7513 9.36653L40.0465 5.92992C37.9261 1.65552 31.7999 1.65552 29.6796 5.92992L26.2151 12.9142C25.3731 14.6116 23.7456 15.7881 21.8629 16.0603L14.1161 17.1802C9.37493 17.8657 7.48183 23.6626 10.9126 26.9898L16.5182 32.4263C17.8805 33.7475 18.5022 35.6511 18.1806 37.5168L16.8574 45.1932C16.0475 49.8913 21.0037 53.4739 25.2443 51.2558L29.1224 49.2274C28.4438 47.777 28.0087 46.8102 28.0087 46.8102C26.5518 47.5966 24.84 46.3253 25.1711 44.7031L25.7804 41.7182L26.2645 38.91C27.0467 34.372 25.5382 29.7468 22.2292 26.5377C21.4081 25.7413 21.8591 24.3489 22.9912 24.1852L23.0367 24.1787C27.5883 23.5208 31.5236 20.6723 33.5638 16.5593L34.8632 13.9397L36.1859 11.1475C36.9199 9.59799 39.1127 9.56422 39.8931 11.0912Z" fill="#FF8A00" fill-opacity="0.1"/>
<path d="M47.1806 54.6604C45.8294 54.6604 44.4711 54.3358 43.2149 53.6786L36.2859 50.0543C35.3952 49.5883 34.3317 49.5885 33.441 50.0543L26.5118 53.6786C20.37 56.9699 12.9173 51.5945 14.1629 44.7287L15.4863 37.0522C15.6544 36.0769 15.3286 35.0814 14.6149 34.389L9.00926 28.9525C3.94642 24.1291 6.80527 15.406 13.7252 14.474L21.4721 13.354C22.4657 13.2103 23.3233 12.5917 23.766 11.6991L27.2305 4.71484C30.2673 -1.55383 39.4614 -1.55164 42.4964 4.71484L45.9609 11.6989C46.4036 12.5916 47.2612 13.2103 48.2549 13.3539L56.0019 14.474C62.9242 15.4067 65.7789 24.1311 60.7177 28.9524L55.1121 34.3889C54.3983 35.0811 54.0725 36.0768 54.2407 37.0521L55.5641 44.7285C56.1151 47.9249 54.8257 51.0999 52.199 53.014C50.7013 54.1057 48.9471 54.6602 47.1806 54.6604ZM34.8633 5.45844C33.6753 5.45844 32.6532 6.08897 32.1294 7.14496L28.6649 14.1292C27.4233 16.632 25.027 18.3656 22.2544 18.7663L14.5075 19.8863C12.0486 20.1913 11.002 23.3297 12.8164 25.0269L18.422 30.4634C20.4333 32.414 21.3505 35.2244 20.8753 37.9811L19.5519 45.6575C19.3538 46.8062 19.8013 47.9042 20.7487 48.5946C21.7124 49.2969 22.9194 49.3859 23.977 48.8327L30.906 45.2084C33.3838 43.9122 36.3425 43.9122 38.8204 45.2084L45.7493 48.8327C46.8071 49.3859 48.0139 49.297 48.9777 48.5946C49.9251 47.904 50.3726 46.8062 50.1745 45.6575L48.8511 37.9811C48.3759 35.2244 49.2931 32.414 51.3045 30.4634L56.91 25.0269C58.7248 23.3292 57.677 20.1911 55.2189 19.8864L47.4719 18.7664C44.6995 18.3656 42.303 16.632 41.0613 14.1293L37.5968 7.14509C37.0735 6.08897 36.0514 5.45844 34.8633 5.45844ZM29.6799 5.92997H29.6813H29.6799Z" fill="#FF8A00"/>
<path d="M10.2096 69.9858C8.97106 69.9858 7.74158 69.5966 6.69215 68.8311C4.85456 67.4903 3.95293 65.268 4.33928 63.0315L5.0785 58.752C5.10407 58.6038 5.05321 58.4514 4.94261 58.3443L1.81183 55.3136C0.173569 53.7277 -0.408975 51.3972 0.291828 49.2312C0.995365 47.0563 2.84253 45.5019 5.11227 45.1743C5.18309 45.164 5.25432 45.1566 5.32582 45.152L5.97604 45.1098C7.48182 45.0132 8.7839 46.1544 8.88165 47.6613C8.9794 49.1681 7.83701 50.4691 6.33013 50.5669L5.8236 50.5997C5.7223 50.6247 5.5663 50.6936 5.49494 50.9145C5.40785 51.1835 5.56398 51.3347 5.61539 51.3844L8.7463 54.4151C10.1578 55.7815 10.8011 57.7507 10.4674 59.6829L9.72833 63.9622C9.71643 64.0313 9.68007 64.2416 9.91563 64.4134C10.0852 64.5369 10.2659 64.5503 10.4526 64.4528L14.3226 62.4323C16.0555 61.5273 18.125 61.5273 19.8581 62.4323L23.728 64.4526C23.9149 64.5504 24.0956 64.537 24.265 64.4134C24.5006 64.2416 24.4642 64.0313 24.4523 63.9621L24.1328 62.1121C23.8758 60.6239 24.8736 59.2093 26.3618 58.9523C27.8498 58.6945 29.2645 59.6933 29.5216 61.1813L29.8411 63.0315C30.2274 65.2682 29.3258 67.4905 27.4882 68.8312C25.6382 70.1809 23.2275 70.3604 21.197 69.3006L17.3271 67.2802C17.1788 67.2028 17.0017 67.2027 16.8535 67.2801L12.9834 69.3006C12.1047 69.7591 11.1544 69.9856 10.2096 69.9858ZM48.8029 69.3003L52.6728 67.2798C52.8213 67.2027 52.9982 67.2025 53.1465 67.2799L57.0164 69.3003C59.0469 70.3601 61.4576 70.1806 63.3076 68.8309C65.1452 67.4902 66.0468 65.2679 65.6605 63.0312L64.9214 58.7519C64.8958 58.6037 64.9467 58.4513 65.0573 58.3442L68.1881 55.3135C69.8265 53.7276 70.4089 51.397 69.7081 49.231C69.0045 47.0562 67.1574 45.5017 64.8876 45.1742C64.8168 45.1639 64.7456 45.1565 64.6741 45.1519L64.0238 45.1096C62.5172 45.0142 61.216 46.1543 61.1182 47.6611C61.0205 49.168 62.1629 50.469 63.6698 50.5667L64.1763 50.5996C64.2776 50.6246 64.4336 50.6935 64.505 50.9144C64.592 51.1833 64.4359 51.3345 64.3845 51.3843L61.2537 54.415C59.8423 55.7813 59.1989 57.7506 59.5326 59.6828L60.2717 63.962C60.2836 64.0311 60.32 64.2414 60.0844 64.4133C59.9149 64.537 59.7343 64.5501 59.5472 64.4525L55.6774 62.4323C53.9442 61.5271 51.8748 61.5272 50.1418 62.4321L46.2719 64.4526C46.085 64.55 45.9043 64.5369 45.7349 64.4133C45.4993 64.2414 45.5357 64.0312 45.5476 63.9621L45.8671 62.1119C46.1241 60.6238 45.1262 59.2092 43.6381 58.9522C42.1504 58.695 40.7354 59.6932 40.4783 61.1812L40.1588 63.0315C39.7725 65.268 40.6741 67.4903 42.5117 68.8311C43.5611 69.5967 44.7905 69.9858 46.0291 69.9858C46.9738 69.9856 47.9241 69.7591 48.8029 69.3003ZM31.4453 29.6552C31.4453 31.5428 32.9755 33.0731 34.8632 33.0731C36.7508 33.0731 38.281 31.5428 38.281 29.6552C38.281 27.7676 36.7508 26.2373 34.8632 26.2373C32.9755 26.2373 31.4453 27.7676 31.4453 29.6552Z" fill="white"/>
</g>
<defs>
<clipPath id="clip0_3674_2023">
<rect width="70" height="70" fill="white"/>
</clipPath>
</defs>
</svg>
