<svg width="70" height="70" viewBox="0 0 70 70" fill="none" xmlns="http://www.w3.org/2000/svg">
<g clip-path="url(#clip0_3673_845)">
<path d="M19.1406 27.3438C14.6174 27.3438 10.9375 23.6638 10.9375 19.1406C10.9375 14.6174 14.6174 10.9375 19.1406 10.9375C23.6638 10.9375 27.3438 14.6174 27.3438 19.1406C27.3438 23.6638 23.6638 27.3438 19.1406 27.3438ZM19.1406 16.4062C17.6329 16.4062 16.4062 17.6329 16.4062 19.1406C16.4062 20.6484 17.6329 21.875 19.1406 21.875C20.6484 21.875 21.875 20.6484 21.875 19.1406C21.875 17.6329 20.6484 16.4062 19.1406 16.4062Z" fill="#181818"/>
<path d="M12.5781 53.5938H8.20312C6.69539 53.5938 5.46875 52.3671 5.46875 50.8594V8.20312C5.46875 6.69539 6.69539 5.46875 8.20312 5.46875H39.9219C41.4296 5.46875 42.6562 6.69539 42.6562 8.20312V23.5156C42.6562 25.0258 43.8804 26.25 45.3906 26.25C46.9008 26.25 48.125 25.0258 48.125 23.5156V8.20312C48.125 3.67992 44.4451 0 39.9219 0H8.20312C3.67992 0 0 3.67992 0 8.20312V50.8594C0 55.3826 3.67992 59.0625 8.20312 59.0625H12.5781C14.0883 59.0625 15.3125 57.8383 15.3125 56.3281C15.3125 54.8179 14.0883 53.5938 12.5781 53.5938Z" fill="#181818"/>
<path d="M59.0625 37.1875H58.5922C57.4634 34.005 54.424 31.7188 50.8594 31.7188H28.9844C24.4612 31.7188 20.7812 35.3987 20.7812 39.9219V56.3281C20.7812 63.8668 26.9145 70 34.4531 70H45.3906C51.9932 70 57.5173 65.2954 58.7876 59.0625H59.0625C65.0934 59.0625 70 54.1559 70 48.125C70 42.0941 65.0934 37.1875 59.0625 37.1875ZM45.3906 64.5312H34.4531C29.9299 64.5312 26.25 60.8513 26.25 56.3281V39.9219C26.25 38.4141 27.4766 37.1875 28.9844 37.1875H50.8594C52.3671 37.1875 53.5938 38.4141 53.5938 39.9219V56.3281C53.5938 60.8513 49.9138 64.5312 45.3906 64.5312ZM59.0625 53.5938V42.6562C62.078 42.6562 64.5312 45.1095 64.5312 48.125C64.5312 51.1405 62.078 53.5938 59.0625 53.5938Z" fill="#181818"/>
<path d="M39.9219 42.6562C35.3987 42.6562 31.7188 46.3362 31.7188 50.8594C31.7188 55.3826 35.3987 59.0625 39.9219 59.0625C44.4451 59.0625 48.125 55.3826 48.125 50.8594C48.125 46.3362 44.4451 42.6562 39.9219 42.6562ZM39.9219 53.5938C38.4141 53.5938 37.1875 52.3671 37.1875 50.8594C37.1875 49.3516 38.4141 48.125 39.9219 48.125C41.4296 48.125 42.6562 49.3516 42.6562 50.8594C42.6562 52.3671 41.4296 53.5938 39.9219 53.5938Z" fill="#181818"/>
</g>
<defs>
<clipPath id="clip0_3673_845">
<rect width="70" height="70" fill="white"/>
</clipPath>
</defs>
</svg>
