<svg width="70" height="70" viewBox="0 0 70 70" fill="none" xmlns="http://www.w3.org/2000/svg">
<g clip-path="url(#clip0_3673_835)">
<path d="M53.5913 59.064H16.406C7.36235 59.064 0.00488281 51.7064 0.00488281 42.6628V20.2411C0.00488281 11.196 7.36372 3.83714 16.4089 3.83714H29.2587C32.8862 3.9815 32.8834 9.16202 29.2587 9.30514H16.4089C10.3788 9.30514 5.47289 14.211 5.47289 20.2411V42.6627C5.47289 48.6913 10.3775 53.5958 16.406 53.5958H53.5913C59.6214 53.5958 64.5273 48.6899 64.5273 42.6598V20.241C64.5273 18.1457 64.0039 16.1799 63.0135 14.5563C62.2272 13.2673 62.6347 11.5849 63.9238 10.7986C65.2127 10.0123 66.8951 10.4197 67.6815 11.7089C69.1952 14.1904 69.9953 17.1407 69.9953 20.241V42.6598C69.9953 51.7051 62.6365 59.064 53.5913 59.064ZM50.8573 67.266C50.8573 65.756 49.6333 64.532 48.1233 64.532H21.8769C18.2494 64.6763 18.2522 69.8568 21.8769 70H48.1233C49.6333 70 50.8573 68.776 50.8573 67.266ZM45.8073 25.8679C45.8073 25.8679 56.1137 14.0752 56.129 14.0567C57.5913 12.2916 58.2788 10.0627 58.0647 7.78053C57.8506 5.49846 56.7607 3.43634 54.9956 1.97392C53.2306 0.511638 51.0015 -0.175827 48.7196 0.0383823C46.4375 0.252455 44.3753 1.34236 42.9216 3.09718L32.9034 15.0691C31.9343 16.2271 32.0874 17.9513 33.2456 18.9204C34.4035 19.8894 36.1279 19.7362 37.0968 18.5782L47.1238 6.59588C47.6543 5.95544 48.4024 5.56011 49.2303 5.48233C50.0592 5.40509 50.867 5.65416 51.5072 6.18469C52.8088 7.21855 53.0117 9.27685 51.9376 10.5447L41.6902 22.2695C40.1419 24.0253 41.4346 26.8183 43.7478 26.8028C44.5092 26.8028 45.267 26.4863 45.8073 25.8679Z" fill="#181818"/>
<path d="M54.9582 48.114H42.5185C41.0085 48.114 39.7845 46.89 39.7845 45.38C39.7845 43.87 41.0085 42.646 42.5185 42.646H54.9582C56.4682 42.646 57.6922 43.87 57.6922 45.38C57.6922 46.89 56.4682 48.114 54.9582 48.114ZM30.8879 44.8097C35.8316 41.9902 38.5542 37.9184 38.5542 33.344C38.5542 30.7406 37.6547 28.2092 36.0214 26.2161C34.1332 23.9117 31.4652 22.4871 28.5092 22.205C25.559 21.9228 22.6745 22.8146 20.3901 24.7153C17.2814 27.3018 16.2304 30.4115 15.2143 33.4189C14.6086 35.2111 13.9822 37.0645 12.8851 39.0449C11.8914 40.8384 11.9306 42.9007 12.9925 44.7031C14.2183 46.7835 16.6089 48.1278 19.0832 48.1278C22.7198 48.1279 27.3534 46.8255 30.8879 44.8097ZM27.9896 27.6484C29.4839 27.7909 30.8344 28.5133 31.7921 29.682C32.6387 30.7152 33.0862 31.9815 33.0862 33.3441C33.0862 36.5818 30.4177 38.7833 28.1792 40.0599C25.0298 41.856 21.3414 42.6599 19.0832 42.6599C18.4675 42.6599 17.9128 42.2826 17.7036 41.9275C17.6189 41.7837 17.6343 41.7559 17.6679 41.6951C19.0045 39.2829 19.7429 37.0976 20.3944 35.1696C21.3072 32.4684 21.9668 30.5169 23.8873 28.9188H23.8874C24.9033 28.0735 26.152 27.6227 27.4513 27.6227C27.63 27.6227 27.8095 27.6311 27.9896 27.6484Z" fill="#181818"/>
</g>
<defs>
<clipPath id="clip0_3673_835">
<rect width="70" height="70" fill="white"/>
</clipPath>
</defs>
</svg>
