<svg width="70" height="70" viewBox="0 0 70 70" fill="none" xmlns="http://www.w3.org/2000/svg">
<g clip-path="url(#clip0_3674_2031)">
<path d="M21.3223 34.9997C21.3223 31.0136 22.388 27.2765 24.25 24.0576H16.0434C14.1813 27.2765 13.1157 31.0136 13.1157 34.9997C13.1157 38.9858 14.1815 42.7229 16.0434 45.9418H18.5868C20.4465 45.9418 22.0885 45.0131 23.0771 43.5948C21.9487 40.9559 21.3223 38.0512 21.3223 34.9997Z" fill="#FF8A00" fill-opacity="0.1"/>
<path d="M62.8993 52.1652C61.5353 51.5154 60.9566 49.8828 61.6066 48.519C67.0836 37.0253 64.7221 23.2616 55.7301 14.2696C46.7385 5.27771 32.9743 2.91627 21.4808 8.39319C20.1171 9.04315 18.4846 8.46445 17.8346 7.10052C17.1846 5.73673 17.7633 4.10417 19.1273 3.45435C32.7079 -3.01707 48.9722 -0.225609 59.5987 10.4011C70.2254 21.0277 73.017 37.2919 66.5454 50.8725C65.8957 52.2363 64.2629 52.8151 62.8993 52.1652Z" fill="white"/>
<path d="M11.2409 15.0706C12.7517 15.0706 13.9764 13.8459 13.9764 12.3351C13.9764 10.8243 12.7517 9.59961 11.2409 9.59961C9.7301 9.59961 8.50537 10.8243 8.50537 12.3351C8.50537 13.8459 9.7301 15.0706 11.2409 15.0706Z" fill="white"/>
<path d="M48.5191 61.6066C37.0255 67.0836 23.2613 64.7221 14.2697 55.7302C5.27777 46.7383 2.91619 32.9745 8.39325 21.4808C9.04321 20.117 8.46451 18.4845 7.10058 17.8347C5.73651 17.1846 4.10409 17.7634 3.45441 19.1273C-3.01715 32.7079 -0.225549 48.9721 10.4011 59.5988C17.21 66.4078 26.3331 69.9999 35.5823 69.9999C40.7681 69.9999 45.9938 68.8704 50.8727 66.5455C52.2366 65.8957 52.8153 64.2631 52.1654 62.8993C51.5151 61.5355 49.8824 60.9567 48.5191 61.6066Z" fill="#FF8A00"/>
<path d="M60.6927 55.73C59.6245 54.6616 57.8924 54.6616 56.8242 55.73C55.7559 56.7983 55.7558 58.5303 56.8242 59.5985C57.8925 60.6669 59.6245 60.6669 60.6927 59.5985C61.761 58.5303 61.761 56.7983 60.6927 55.73Z" fill="#FF8A00"/>
<path d="M10.3804 34.9999C10.3804 48.5724 21.4274 59.6196 35 59.6196C48.5807 59.6196 59.6197 48.5805 59.6197 34.9999C59.6197 33.4891 58.395 32.2644 56.8842 32.2644H51.4131C46.8881 32.2644 43.2066 35.9458 43.2066 40.4709C43.2066 41.9793 41.9794 43.2065 40.4711 43.2065H35C33.4892 43.2065 32.2645 44.4311 32.2645 45.942C32.2645 47.4528 33.4892 48.6775 35 48.6775H48.3885C44.9334 52.0602 40.2059 54.1485 35 54.1485C29.5792 54.1485 24.6778 51.8839 21.1907 48.2516C24.4428 47.1602 26.7935 44.0859 26.7935 40.4709C26.7935 38.9626 28.0206 37.7354 29.529 37.7354C34.0541 37.7354 37.7356 34.054 37.7356 29.5289C37.7356 25.0038 34.0541 21.3223 29.529 21.3223H21.6135C25.0686 17.9401 29.7946 15.8513 35 15.8513C40.0545 15.8513 44.8568 17.8698 48.3946 21.3223H45.9421C44.4313 21.3223 43.2066 22.547 43.2066 24.0578C43.2066 25.5687 44.4313 26.7933 45.9421 26.7933H53.9565C54.9342 26.7933 55.8376 26.2715 56.3261 25.4246C56.8146 24.5777 56.8139 23.5344 56.3244 22.6882C52.0548 15.3079 44.0813 10.3804 35 10.3804C21.4294 10.3802 10.3804 21.4293 10.3804 34.9999ZM48.2089 43.2065C48.5124 42.3505 48.6776 41.4296 48.6776 40.4709C48.6776 38.9626 49.9048 37.7354 51.4131 37.7354H53.9539C53.6765 39.666 53.1097 41.5054 52.2996 43.2065H48.2089ZM32.2645 29.5289C32.2645 31.0372 31.0374 32.2644 29.529 32.2644C25.0039 32.2644 21.3224 35.9458 21.3224 40.4709C21.3224 41.9793 20.0953 43.2065 18.5869 43.2065H17.7014C16.516 40.7177 15.8514 37.9351 15.8514 34.9999C15.8514 32.0647 16.516 29.2821 17.7014 26.7933H29.529C31.0374 26.7933 32.2645 28.0205 32.2645 29.5289Z" fill="#FF8A00"/>
</g>
<defs>
<clipPath id="clip0_3674_2031">
<rect width="70" height="70" fill="white"/>
</clipPath>
</defs>
</svg>
