<svg width="293" height="292" viewBox="0 0 293 292" fill="none" xmlns="http://www.w3.org/2000/svg">
<path d="M68.3048 113.022H293V139.033H68.3048V113.022ZM86.5401 74.0064H265.184V178.668H83.1403V153.896H230.258V99.088H86.5401V74.0064ZM151.445 56.0467H186.988V254.223C186.988 272.802 182.97 280.853 170.917 285.807C158.863 290.761 141.246 291.381 115.593 291.381C114.047 282.401 109.411 268.776 104.466 260.106C120.538 260.725 139.082 260.725 144.336 260.416C149.591 260.416 151.445 258.867 151.445 253.913V56.0467ZM68.3048 197.557L88.3945 177.739C103.539 184.861 123.32 196.937 133.519 205.608L111.884 227.593C102.921 218.613 83.4494 205.917 68.3048 197.557ZM253.439 179.907L280.637 201.892C261.166 214.588 238.603 227.593 220.986 235.334L200.278 216.755C216.968 207.775 240.149 191.673 253.439 179.907ZM192.861 170.927C208.314 212.11 240.458 244.004 288.055 257.629C280.328 264.441 270.438 278.066 265.493 287.355C215.114 269.086 183.28 230.38 165.044 177.429L192.861 170.927ZM55.3238 249.888C75.7226 243.385 106.321 231.928 136.301 220.471L142.791 247.101C118.993 258.558 93.3397 270.015 72.6319 279.304L55.3238 249.888ZM138.773 0H177.407V43.6607H138.773V0ZM45.1245 26.6299H289.291V58.8335H45.1245V26.6299ZM27.5074 26.6299H62.7416V116.428C62.7416 167.211 58.1055 243.695 30.289 292C23.7985 285.807 8.34494 275.279 0 271.873C25.653 227.283 27.5074 162.566 27.5074 116.428V26.6299Z" fill="black"/>
</svg>
